{
copyright = "Copyright (c) 2015, Cadson Demak (info@cadsondemak.com)";
customParameters = (
{
name = vendorID;
value = CDK;
},
{
name = description;
value = "Copyright (c) 2015, Cadson Demak (info@cadsondemak.com)";
},
{
name = license;

glyphs = (
{
glyphname = A;
lastChange = "2015-10-22 12:03:08 +0000";
layers = (
{
layerId = "C8730BEE-A5E2-4294-A2BB-9D9AC44EE1E3";
name = "Light Italic";
paths = (
{
closed = 1;
nodes = (
"147 0 LINE",
"149 14 LINE",
"135 14 LINE SMOOTH",
"113 14 OFFCURVE",
"81 26 OFFCURVE",
"84 45 CURVE",
"84 47 OFFCURVE",
"91 59 OFFCURVE",
"92 61 CURVE",
"417 641 LINE",
"504 61 LINE",
"505 59 OFFCURVE",
"506 47 OFFCURVE",
"506 45 CURVE",
"502 26 OFFCURVE",
"462 14 OFFCURVE",
"440 14 CURVE SMOOTH",
"428 14 LINE",
"426 0 LINE",
"606 0 LINE",
"608 14 LINE",
"594 14 LINE SMOOTH",
"570 14 OFFCURVE",
"540 29 OFFCURVE",
"537 48 CURVE SMOOTH",
"440 707 LINE",
"414 690 LINE",
"56 48 LINE SMOOTH",
"45 29 OFFCURVE",
"8 16 OFFCURVE",
"-17 14 CURVE",
"-31 14 LINE",
"-33 0 LINE"
);
},
{
closed = 1;
nodes = (
"484 232 LINE",
"489 256 LINE",
"186 256 LINE SMOOTH",
"186 256 OFFCURVE",
"181 232 OFFCURVE",
"181 232 CURVE"
);
}
);
width = 650;
}
);
leftKerningGroup = A;
note = A;
rightKerningGroup = A;
unicode = 0041;
},
{
glyphname = Aacute;
lastChange = "2015-10-22 12:03:09 +0000";
layers = (
{
layerId = "C8730BEE-A5E2-4294-A2BB-9D9AC44EE1E3";
name = "Light Italic";
paths = (
{
closed = 1;
nodes = (
"147 0 LINE",
"149 14 LINE",
"135 14 LINE SMOOTH",
"113 14 OFFCURVE",
"81 26 OFFCURVE",
"84 45 CURVE",
"84 47 OFFCURVE",
"91 59 OFFCURVE",
"92 61 CURVE",
"417 641 LINE",
"504 61 LINE",
"505 59 OFFCURVE",
"506 47 OFFCURVE",
"506 45 CURVE",
"502 26 OFFCURVE",
"462 14 OFFCURVE",
"440 14 CURVE SMOOTH",
"428 14 LINE",
"426 0 LINE",
"606 0 LINE",
"608 14 LINE",
"594 14 LINE SMOOTH",
"570 14 OFFCURVE",
"540 29 OFFCURVE",
"537 48 CURVE SMOOTH",
"440 707 LINE",
"414 690 LINE",
"56 48 LINE SMOOTH",
"45 29 OFFCURVE",
"8 16 OFFCURVE",
"-17 14 CURVE",
"-31 14 LINE",
"-33 0 LINE"
);
},
{
closed = 1;
nodes = (
"484 232 LINE",
"489 256 LINE",
"186 256 LINE SMOOTH",
"186 256 OFFCURVE",
"181 232 OFFCURVE",
"181 232 CURVE"
);
},
{
closed = 1;
nodes = (
"517 860 LINE",
"530 866 OFFCURVE",
"537 875 OFFCURVE",
"538 883 CURVE",
"540 892 OFFCURVE",
"534 897 OFFCURVE",
"527 897 CURVE SMOOTH",
"517 897 OFFCURVE",
"509 891 OFFCURVE",
"500 885 CURVE SMOOTH",
"379 798 LINE",
"384 788 LINE"
);
}
);
width = 650;
}
);
leftKerningGroup = A;
note = Aacute;
rightKerningGroup = A;
unicode = 00C1;
},
{
glyphname = Abreve;
lastChange = "2015-10-22 12:03:08 +0000";
layers = (
{
layerId = "C8730BEE-A5E2-4294-A2BB-9D9AC44EE1E3";
name = "Light Italic";
paths = (
{
closed = 1;
nodes = (
"147 0 LINE",
"149 14 LINE",
"135 14 LINE SMOOTH",
"113 14 OFFCURVE",
"81 26 OFFCURVE",
"84 45 CURVE",
"84 47 OFFCURVE",
"91 59 OFFCURVE",
"92 61 CURVE",
"417 641 LINE",
"504 61 LINE",
"505 59 OFFCURVE",
"506 47 OFFCURVE",
"506 45 CURVE",
"502 26 OFFCURVE",
"462 14 OFFCURVE",
"440 14 CURVE SMOOTH",
"428 14 LINE",
"426 0 LINE",
"606 0 LINE",
"608 14 LINE",
"594 14 LINE SMOOTH",
"570 14 OFFCURVE",
"540 29 OFFCURVE",
"537 48 CURVE SMOOTH",
"440 707 LINE",
"414 690 LINE",
"56 48 LINE SMOOTH",
"45 29 OFFCURVE",
"8 16 OFFCURVE",
"-17 14 CURVE",
"-31 14 LINE",
"-33 0 LINE"
);
},
{
closed = 1;
nodes = (
"484 232 LINE",
"489 256 LINE",
"186 256 LINE SMOOTH",
"186 256 OFFCURVE",
"181 232 OFFCURVE",
"181 232 CURVE"
);
},
{
closed = 1;
nodes = (
"512 776 OFFCURVE",
"568 811 OFFCURVE",
"590 889 CURVE",
"566 889 LINE",
"541 810 OFFCURVE",
"486 801 OFFCURVE",
"448 801 CURVE SMOOTH",
"411 801 OFFCURVE",
"359 810 OFFCURVE",
"367 889 CURVE",
"343 889 LINE",
"331 811 OFFCURVE",
"375 776 OFFCURVE",
"444 776 CURVE SMOOTH"
);
}
);
width = 650;
}
);
leftKerningGroup = A;
note = Abreve;
rightKerningGroup = A;
unicode = 0102;
},
{
glyphname = Abreveacute;
lastChange = "2015-10-22 12:03:08 +0000";
layers = (
{
layerId = "C8730BEE-A5E2-4294-A2BB-9D9AC44EE1E3";
name = "Light Italic";
paths = (
{
closed = 1;
nodes = (
"147 0 LINE",
"149 14 LINE",
"135 14 LINE SMOOTH",
"113 14 OFFCURVE",
"81 26 OFFCURVE",
"84 45 CURVE",
"84 47 OFFCURVE",
"91 59 OFFCURVE",
"92 61 CURVE",
"417 641 LINE",
"504 61 LINE",
"505 59 OFFCURVE",
"506 47 OFFCURVE",
"506 45 CURVE",
"502 26 OFFCURVE",
"462 14 OFFCURVE",
"440 14 CURVE SMOOTH",
"428 14 LINE",
"426 0 LINE",
"606 0 LINE",
"608 14 LINE",
"594 14 LINE SMOOTH",
"570 14 OFFCURVE",
"540 29 OFFCURVE",
"537 48 CURVE SMOOTH",
"440 707 LINE",
"414 690 LINE",
"56 48 LINE SMOOTH",
"45 29 OFFCURVE",
"8 16 OFFCURVE",
"-17 14 CURVE",
"-31 14 LINE",
"-33 0 LINE"
);
},
{
closed = 1;
nodes = (
"484 232 LINE",
"489 256 LINE",
"186 256 LINE SMOOTH",
"186 256 OFFCURVE",
"181 232 OFFCURVE",
"181 232 CURVE"
);
},
{
closed = 1;
nodes = (
"514 781 OFFCURVE",
"570 816 OFFCURVE",
"592 894 CURVE",
"568 894 LINE",
"543 815 OFFCURVE",
"488 806 OFFCURVE",
"450 806 CURVE SMOOTH",
"413 806 OFFCURVE",
"361 815 OFFCURVE",
"369 894 CURVE",
"345 894 LINE",
"333 816 OFFCURVE",
"377 781 OFFCURVE",
"445 781 CURVE SMOOTH"
);
},
{
closed = 1;
nodes = (
"576 956 LINE SMOOTH",
"588 962 OFFCURVE",
"595 971 OFFCURVE",
"597 979 CURVE SMOOTH",
"599 988 OFFCURVE",
"592 993 OFFCURVE",
"585 993 CURVE SMOOTH",
"575 993 OFFCURVE",
"564 987 OFFCURVE",
"556 981 CURVE SMOOTH",
"437 893 LINE",
"442 883 LINE"
);
}
);
width = 650;
}
);
leftKerningGroup = A;
note = Abreveacute;
rightKerningGroup = A;
unicode = 1EAE;
},
{
glyphname = Abrevedotbelow;
lastChange = "2015-10-22 12:03:09 +0000";
layers = (
{
layerId = "C8730BEE-A5E2-4294-A2BB-9D9AC44EE1E3";
name = "Light Italic";
paths = (
{
closed = 1;
nodes = (
"147 0 LINE",
"149 14 LINE",
"135 14 LINE SMOOTH",
"113 14 OFFCURVE",
"81 26 OFFCURVE",
"84 45 CURVE",
"84 47 OFFCURVE",
"91 59 OFFCURVE",
"92 61 CURVE",
"417 641 LINE",
"504 61 LINE",
"505 59 OFFCURVE",
"506 47 OFFCURVE",
"506 45 CURVE",
"502 26 OFFCURVE",
"462 14 OFFCURVE",
"440 14 CURVE SMOOTH",
"428 14 LINE",
"426 0 LINE",
"606 0 LINE",
"608 14 LINE",
"594 14 LINE SMOOTH",
"570 14 OFFCURVE",
"540 29 OFFCURVE",
"537 48 CURVE SMOOTH",
"440 707 LINE",
"414 690 LINE",
"56 48 LINE SMOOTH",
"45 29 OFFCURVE",
"8 16 OFFCURVE",
"-17 14 CURVE",
"-31 14 LINE",
"-33 0 LINE"
);
},
{
closed = 1;
nodes = (
"277 -124 OFFCURVE",
"291 -113 OFFCURVE",
"296 -94 CURVE",
"300 -75 OFFCURVE",
"290 -64 OFFCURVE",
"274 -64 CURVE SMOOTH",
"257 -64 OFFCURVE",
"244 -75 OFFCURVE",
"240 -94 CURVE",
"235 -113 OFFCURVE",
"245 -124 OFFCURVE",
"261 -124 CURVE SMOOTH"
);
},
{
closed = 1;
nodes = (
"484 232 LINE",
"489 256 LINE",
"186 256 LINE SMOOTH",
"186 256 OFFCURVE",
"181 232 OFFCURVE",
"181 232 CURVE"
);
},
{
closed = 1;
nodes = (
"513 781 OFFCURVE",
"569 816 OFFCURVE",
"591 894 CURVE",
"567 894 LINE",
"542 815 OFFCURVE",
"487 806 OFFCURVE",
"449 806 CURVE SMOOTH",
"412 806 OFFCURVE",
"360 815 OFFCURVE",
"368 894 CURVE",
"344 894 LINE",
"332 816 OFFCURVE",
"376 781 OFFCURVE",
"444 781 CURVE SMOOTH"
);
}
);
width = 650;
}
);
leftKerningGroup = A;
note = Abrevedotbelow;
rightKerningGroup = A;
unicode = 1EB6;
},
{
glyphname = Abrevegrave;
lastChange = "2015-10-22 12:03:08 +0000";
layers = (
{
layerId = "C8730BEE-A5E2-4294-A2BB-9D9AC44EE1E3";
name = "Light Italic";
paths = (
{
closed = 1;
nodes = (
"147 0 LINE",
"149 14 LINE",
"135 14 LINE SMOOTH",
"113 14 OFFCURVE",
"81 26 OFFCURVE",
"84 45 CURVE",
"84 47 OFFCURVE",
"91 59 OFFCURVE",
"92 61 CURVE",
"417 641 LINE",
"504 61 LINE",
"505 59 OFFCURVE",
"506 47 OFFCURVE",
"506 45 CURVE",
"502 26 OFFCURVE",
"462 14 OFFCURVE",
"440 14 CURVE SMOOTH",
"428 14 LINE",
"426 0 LINE",
"606 0 LINE",
"608 14 LINE",
"594 14 LINE SMOOTH",
"570 14 OFFCURVE",
"540 29 OFFCURVE",
"537 48 CURVE SMOOTH",
"440 707 LINE",
"414 690 LINE",
"56 48 LINE SMOOTH",
"45 29 OFFCURVE",
"8 16 OFFCURVE",
"-17 14 CURVE",
"-31 14 LINE",
"-33 0 LINE"
);
},
{
closed = 1;
nodes = (
"484 232 LINE",
"489 256 LINE",
"186 256 LINE SMOOTH",
"186 256 OFFCURVE",
"181 232 OFFCURVE",
"181 232 CURVE"
);
},
{
closed = 1;
nodes = (
"514 781 OFFCURVE",
"570 816 OFFCURVE",
"592 894 CURVE",
"568 894 LINE",
"543 815 OFFCURVE",
"488 806 OFFCURVE",
"450 806 CURVE SMOOTH",
"413 806 OFFCURVE",
"361 815 OFFCURVE",
"369 894 CURVE",
"345 894 LINE",
"333 816 OFFCURVE",
"377 781 OFFCURVE",
"445 781 CURVE SMOOTH"
);
},
{
closed = 1;
nodes = (
"485 893 LINE",
"401 981 LINE SMOOTH",
"396 987 OFFCURVE",
"388 993 OFFCURVE",
"378 993 CURVE SMOOTH",
"371 993 OFFCURVE",
"363 988 OFFCURVE",
"361 979 CURVE",
"359 972 OFFCURVE",
"362 963 OFFCURVE",
"372 956 CURVE SMOOTH",
"475 883 LINE"
);
}
);
width = 650;
}
);
leftKerningGroup = A;
note = Abrevegrave;
rightKerningGroup = A;
unicode = 1EB0;
},
{
glyphname = Abrevehookabove;
lastChange = "2015-10-22 12:03:08 +0000";
layers = (
{
layerId = "C8730BEE-A5E2-4294-A2BB-9D9AC44EE1E3";
name = "Light Italic";
paths = (
{
closed = 1;
nodes = (
"147 0 LINE",
"149 14 LINE",
"135 14 LINE SMOOTH",
"113 14 OFFCURVE",
"81 26 OFFCURVE",
"84 45 CURVE",
"84 47 OFFCURVE",
"91 59 OFFCURVE",
"92 61 CURVE",
"417 641 LINE",
"504 61 LINE",
"505 59 OFFCURVE",
"506 47 OFFCURVE",
"506 45 CURVE",
"502 26 OFFCURVE",
"462 14 OFFCURVE",
"440 14 CURVE SMOOTH",
"428 14 LINE",
"426 0 LINE",
"606 0 LINE",
"608 14 LINE",
"594 14 LINE SMOOTH",
"570 14 OFFCURVE",
"540 29 OFFCURVE",
"537 48 CURVE SMOOTH",
"440 707 LINE",
"414 690 LINE",
"56 48 LINE SMOOTH",
"45 29 OFFCURVE",
"8 16 OFFCURVE",
"-17 14 CURVE",
"-31 14 LINE",
"-33 0 LINE"
);
},
{
closed = 1;
nodes = (
"484 232 LINE",
"489 256 LINE",
"186 256 LINE SMOOTH",
"186 256 OFFCURVE",
"181 232 OFFCURVE",
"181 232 CURVE"
);
},
{
closed = 1;
nodes = (
"514 781 OFFCURVE",
"570 816 OFFCURVE",
"592 894 CURVE",
"568 894 LINE",
"543 815 OFFCURVE",
"488 806 OFFCURVE",
"450 806 CURVE SMOOTH",
"413 806 OFFCURVE",
"361 815 OFFCURVE",
"369 894 CURVE",
"345 894 LINE",
"333 816 OFFCURVE",
"377 781 OFFCURVE",
"445 781 CURVE SMOOTH"
);
},
{
closed = 1;
nodes = (
"483 878 LINE",
"468 882 OFFCURVE",
"459 888 OFFCURVE",
"463 904 CURVE",
"468 929 OFFCURVE",
"538 938 OFFCURVE",
"545 976 CURVE SMOOTH",
"552 1008 OFFCURVE",
"522 1022 OFFCURVE",
"488 1022 CURVE SMOOTH",
"462 1022 OFFCURVE",
"421 1013 OFFCURVE",
"416 987 CURVE",
"414 976 OFFCURVE",
"420 969 OFFCURVE",
"428 969 CURVE SMOOTH",
"445 969 OFFCURVE",
"445 978 OFFCURVE",
"454 987 CURVE SMOOTH",
"462 995 OFFCURVE",
"468 1002 OFFCURVE",
"486 1002 CURVE SMOOTH",
"501 1002 OFFCURVE",
"513 992 OFFCURVE",
"511 979 CURVE",
"503 945 OFFCURVE",
"439 938 OFFCURVE",
"431 903 CURVE SMOOTH",
"427 883 OFFCURVE",
"438 865 OFFCURVE",
"473 865 CURVE"
);
}
);
width = 650;
}
);
leftKerningGroup = A;
note = Abrevehookabove;
rightKerningGroup = A;
unicode = 1EB2;
},
{
glyphname = Abrevetilde;
lastChange = "2015-10-22 12:03:08 +0000";
layers = (
{
layerId = "C8730BEE-A5E2-4294-A2BB-9D9AC44EE1E3";
name = "Light Italic";
paths = (
{
closed = 1;
nodes = (
"147 0 LINE",
"149 14 LINE",
"135 14 LINE SMOOTH",
"113 14 OFFCURVE",
"81 26 OFFCURVE",
"84 45 CURVE",
"84 47 OFFCURVE",
"91 59 OFFCURVE",
"92 61 CURVE",
"417 641 LINE",
"504 61 LINE",
"505 59 OFFCURVE",
"506 47 OFFCURVE",
"506 45 CURVE",
"502 26 OFFCURVE",
"462 14 OFFCURVE",
"440 14 CURVE SMOOTH",
"428 14 LINE",
"426 0 LINE",
"606 0 LINE",
"608 14 LINE",
"594 14 LINE SMOOTH",
"570 14 OFFCURVE",
"540 29 OFFCURVE",
"537 48 CURVE SMOOTH",
"440 707 LINE",
"414 690 LINE",
"56 48 LINE SMOOTH",
"45 29 OFFCURVE",
"8 16 OFFCURVE",
"-17 14 CURVE",
"-31 14 LINE",
"-33 0 LINE"
);
},
{
closed = 1;
nodes = (
"484 232 LINE",
"489 256 LINE",
"186 256 LINE SMOOTH",
"186 256 OFFCURVE",
"181 232 OFFCURVE",
"181 232 CURVE"
);
},
{
closed = 1;
nodes = (
"514 781 OFFCURVE",
"570 816 OFFCURVE",
"592 894 CURVE",
"568 894 LINE",
"543 815 OFFCURVE",
"488 806 OFFCURVE",
"450 806 CURVE SMOOTH",
"413 806 OFFCURVE",
"361 815 OFFCURVE",
"369 894 CURVE",
"345 894 LINE",
"333 816 OFFCURVE",
"377 781 OFFCURVE",
"445 781 CURVE SMOOTH"
);
},
{
closed = 1;
nodes = (
"377 975 OFFCURVE",
"400 999 OFFCURVE",
"428 999 CURVE SMOOTH",
"468 999 OFFCURVE",
"497 939 OFFCURVE",
"539 939 CURVE SMOOTH",
"578 939 OFFCURVE",
"609 966 OFFCURVE",
"628 1022 CURVE",
"614 1029 LINE",
"598 989 OFFCURVE",
"577 963 OFFCURVE",
"546 963 CURVE SMOOTH",
"509 963 OFFCURVE",
"476 1022 OFFCURVE",
"435 1022 CURVE SMOOTH",
"400 1022 OFFCURVE",
"366 1000 OFFCURVE",
"348 945 CURVE",
"360 937 LINE"
);
}
);
width = 650;
}
);
leftKerningGroup = A;
note = Abrevetilde;
rightKerningGroup = A;
unicode = 1EB4;
},
{
glyphname = Acaron;
lastChange = "2015-10-22 12:03:09 +0000";
layers = (
{
layerId = "C8730BEE-A5E2-4294-A2BB-9D9AC44EE1E3";
name = "Light Italic";
paths = (
{
closed = 1;
nodes = (
"147 0 LINE",
"149 14 LINE",
"135 14 LINE SMOOTH",
"113 14 OFFCURVE",
"81 26 OFFCURVE",
"84 45 CURVE",
"84 47 OFFCURVE",
"91 59 OFFCURVE",
"92 61 CURVE",
"417 641 LINE",
"504 61 LINE",
"505 59 OFFCURVE",
"506 47 OFFCURVE",
"506 45 CURVE",
"502 26 OFFCURVE",
"462 14 OFFCURVE",
"440 14 CURVE SMOOTH",
"428 14 LINE",
"426 0 LINE",
"606 0 LINE",
"608 14 LINE",
"594 14 LINE SMOOTH",
"570 14 OFFCURVE",
"540 29 OFFCURVE",
"537 48 CURVE SMOOTH",
"440 707 LINE",
"414 690 LINE",
"56 48 LINE SMOOTH",
"45 29 OFFCURVE",
"8 16 OFFCURVE",
"-17 14 CURVE",
"-31 14 LINE",
"-33 0 LINE"
);
},
{
closed = 1;
nodes = (
"484 232 LINE",
"489 256 LINE",
"186 256 LINE SMOOTH",
"186 256 OFFCURVE",
"181 232 OFFCURVE",
"181 232 CURVE"
);
},
{
closed = 1;
nodes = (
"457 787 LINE",
"573 883 LINE",
"564 899 LINE",
"464 824 LINE",
"459 821 OFFCURVE",
"455 819 OFFCURVE",
"452 819 CURVE SMOOTH",
"449 819 OFFCURVE",
"445 821 OFFCURVE",
"443 824 CURVE SMOOTH",
"373 899 LINE",
"356 883 LINE",
"434 787 LINE"
);
}
);
width = 650;
}
);
leftKerningGroup = A;
note = Acaron;
rightKerningGroup = A;
unicode = 01CD;
},
{
glyphname = Acircumflex;
lastChange = "2015-10-22 12:03:08 +0000";
layers = (
{
layerId = "C8730BEE-A5E2-4294-A2BB-9D9AC44EE1E3";
name = "Light Italic";
paths = (
{
closed = 1;
nodes = (
"147 0 LINE",
"149 14 LINE",
"135 14 LINE SMOOTH",
"113 14 OFFCURVE",
"81 26 OFFCURVE",
"84 45 CURVE",
"84 47 OFFCURVE",
"91 59 OFFCURVE",
"92 61 CURVE",
"417 641 LINE",
"504 61 LINE",
"505 59 OFFCURVE",
"506 47 OFFCURVE",
"506 45 CURVE",
"502 26 OFFCURVE",
"462 14 OFFCURVE",
"440 14 CURVE SMOOTH",
"428 14 LINE",
"426 0 LINE",
"606 0 LINE",
"608 14 LINE",
"594 14 LINE SMOOTH",
"570 14 OFFCURVE",
"540 29 OFFCURVE",
"537 48 CURVE SMOOTH",
"440 707 LINE",
"414 690 LINE",
"56 48 LINE SMOOTH",
"45 29 OFFCURVE",
"8 16 OFFCURVE",
"-17 14 CURVE",
"-31 14 LINE",
"-33 0 LINE"
);
},
{
closed = 1;
nodes = (
"484 232 LINE",
"489 256 LINE",
"186 256 LINE SMOOTH",
"186 256 OFFCURVE",
"181 232 OFFCURVE",
"181 232 CURVE"
);
},
{
closed = 1;
nodes = (
"450 862 LINE SMOOTH",
"454 865 OFFCURVE",
"459 867 OFFCURVE",
"462 867 CURVE SMOOTH",
"465 867 OFFCURVE",
"468 865 OFFCURVE",
"471 862 CURVE",
"540 787 LINE",
"557 803 LINE",
"480 899 LINE",
"457 899 LINE",
"340 803 LINE",
"350 787 LINE"
);
}
);
width = 650;
}
);
leftKerningGroup = A;
note = Acircumflex;
rightKerningGroup = A;
unicode = 00C2;
},
{
glyphname = Acircumflexacute;
lastChange = "2015-10-22 12:03:09 +0000";
layers = (
{
layerId = "C8730BEE-A5E2-4294-A2BB-9D9AC44EE1E3";
name = "Light Italic";
paths = (
{
closed = 1;
nodes = (
"147 0 LINE",
"149 14 LINE",
"135 14 LINE SMOOTH",
"113 14 OFFCURVE",
"81 26 OFFCURVE",
"84 45 CURVE",
"84 47 OFFCURVE",
"91 59 OFFCURVE",
"92 61 CURVE",
"417 641 LINE",
"504 61 LINE",
"505 59 OFFCURVE",
"506 47 OFFCURVE",
"506 45 CURVE",
"502 26 OFFCURVE",
"462 14 OFFCURVE",
"440 14 CURVE SMOOTH",
"428 14 LINE",
"426 0 LINE",
"606 0 LINE",
"608 14 LINE",
"594 14 LINE SMOOTH",
"570 14 OFFCURVE",
"540 29 OFFCURVE",
"537 48 CURVE SMOOTH",
"440 707 LINE",
"414 690 LINE",
"56 48 LINE SMOOTH",
"45 29 OFFCURVE",
"8 16 OFFCURVE",
"-17 14 CURVE",
"-31 14 LINE",
"-33 0 LINE"
);
},
{
closed = 1;
nodes = (
"484 232 LINE",
"489 256 LINE",
"186 256 LINE SMOOTH",
"186 256 OFFCURVE",
"181 232 OFFCURVE",
"181 232 CURVE"
);
},
{
closed = 1;
nodes = (
"451 862 LINE SMOOTH",
"455 865 OFFCURVE",
"460 867 OFFCURVE",
"463 867 CURVE SMOOTH",
"466 867 OFFCURVE",
"468 865 OFFCURVE",
"472 862 CURVE",
"541 787 LINE",
"558 803 LINE",
"481 899 LINE",
"458 899 LINE",
"341 803 LINE",
"351 787 LINE"
);
},
{
closed = 1;
nodes = (
"687 951 LINE SMOOTH",
"699 957 OFFCURVE",
"706 967 OFFCURVE",
"708 974 CURVE",
"709 983 OFFCURVE",
"704 988 OFFCURVE",
"696 988 CURVE SMOOTH",
"686 988 OFFCURVE",
"675 982 OFFCURVE",
"667 976 CURVE SMOOTH",
"548 888 LINE",
"554 878 LINE"
);
}
);
width = 650;
}
);
leftKerningGroup = A;
note = Acircumflexacute;
rightKerningGroup = A;
unicode = 1EA4;
},
{
glyphname = Acircumflexdotbelow;
lastChange = "2015-10-22 12:03:09 +0000";
layers = (
{
layerId = "C8730BEE-A5E2-4294-A2BB-9D9AC44EE1E3";
name = "Light Italic";
paths = (
{
closed = 1;
nodes = (
"147 0 LINE",
"149 14 LINE",
"135 14 LINE SMOOTH",
"113 14 OFFCURVE",
"81 26 OFFCURVE",
"84 45 CURVE",
"84 47 OFFCURVE",
"91 59 OFFCURVE",
"92 61 CURVE",
"417 641 LINE",
"504 61 LINE",
"505 59 OFFCURVE",
"506 47 OFFCURVE",
"506 45 CURVE",
"502 26 OFFCURVE",
"462 14 OFFCURVE",
"440 14 CURVE SMOOTH",
"428 14 LINE",
"426 0 LINE",
"606 0 LINE",
"608 14 LINE",
"594 14 LINE SMOOTH",
"570 14 OFFCURVE",
"540 29 OFFCURVE",
"537 48 CURVE SMOOTH",
"440 707 LINE",
"414 690 LINE",
"56 48 LINE SMOOTH",
"45 29 OFFCURVE",
"8 16 OFFCURVE",
"-17 14 CURVE",
"-31 14 LINE",
"-33 0 LINE"
);
},
{
closed = 1;
nodes = (
"276 -124 OFFCURVE",
"290 -113 OFFCURVE",
"295 -94 CURVE",
"299 -75 OFFCURVE",
"289 -64 OFFCURVE",
"273 -64 CURVE SMOOTH",
"256 -64 OFFCURVE",
"243 -75 OFFCURVE",
"239 -94 CURVE",
"234 -113 OFFCURVE",
"244 -124 OFFCURVE",
"260 -124 CURVE SMOOTH"
);
},
{
closed = 1;
nodes = (
"484 232 LINE",
"489 256 LINE",
"186 256 LINE SMOOTH",
"186 256 OFFCURVE",
"181 232 OFFCURVE",
"181 232 CURVE"
);
},
{
closed = 1;
nodes = (
"450 862 LINE SMOOTH",
"454 865 OFFCURVE",
"459 867 OFFCURVE",
"462 867 CURVE SMOOTH",
"465 867 OFFCURVE",
"468 865 OFFCURVE",
"471 862 CURVE",
"540 787 LINE",
"557 803 LINE",
"480 899 LINE",
"457 899 LINE",
"340 803 LINE",
"350 787 LINE"
);
}
);
width = 650;
}
);
leftKerningGroup = A;
note = Acircumflexdotbelow;
rightKerningGroup = A;
unicode = 1EAC;
},
{
glyphname = Acircumflexgrave;
lastChange = "2015-10-22 12:03:08 +0000";
layers = (
{
layerId = "C8730BEE-A5E2-4294-A2BB-9D9AC44EE1E3";
name = "Light Italic";
paths = (
{
closed = 1;
nodes = (
"147 0 LINE",
"149 14 LINE",
"135 14 LINE SMOOTH",
"113 14 OFFCURVE",
"81 26 OFFCURVE",
"84 45 CURVE",
"84 47 OFFCURVE",
"91 59 OFFCURVE",
"92 61 CURVE",
"417 641 LINE",
"504 61 LINE",
"505 59 OFFCURVE",
"506 47 OFFCURVE",
"506 45 CURVE",
"502 26 OFFCURVE",
"462 14 OFFCURVE",
"440 14 CURVE SMOOTH",
"428 14 LINE",
"426 0 LINE",
"606 0 LINE",
"608 14 LINE",
"594 14 LINE SMOOTH",
"570 14 OFFCURVE",
"540 29 OFFCURVE",
"537 48 CURVE SMOOTH",
"440 707 LINE",
"414 690 LINE",
"56 48 LINE SMOOTH",
"45 29 OFFCURVE",
"8 16 OFFCURVE",
"-17 14 CURVE",
"-31 14 LINE",
"-33 0 LINE"
);
},
{
closed = 1;
nodes = (
"484 232 LINE",
"489 256 LINE",
"186 256 LINE SMOOTH",
"186 256 OFFCURVE",
"181 232 OFFCURVE",
"181 232 CURVE"
);
},
{
closed = 1;
nodes = (
"396 888 LINE",
"313 976 LINE SMOOTH",
"307 982 OFFCURVE",
"300 988 OFFCURVE",
"290 988 CURVE SMOOTH",
"282 988 OFFCURVE",
"275 983 OFFCURVE",
"273 974 CURVE",
"271 967 OFFCURVE",
"274 958 OFFCURVE",
"283 951 CURVE SMOOTH",
"387 878 LINE"
);
},
{
closed = 1;
nodes = (
"451 862 LINE SMOOTH",
"455 865 OFFCURVE",
"460 867 OFFCURVE",
"463 867 CURVE SMOOTH",
"466 867 OFFCURVE",
"468 865 OFFCURVE",
"472 862 CURVE",
"541 787 LINE",
"558 803 LINE",
"481 899 LINE",
"458 899 LINE",
"341 803 LINE",
"351 787 LINE"
);
}
);
width = 650;
}
);
leftKerningGroup = A;
note = Acircumflexgrave;
rightKerningGroup = A;
unicode = 1EA6;
},
{
glyphname = Acircumflexhookabove;
lastChange = "2015-10-22 12:03:09 +0000";
layers = (
{
layerId = "C8730BEE-A5E2-4294-A2BB-9D9AC44EE1E3";
name = "Light Italic";
paths = (
{
closed = 1;
nodes = (
"147 0 LINE",
"149 14 LINE",
"135 14 LINE SMOOTH",
"113 14 OFFCURVE",
"81 26 OFFCURVE",
"84 45 CURVE",
"84 47 OFFCURVE",
"91 59 OFFCURVE",
"92 61 CURVE",
"417 641 LINE",
"504 61 LINE",
"505 59 OFFCURVE",
"506 47 OFFCURVE",
"506 45 CURVE",
"502 26 OFFCURVE",
"462 14 OFFCURVE",
"440 14 CURVE SMOOTH",
"428 14 LINE",
"426 0 LINE",
"606 0 LINE",
"608 14 LINE",
"594 14 LINE SMOOTH",
"570 14 OFFCURVE",
"540 29 OFFCURVE",
"537 48 CURVE SMOOTH",
"440 707 LINE",
"414 690 LINE",
"56 48 LINE SMOOTH",
"45 29 OFFCURVE",
"8 16 OFFCURVE",
"-17 14 CURVE",
"-31 14 LINE",
"-33 0 LINE"
);
},
{
closed = 1;
nodes = (
"484 232 LINE",
"489 256 LINE",
"186 256 LINE SMOOTH",
"186 256 OFFCURVE",
"181 232 OFFCURVE",
"181 232 CURVE"
);
},
{
closed = 1;
nodes = (
"451 862 LINE SMOOTH",
"455 865 OFFCURVE",
"460 867 OFFCURVE",
"463 867 CURVE SMOOTH",
"466 867 OFFCURVE",
"468 865 OFFCURVE",
"472 862 CURVE",
"541 787 LINE",
"558 803 LINE",
"481 899 LINE",
"458 899 LINE",
"341 803 LINE",
"351 787 LINE"
);
},
{
closed = 1;
nodes = (
"599 873 LINE",
"585 877 OFFCURVE",
"575 883 OFFCURVE",
"579 899 CURVE",
"584 924 OFFCURVE",
"654 933 OFFCURVE",
"661 971 CURVE SMOOTH",
"668 1003 OFFCURVE",
"638 1017 OFFCURVE",
"604 1017 CURVE SMOOTH",
"578 1017 OFFCURVE",
"539 1008 OFFCURVE",
"533 982 CURVE",
"531 971 OFFCURVE",
"537 964 OFFCURVE",
"545 964 CURVE SMOOTH",
"563 964 OFFCURVE",
"563 973 OFFCURVE",
"570 982 CURVE",
"578 990 OFFCURVE",
"585 997 OFFCURVE",
"602 997 CURVE SMOOTH",
"617 997 OFFCURVE",
"629 987 OFFCURVE",
"627 974 CURVE",
"619 940 OFFCURVE",
"556 933 OFFCURVE",
"548 898 CURVE SMOOTH",
"544 878 OFFCURVE",
"555 860 OFFCURVE",
"589 860 CURVE"
);
}
);
width = 650;
}
);
leftKerningGroup = A;
note = Acircumflexhookabove;
rightKerningGroup = A;
unicode = 1EA8;
},
{
glyphname = Acircumflextilde;
lastChange = "2015-10-22 12:03:09 +0000";
layers = (
{
layerId = "C8730BEE-A5E2-4294-A2BB-9D9AC44EE1E3";
name = "Light Italic";
paths = (
{
closed = 1;
nodes = (
"147 0 LINE",
"149 14 LINE",
"135 14 LINE SMOOTH",
"113 14 OFFCURVE",
"81 26 OFFCURVE",
"84 45 CURVE",
"84 47 OFFCURVE",
"91 59 OFFCURVE",
"92 61 CURVE",
"417 641 LINE",
"504 61 LINE",
"505 59 OFFCURVE",
"506 47 OFFCURVE",
"506 45 CURVE",
"502 26 OFFCURVE",
"462 14 OFFCURVE",
"440 14 CURVE SMOOTH",
"428 14 LINE",
"426 0 LINE",
"606 0 LINE",
"608 14 LINE",
"594 14 LINE SMOOTH",
"570 14 OFFCURVE",
"540 29 OFFCURVE",
"537 48 CURVE SMOOTH",
"440 707 LINE",
"414 690 LINE",
"56 48 LINE SMOOTH",
"45 29 OFFCURVE",
"8 16 OFFCURVE",
"-17 14 CURVE",
"-31 14 LINE",
"-33 0 LINE"
);
},
{
closed = 1;
nodes = (
"484 232 LINE",
"489 256 LINE",
"186 256 LINE SMOOTH",
"186 256 OFFCURVE",
"181 232 OFFCURVE",
"181 232 CURVE"
);
},
{
closed = 1;
nodes = (
"451 862 LINE SMOOTH",
"455 865 OFFCURVE",
"460 867 OFFCURVE",
"463 867 CURVE SMOOTH",
"466 867 OFFCURVE",
"468 865 OFFCURVE",
"472 862 CURVE",
"541 787 LINE",
"558 803 LINE",
"481 899 LINE",
"458 899 LINE",
"341 803 LINE",
"351 787 LINE"
);
},
{
closed = 1;
nodes = (
"378 970 OFFCURVE",
"401 994 OFFCURVE",
"429 994 CURVE SMOOTH",
"468 994 OFFCURVE",
"498 934 OFFCURVE",
"540 934 CURVE SMOOTH",
"578 934 OFFCURVE",
"609 961 OFFCURVE",
"629 1017 CURVE",
"615 1024 LINE",
"598 984 OFFCURVE",
"577 958 OFFCURVE",
"547 958 CURVE SMOOTH",
"510 958 OFFCURVE",
"477 1017 OFFCURVE",
"436 1017 CURVE SMOOTH",
"401 1017 OFFCURVE",
"367 995 OFFCURVE",
"348 940 CURVE",
"361 932 LINE"
);
}
);
width = 650;
}
);
leftKerningGroup = A;
note = Acircumflextilde;
rightKerningGroup = A;
unicode = 1EAA;
},
{
glyphname = Adieresis;
lastChange = "2015-10-22 12:03:08 +0000";
layers = (
{
layerId = "C8730BEE-A5E2-4294-A2BB-9D9AC44EE1E3";
name = "Light Italic";
paths = (
{
closed = 1;
nodes = (
"147 0 LINE",
"149 14 LINE",
"135 14 LINE SMOOTH",
"113 14 OFFCURVE",
"81 26 OFFCURVE",
"84 45 CURVE",
"84 47 OFFCURVE",
"91 59 OFFCURVE",
"92 61 CURVE",
"417 641 LINE",
"504 61 LINE",
"505 59 OFFCURVE",
"506 47 OFFCURVE",
"506 45 CURVE",
"502 26 OFFCURVE",
"462 14 OFFCURVE",
"440 14 CURVE SMOOTH",
"428 14 LINE",
"426 0 LINE",
"606 0 LINE",
"608 14 LINE",
"594 14 LINE SMOOTH",
"570 14 OFFCURVE",
"540 29 OFFCURVE",
"537 48 CURVE SMOOTH",
"440 707 LINE",
"414 690 LINE",
"56 48 LINE SMOOTH",
"45 29 OFFCURVE",
"8 16 OFFCURVE",
"-17 14 CURVE",
"-31 14 LINE",
"-33 0 LINE"
);
},
{
closed = 1;
nodes = (
"484 232 LINE",
"489 256 LINE",
"186 256 LINE SMOOTH",
"186 256 OFFCURVE",
"181 232 OFFCURVE",
"181 232 CURVE"
);
},
{
closed = 1;
nodes = (
"367 785 OFFCURVE",
"381 796 OFFCURVE",
"385 815 CURVE SMOOTH",
"389 834 OFFCURVE",
"379 845 OFFCURVE",
"363 845 CURVE SMOOTH",
"347 845 OFFCURVE",
"333 834 OFFCURVE",
"329 815 CURVE",
"326 796 OFFCURVE",
"334 785 OFFCURVE",
"350 785 CURVE SMOOTH"
);
},
{
closed = 1;
nodes = (
"555 785 OFFCURVE",
"569 796 OFFCURVE",
"573 815 CURVE SMOOTH",
"577 834 OFFCURVE",
"567 845 OFFCURVE",
"551 845 CURVE SMOOTH",
"535 845 OFFCURVE",
"521 834 OFFCURVE",
"517 815 CURVE SMOOTH",
"514 796 OFFCURVE",
"522 785 OFFCURVE",
"539 785 CURVE SMOOTH"
);
}
);
width = 650;
}
);
leftKerningGroup = A;
note = Adieresis;
rightKerningGroup = A;
unicode = 00C4;
},
{
glyphname = Adotbelow;
lastChange = "2015-10-22 12:03:09 +0000";
layers = (
{
layerId = "C8730BEE-A5E2-4294-A2BB-9D9AC44EE1E3";
name = "Light Italic";
paths = (
{
closed = 1;
nodes = (
"147 0 LINE",
"149 14 LINE",
"135 14 LINE SMOOTH",
"113 14 OFFCURVE",
"81 26 OFFCURVE",
"84 45 CURVE",
"84 47 OFFCURVE",
"91 59 OFFCURVE",
"92 61 CURVE",
"417 641 LINE",
"504 61 LINE",
"505 59 OFFCURVE",
"506 47 OFFCURVE",
"506 45 CURVE",
"502 26 OFFCURVE",
"462 14 OFFCURVE",
"440 14 CURVE SMOOTH",
"428 14 LINE",
"426 0 LINE",
"606 0 LINE",
"608 14 LINE",
"594 14 LINE SMOOTH",
"570 14 OFFCURVE",
"540 29 OFFCURVE",
"537 48 CURVE SMOOTH",
"440 707 LINE",
"414 690 LINE",
"56 48 LINE SMOOTH",
"45 29 OFFCURVE",
"8 16 OFFCURVE",
"-17 14 CURVE",
"-31 14 LINE",
"-33 0 LINE"
);
},
{
closed = 1;
nodes = (
"277 -124 OFFCURVE",
"291 -113 OFFCURVE",
"296 -94 CURVE",
"300 -75 OFFCURVE",
"290 -64 OFFCURVE",
"274 -64 CURVE SMOOTH",
"257 -64 OFFCURVE",
"244 -75 OFFCURVE",
"240 -94 CURVE",
"235 -113 OFFCURVE",
"245 -124 OFFCURVE",
"261 -124 CURVE SMOOTH"
);
},
{
closed = 1;
nodes = (
"484 232 LINE",
"489 256 LINE",
"186 256 LINE SMOOTH",
"186 256 OFFCURVE",
"181 232 OFFCURVE",
"181 232 CURVE"
);
}
);
width = 650;
}
);
leftKerningGroup = A;
note = Adotbelow;
rightKerningGroup = A;
unicode = 1EA0;
},
{
glyphname = Agrave;
lastChange = "2015-10-22 12:03:09 +0000";
layers = (
{
layerId = "C8730BEE-A5E2-4294-A2BB-9D9AC44EE1E3";
name = "Light Italic";
paths = (
{
closed = 1;
nodes = (
"147 0 LINE",
"149 14 LINE",
"135 14 LINE SMOOTH",
"113 14 OFFCURVE",
"81 26 OFFCURVE",
"84 45 CURVE",
"84 47 OFFCURVE",
"91 59 OFFCURVE",
"92 61 CURVE",
"417 641 LINE",
"504 61 LINE",
"505 59 OFFCURVE",
"506 47 OFFCURVE",
"506 45 CURVE",
"502 26 OFFCURVE",
"462 14 OFFCURVE",
"440 14 CURVE SMOOTH",
"428 14 LINE",
"426 0 LINE",
"606 0 LINE",
"608 14 LINE",
"594 14 LINE SMOOTH",
"570 14 OFFCURVE",
"540 29 OFFCURVE",
"537 48 CURVE SMOOTH",
"440 707 LINE",
"414 690 LINE",
"56 48 LINE SMOOTH",
"45 29 OFFCURVE",
"8 16 OFFCURVE",
"-17 14 CURVE",
"-31 14 LINE",
"-33 0 LINE"
);
},
{
closed = 1;
nodes = (
"484 232 LINE",
"489 256 LINE",
"186 256 LINE SMOOTH",
"186 256 OFFCURVE",
"181 232 OFFCURVE",
"181 232 CURVE"
);
},
{
closed = 1;
nodes = (
"518 798 LINE",
"434 885 LINE",
"427 891 OFFCURVE",
"420 897 OFFCURVE",
"411 897 CURVE SMOOTH",
"404 897 OFFCURVE",
"396 892 OFFCURVE",
"395 883 CURVE",
"394 875 OFFCURVE",
"396 866 OFFCURVE",
"405 860 CURVE SMOOTH",
"510 788 LINE"
);
}
);
width = 650;
}
);
leftKerningGroup = A;
note = Agrave;
rightKerningGroup = A;
unicode = 00C0;
},
{
glyphname = Ahookabove;
lastChange = "2015-10-22 12:03:09 +0000";
layers = (
{
layerId = "C8730BEE-A5E2-4294-A2BB-9D9AC44EE1E3";
name = "Light Italic";
paths = (
{
closed = 1;
nodes = (
"147 0 LINE",
"149 14 LINE",
"135 14 LINE SMOOTH",
"113 14 OFFCURVE",
"81 26 OFFCURVE",
"84 45 CURVE",
"84 47 OFFCURVE",
"91 59 OFFCURVE",
"92 61 CURVE",
"417 641 LINE",
"504 61 LINE",
"505 59 OFFCURVE",
"506 47 OFFCURVE",
"506 45 CURVE",
"502 26 OFFCURVE",
"462 14 OFFCURVE",
"440 14 CURVE SMOOTH",
"428 14 LINE",
"426 0 LINE",
"606 0 LINE",
"608 14 LINE",
"594 14 LINE SMOOTH",
"570 14 OFFCURVE",
"540 29 OFFCURVE",
"537 48 CURVE SMOOTH",
"440 707 LINE",
"414 690 LINE",
"56 48 LINE SMOOTH",
"45 29 OFFCURVE",
"8 16 OFFCURVE",
"-17 14 CURVE",
"-31 14 LINE",
"-33 0 LINE"
);
},
{
closed = 1;
nodes = (
"484 232 LINE",
"489 256 LINE",
"186 256 LINE SMOOTH",
"186 256 OFFCURVE",
"181 232 OFFCURVE",
"181 232 CURVE"
);
},
{
closed = 1;
nodes = (
"482 794 LINE",
"467 799 OFFCURVE",
"458 802 OFFCURVE",
"462 821 CURVE SMOOTH",
"468 851 OFFCURVE",
"544 869 OFFCURVE",
"554 915 CURVE SMOOTH",
"562 951 OFFCURVE",
"535 966 OFFCURVE",
"497 966 CURVE SMOOTH",
"459 966 OFFCURVE",
"426 949 OFFCURVE",
"421 924 CURVE SMOOTH",
"419 910 OFFCURVE",
"422 905 OFFCURVE",
"431 905 CURVE SMOOTH",
"443 905 OFFCURVE",
"445 910 OFFCURVE",
"454 927 CURVE SMOOTH",
"462 942 OFFCURVE",
"480 947 OFFCURVE",
"495 947 CURVE SMOOTH",
"522 947 OFFCURVE",
"528 933 OFFCURVE",
"525 917 CURVE SMOOTH",
"516 876 OFFCURVE",
"442 863 OFFCURVE",
"433 821 CURVE SMOOTH",
"428 797 OFFCURVE",
"442 779 OFFCURVE",
"472 779 CURVE"
);
}
);
width = 650;
}
);
leftKerningGroup = A;
note = Ahookabove;
rightKerningGroup = A;
unicode = 1EA2;
},
{
glyphname = Amacron;
lastChange = "2015-10-22 12:03:08 +0000";
layers = (
{
layerId = "C8730BEE-A5E2-4294-A2BB-9D9AC44EE1E3";
name = "Light Italic";
paths = (
{
closed = 1;
nodes = (
"147 0 LINE",
"149 14 LINE",
"135 14 LINE SMOOTH",
"113 14 OFFCURVE",
"81 26 OFFCURVE",
"84 45 CURVE",
"84 47 OFFCURVE",
"91 59 OFFCURVE",
"92 61 CURVE",
"417 641 LINE",
"504 61 LINE",
"505 59 OFFCURVE",
"506 47 OFFCURVE",
"506 45 CURVE",
"502 26 OFFCURVE",
"462 14 OFFCURVE",
"440 14 CURVE SMOOTH",
"428 14 LINE",
"426 0 LINE",
"606 0 LINE",
"608 14 LINE",
"594 14 LINE SMOOTH",
"570 14 OFFCURVE",
"540 29 OFFCURVE",
"537 48 CURVE SMOOTH",
"440 707 LINE",
"414 690 LINE",
"56 48 LINE SMOOTH",
"45 29 OFFCURVE",
"8 16 OFFCURVE",
"-17 14 CURVE",
"-31 14 LINE",
"-33 0 LINE"
);
},
{
closed = 1;
nodes = (
"484 232 LINE",
"489 256 LINE",
"186 256 LINE SMOOTH",
"186 256 OFFCURVE",
"181 232 OFFCURVE",
"181 232 CURVE"
);
},
{
closed = 1;
nodes = (
"576 787 LINE",
"581 809 LINE",
"319 809 LINE",
"314 787 LINE"
);
}
);
width = 650;
}
);
leftKerningGroup = A;
note = Amacron;
rightKerningGroup = A;
unicode = 0100;
},
{
glyphname = Aogonek;
lastChange = "2015-10-22 12:03:09 +0000";
layers = (
{
layerId = "C8730BEE-A5E2-4294-A2BB-9D9AC44EE1E3";
name = "Light Italic";
paths = (
{
closed = 1;
nodes = (
"147 0 LINE",
"149 14 LINE",
"135 14 LINE SMOOTH",
"113 14 OFFCURVE",
"81 26 OFFCURVE",
"84 45 CURVE",
"84 47 OFFCURVE",
"91 59 OFFCURVE",
"92 61 CURVE",
"417 641 LINE",
"504 61 LINE",
"505 59 OFFCURVE",
"506 47 OFFCURVE",
"506 45 CURVE",
"502 26 OFFCURVE",
"462 14 OFFCURVE",
"440 14 CURVE SMOOTH",
"428 14 LINE",
"426 0 LINE",
"606 0 LINE",
"608 14 LINE",
"594 14 LINE SMOOTH",
"570 14 OFFCURVE",
"540 29 OFFCURVE",
"537 48 CURVE SMOOTH",
"440 707 LINE",
"414 690 LINE",
"56 48 LINE SMOOTH",
"45 29 OFFCURVE",
"8 16 OFFCURVE",
"-17 14 CURVE",
"-31 14 LINE",
"-33 0 LINE"
);
},
{
closed = 1;
nodes = (
"519 -166 OFFCURVE",
"533 -163 OFFCURVE",
"554 -157 CURVE",
"558 -141 LINE",
"540 -146 OFFCURVE",
"528 -148 OFFCURVE",
"516 -148 CURVE SMOOTH",
"486 -148 OFFCURVE",
"461 -135 OFFCURVE",
"468 -97 CURVE SMOOTH",
"476 -57 OFFCURVE",
"513 -20 OFFCURVE",
"556 0 CURVE",
"531 0 LINE",
"485 -20 OFFCURVE",
"451 -54 OFFCURVE",
"443 -98 CURVE SMOOTH",
"436 -128 OFFCURVE",
"445 -166 OFFCURVE",
"499 -166 CURVE SMOOTH"
);
},
{
closed = 1;
nodes = (
"484 232 LINE",
"489 256 LINE",
"186 256 LINE SMOOTH",
"186 256 OFFCURVE",
"181 232 OFFCURVE",
"181 232 CURVE"
);
}
);
width = 650;
}
);
leftKerningGroup = A;
note = Aogonek;
rightKerningGroup = A;
unicode = 0104;
},
{
glyphname = Aring;
lastChange = "2015-10-22 12:03:09 +0000";
layers = (
{
layerId = "C8730BEE-A5E2-4294-A2BB-9D9AC44EE1E3";
name = "Light Italic";
paths = (
{
closed = 1;
nodes = (
"147 0 LINE",
"149 14 LINE",
"135 14 LINE SMOOTH",
"113 14 OFFCURVE",
"81 26 OFFCURVE",
"84 45 CURVE",
"84 47 OFFCURVE",
"91 59 OFFCURVE",
"92 61 CURVE",
"417 641 LINE",
"504 61 LINE",
"505 59 OFFCURVE",
"506 47 OFFCURVE",
"506 45 CURVE",
"502 26 OFFCURVE",
"462 14 OFFCURVE",
"440 14 CURVE SMOOTH",
"428 14 LINE",
"426 0 LINE",
"606 0 LINE",
"608 14 LINE",
"594 14 LINE SMOOTH",
"570 14 OFFCURVE",
"540 29 OFFCURVE",
"537 48 CURVE SMOOTH",
"440 707 LINE",
"414 690 LINE",
"56 48 LINE SMOOTH",
"45 29 OFFCURVE",
"8 16 OFFCURVE",
"-17 14 CURVE",
"-31 14 LINE",
"-33 0 LINE"
);
},
{
closed = 1;
nodes = (
"484 232 LINE",
"489 256 LINE",
"186 256 LINE SMOOTH",
"186 256 OFFCURVE",
"181 232 OFFCURVE",
"181 232 CURVE"
);
},
{
closed = 1;
nodes = (
"483 764 OFFCURVE",
"520 794 OFFCURVE",
"530 838 CURVE SMOOTH",
"539 882 OFFCURVE",
"513 912 OFFCURVE",
"470 912 CURVE SMOOTH",
"428 912 OFFCURVE",
"391 882 OFFCURVE",
"382 838 CURVE SMOOTH",
"372 794 OFFCURVE",
"398 764 OFFCURVE",
"441 764 CURVE SMOOTH"
);
},
{
closed = 1;
nodes = (
"415 783 OFFCURVE",
"397 804 OFFCURVE",
"405 838 CURVE SMOOTH",
"412 872 OFFCURVE",
"437 893 OFFCURVE",
"467 893 CURVE SMOOTH",
"496 893 OFFCURVE",
"514 872 OFFCURVE",
"507 838 CURVE SMOOTH",
"499 804 OFFCURVE",
"474 783 OFFCURVE",
"444 783 CURVE SMOOTH"
);
}
);
width = 650;
}
);
leftKerningGroup = A;
note = Aring;
rightKerningGroup = A;
unicode = 00C5;
},
{
glyphname = Aringacute;
lastChange = "2015-10-22 12:03:08 +0000";
layers = (
{
layerId = "C8730BEE-A5E2-4294-A2BB-9D9AC44EE1E3";
name = "Light Italic";
paths = (
{
closed = 1;
nodes = (
"147 0 LINE",
"149 14 LINE",
"135 14 LINE SMOOTH",
"113 14 OFFCURVE",
"81 26 OFFCURVE",
"84 45 CURVE",
"84 47 OFFCURVE",
"91 59 OFFCURVE",
"92 61 CURVE",
"417 641 LINE",
"504 61 LINE",
"505 59 OFFCURVE",
"506 47 OFFCURVE",
"506 45 CURVE",
"502 26 OFFCURVE",
"462 14 OFFCURVE",
"440 14 CURVE SMOOTH",
"428 14 LINE",
"426 0 LINE",
"606 0 LINE",
"608 14 LINE",
"594 14 LINE SMOOTH",
"570 14 OFFCURVE",
"540 29 OFFCURVE",
"537 48 CURVE SMOOTH",
"440 707 LINE",
"414 690 LINE",
"56 48 LINE SMOOTH",
"45 29 OFFCURVE",
"8 16 OFFCURVE",
"-17 14 CURVE",
"-31 14 LINE",
"-33 0 LINE"
);
},
{
closed = 1;
nodes = (
"484 232 LINE",
"489 256 LINE",
"186 256 LINE SMOOTH",
"186 256 OFFCURVE",
"181 232 OFFCURVE",
"181 232 CURVE"
);
},
{
closed = 1;
nodes = (
"483 764 OFFCURVE",
"520 794 OFFCURVE",
"530 838 CURVE SMOOTH",
"539 882 OFFCURVE",
"513 912 OFFCURVE",
"470 912 CURVE SMOOTH",
"428 912 OFFCURVE",
"391 882 OFFCURVE",
"382 838 CURVE SMOOTH",
"372 794 OFFCURVE",
"398 764 OFFCURVE",
"441 764 CURVE SMOOTH"
);
},
{
closed = 1;
nodes = (
"415 783 OFFCURVE",
"397 804 OFFCURVE",
"405 838 CURVE SMOOTH",
"412 872 OFFCURVE",
"437 893 OFFCURVE",
"467 893 CURVE SMOOTH",
"496 893 OFFCURVE",
"514 872 OFFCURVE",
"507 838 CURVE SMOOTH",
"499 804 OFFCURVE",
"474 783 OFFCURVE",
"444 783 CURVE SMOOTH"
);
},
{
closed = 1;
nodes = (
"553 1036 LINE",
"565 1042 OFFCURVE",
"572 1051 OFFCURVE",
"573 1059 CURVE",
"575 1068 OFFCURVE",
"569 1073 OFFCURVE",
"563 1073 CURVE SMOOTH",
"553 1073 OFFCURVE",
"544 1067 OFFCURVE",
"536 1061 CURVE SMOOTH",
"415 974 LINE",
"420 964 LINE"
);
}
);
width = 650;
}
);
leftKerningGroup = A;
note = Aringacute;
rightKerningGroup = A;
unicode = 01FA;
},
{
glyphname = Atilde;
lastChange = "2015-10-22 12:03:09 +0000";
layers = (
{
layerId = "C8730BEE-A5E2-4294-A2BB-9D9AC44EE1E3";
name = "Light Italic";
paths = (
{
closed = 1;
nodes = (
"147 0 LINE",
"149 14 LINE",
"135 14 LINE SMOOTH",
"113 14 OFFCURVE",
"81 26 OFFCURVE",
"84 45 CURVE",
"84 47 OFFCURVE",
"91 59 OFFCURVE",
"92 61 CURVE",
"417 641 LINE",
"504 61 LINE",
"505 59 OFFCURVE",
"506 47 OFFCURVE",
"506 45 CURVE",
"502 26 OFFCURVE",
"462 14 OFFCURVE",
"440 14 CURVE SMOOTH",
"428 14 LINE",
"426 0 LINE",
"606 0 LINE",
"608 14 LINE",
"594 14 LINE SMOOTH",
"570 14 OFFCURVE",
"540 29 OFFCURVE",
"537 48 CURVE SMOOTH",
"440 707 LINE",
"414 690 LINE",
"56 48 LINE SMOOTH",
"45 29 OFFCURVE",
"8 16 OFFCURVE",
"-17 14 CURVE",
"-31 14 LINE",
"-33 0 LINE"
);
},
{
closed = 1;
nodes = (
"484 232 LINE",
"489 256 LINE",
"186 256 LINE SMOOTH",
"186 256 OFFCURVE",
"181 232 OFFCURVE",
"181 232 CURVE"
);
},
{
closed = 1;
nodes = (
"345 824 OFFCURVE",
"368 848 OFFCURVE",
"396 848 CURVE SMOOTH",
"435 848 OFFCURVE",
"465 788 OFFCURVE",
"506 788 CURVE SMOOTH",
"545 788 OFFCURVE",
"576 815 OFFCURVE",
"596 871 CURVE",
"583 878 LINE",
"565 838 OFFCURVE",
"544 812 OFFCURVE",
"514 812 CURVE SMOOTH",
"476 812 OFFCURVE",
"444 871 OFFCURVE",
"402 871 CURVE SMOOTH",
"368 871 OFFCURVE",
"333 849 OFFCURVE",
"315 794 CURVE",
"327 786 LINE"
);
}
);
width = 650;
}
);
leftKerningGroup = A;
note = Atilde;
rightKerningGroup = A;
unicode = 00C3;
},
{
glyphname = AE;
lastChange = "2015-10-22 12:03:09 +0000";
layers = (
{
layerId = "C8730BEE-A5E2-4294-A2BB-9D9AC44EE1E3";
name = "Light Italic";
paths = (
{
closed = 1;
nodes = (
"149 0 LINE",
"151 14 LINE",
"137 14 LINE SMOOTH",
"117 14 OFFCURVE",
"82 27 OFFCURVE",
"84 41 CURVE",
"84 42 OFFCURVE",
"85 43 OFFCURVE",
"86 45 CURVE",
"233 232 LINE",
"495 232 LINE",
"457 47 LINE SMOOTH",
"452 23 OFFCURVE",
"424 14 OFFCURVE",
"398 14 CURVE SMOOTH",
"382 14 LINE",
"380 0 LINE",
"800 0 LINE",
"847 166 LINE",
"834 166 LINE",
"823 123 OFFCURVE",
"786 24 OFFCURVE",
"731 24 CURVE SMOOTH",
"484 24 LINE",
"552 361 LINE",
"732 361 LINE SMOOTH",
"774 361 OFFCURVE",
"767 312 OFFCURVE",
"759 258 CURVE",
"773 258 LINE",
"820 488 LINE",
"806 488 LINE",
"792 434 OFFCURVE",
"779 385 OFFCURVE",
"736 385 CURVE SMOOTH",
"557 385 LINE",
"616 676 LINE",
"858 676 LINE SMOOTH",
"916 676 OFFCURVE",
"905 589 OFFCURVE",
"899 546 CURVE",
"911 546 LINE",
"942 700 LINE",
"515 700 LINE",
"512 686 LINE",
"540 686 LINE SMOOTH",
"548 686 OFFCURVE",
"554 683 OFFCURVE",
"552 676 CURVE",
"552 673 OFFCURVE",
"549 668 OFFCURVE",
"545 663 CURVE SMOOTH",
"58 48 LINE SMOOTH",
"44 31 OFFCURVE",
"10 16 OFFCURVE",
"-15 14 CURVE",
"-29 14 LINE",
"-31 0 LINE"
);
},
{
closed = 1;
nodes = (
"586 673 LINE",
"500 256 LINE",
"252 256 LINE"
);
}
);
width = 890;
}
);
leftKerningGroup = A;
note = AE;
rightKerningGroup = E;
unicode = 00C6;
},
{
glyphname = AEacute;
lastChange = "2015-10-22 12:03:08 +0000";
layers = (
{
layerId = "C8730BEE-A5E2-4294-A2BB-9D9AC44EE1E3";
name = "Light Italic";
paths = (
{
closed = 1;
nodes = (
"149 0 LINE",
"151 14 LINE",
"137 14 LINE SMOOTH",
"117 14 OFFCURVE",
"82 27 OFFCURVE",
"84 41 CURVE",
"84 42 OFFCURVE",
"85 43 OFFCURVE",
"86 45 CURVE",
"233 232 LINE",
"495 232 LINE",
"457 47 LINE SMOOTH",
"452 23 OFFCURVE",
"424 14 OFFCURVE",
"398 14 CURVE SMOOTH",
"382 14 LINE",
"380 0 LINE",
"800 0 LINE",
"847 166 LINE",
"834 166 LINE",
"823 123 OFFCURVE",
"786 24 OFFCURVE",
"731 24 CURVE SMOOTH",
"484 24 LINE",
"552 361 LINE",
"732 361 LINE SMOOTH",
"774 361 OFFCURVE",
"767 312 OFFCURVE",
"759 258 CURVE",
"773 258 LINE",
"820 488 LINE",
"806 488 LINE",
"792 434 OFFCURVE",
"779 385 OFFCURVE",
"736 385 CURVE SMOOTH",
"557 385 LINE",
"616 676 LINE",
"858 676 LINE SMOOTH",
"916 676 OFFCURVE",
"905 589 OFFCURVE",
"899 546 CURVE",
"911 546 LINE",
"942 700 LINE",
"515 700 LINE",
"512 686 LINE",
"540 686 LINE SMOOTH",
"548 686 OFFCURVE",
"554 683 OFFCURVE",
"552 676 CURVE",
"552 673 OFFCURVE",
"549 668 OFFCURVE",
"545 663 CURVE SMOOTH",
"58 48 LINE SMOOTH",
"44 31 OFFCURVE",
"10 16 OFFCURVE",
"-15 14 CURVE",
"-29 14 LINE",
"-31 0 LINE"
);
},
{
closed = 1;
nodes = (
"586 673 LINE",
"500 256 LINE",
"252 256 LINE"
);
},
{
closed = 1;
nodes = (
"867 860 LINE",
"879 866 OFFCURVE",
"886 875 OFFCURVE",
"887 883 CURVE",
"889 892 OFFCURVE",
"883 897 OFFCURVE",
"876 897 CURVE SMOOTH",
"867 897 OFFCURVE",
"858 891 OFFCURVE",
"850 885 CURVE SMOOTH",
"729 798 LINE",
"733 788 LINE"
);
}
);
width = 890;
}
);
leftKerningGroup = A;
note = AEacute;
rightKerningGroup = E;
unicode = 01FC;
},
{
glyphname = B;
lastChange = "2015-10-22 12:03:09 +0000";
layers = (
{
layerId = "C8730BEE-A5E2-4294-A2BB-9D9AC44EE1E3";
name = "Light Italic";
paths = (
{
closed = 1;
nodes = (
"263 0 LINE SMOOTH",
"382 0 OFFCURVE",
"472 65 OFFCURVE",
"497 186 CURVE SMOOTH",
"513 262 OFFCURVE",
"505 348 OFFCURVE",
"376 367 CURVE",
"376 371 LINE",
"456 393 OFFCURVE",
"512 459 OFFCURVE",
"527 534 CURVE SMOOTH",
"549 643 OFFCURVE",
"488 700 OFFCURVE",
"380 700 CURVE SMOOTH",
"126 700 LINE",
"123 686 LINE",
"149 686 LINE SMOOTH",
"186 686 OFFCURVE",
"205 677 OFFCURVE",
"201 653 CURVE SMOOTH",
"77 47 LINE SMOOTH",
"72 23 OFFCURVE",
"49 14 OFFCURVE",
"12 14 CURVE SMOOTH",
"-14 14 LINE",
"-16 0 LINE"
);
},
{
closed = 1;
nodes = (
"171 354 LINE",
"307 354 LINE SMOOTH",
"444 354 OFFCURVE",
"492 294 OFFCURVE",
"470 186 CURVE SMOOTH",
"449 83 OFFCURVE",
"374 24 OFFCURVE",
"237 24 CURVE SMOOTH",
"104 24 LINE"
);
},
{
closed = 1;
nodes = (
"236 676 LINE",
"348 676 LINE SMOOTH",
"468 676 OFFCURVE",
"519 635 OFFCURVE",
"499 536 CURVE SMOOTH",
"481 444 OFFCURVE",
"400 378 OFFCURVE",
"302 378 CURVE SMOOTH",
"176 378 LINE"
);
}
);
width = 531;
}
);
note = B;
unicode = 0042;
},
{
glyphname = C;
lastChange = "2015-10-22 12:03:07 +0000";
layers = (
{
layerId = "C8730BEE-A5E2-4294-A2BB-9D9AC44EE1E3";
name = "Light Italic";
paths = (
{
closed = 1;
nodes = (
"414 -10 OFFCURVE",
"525 50 OFFCURVE",
"572 169 CURVE",
"551 169 LINE",
"503 61 OFFCURVE",
"391 14 OFFCURVE",
"310 14 CURVE SMOOTH",
"121 14 OFFCURVE",
"71 156 OFFCURVE",
"110 350 CURVE SMOOTH",
"151 546 OFFCURVE",
"268 686 OFFCURVE",
"453 686 CURVE SMOOTH",
"565 686 OFFCURVE",
"631 622 OFFCURVE",
"620 531 CURVE",
"633 531 LINE",
"668 705 LINE",
"649 705 LINE",
"640 663 LINE SMOOTH",
"637 649 OFFCURVE",
"633 644 OFFCURVE",
"628 644 CURVE SMOOTH",
"625 644 OFFCURVE",
"623 647 OFFCURVE",
"620 649 CURVE",
"601 668 OFFCURVE",
"548 710 OFFCURVE",
"458 710 CURVE SMOOTH",
"273 710 OFFCURVE",
"128 583 OFFCURVE",
"81 350 CURVE SMOOTH",
"33 117 OFFCURVE",
"115 -10 OFFCURVE",
"297 -10 CURVE SMOOTH"
);
}
);
width = 606;
}
);
leftKerningGroup = C;
note = C;
rightKerningGroup = C;
unicode = 0043;
},
{
glyphname = Cacute;
lastChange = "2015-10-22 12:03:08 +0000";
layers = (
{
layerId = "C8730BEE-A5E2-4294-A2BB-9D9AC44EE1E3";
name = "Light Italic";
paths = (
{
closed = 1;
nodes = (
"414 -10 OFFCURVE",
"525 50 OFFCURVE",
"572 169 CURVE",
"551 169 LINE",
"503 61 OFFCURVE",
"391 14 OFFCURVE",
"310 14 CURVE SMOOTH",
"121 14 OFFCURVE",
"71 156 OFFCURVE",
"110 350 CURVE SMOOTH",
"151 546 OFFCURVE",
"268 686 OFFCURVE",
"453 686 CURVE SMOOTH",
"565 686 OFFCURVE",
"631 622 OFFCURVE",
"620 531 CURVE",
"633 531 LINE",
"668 705 LINE",
"649 705 LINE",
"640 663 LINE SMOOTH",
"637 649 OFFCURVE",
"633 644 OFFCURVE",
"628 644 CURVE SMOOTH",
"625 644 OFFCURVE",
"623 647 OFFCURVE",
"620 649 CURVE",
"601 668 OFFCURVE",
"548 710 OFFCURVE",
"458 710 CURVE SMOOTH",
"273 710 OFFCURVE",
"128 583 OFFCURVE",
"81 350 CURVE SMOOTH",
"33 117 OFFCURVE",
"115 -10 OFFCURVE",
"297 -10 CURVE SMOOTH"
);
},
{
closed = 1;
nodes = (
"524 860 LINE",
"537 866 OFFCURVE",
"543 875 OFFCURVE",
"544 883 CURVE",
"546 892 OFFCURVE",
"540 897 OFFCURVE",
"534 897 CURVE SMOOTH",
"524 897 OFFCURVE",
"516 891 OFFCURVE",
"507 885 CURVE SMOOTH",
"386 798 LINE",
"391 788 LINE"
);
}
);
width = 606;
}
);
leftKerningGroup = C;
note = Cacute;
rightKerningGroup = C;
unicode = 0106;
},
{
glyphname = Ccaron;
lastChange = "2015-10-22 12:03:09 +0000";
layers = (
{
layerId = "C8730BEE-A5E2-4294-A2BB-9D9AC44EE1E3";
name = "Light Italic";
paths = (
{
closed = 1;
nodes = (
"414 -10 OFFCURVE",
"525 50 OFFCURVE",
"572 169 CURVE",
"551 169 LINE",
"503 61 OFFCURVE",
"391 14 OFFCURVE",
"310 14 CURVE SMOOTH",
"121 14 OFFCURVE",
"71 156 OFFCURVE",
"110 350 CURVE SMOOTH",
"151 546 OFFCURVE",
"268 686 OFFCURVE",
"453 686 CURVE SMOOTH",
"565 686 OFFCURVE",
"631 622 OFFCURVE",
"620 531 CURVE",
"633 531 LINE",
"668 705 LINE",
"649 705 LINE",
"640 663 LINE SMOOTH",
"637 649 OFFCURVE",
"633 644 OFFCURVE",
"628 644 CURVE SMOOTH",
"625 644 OFFCURVE",
"623 647 OFFCURVE",
"620 649 CURVE",
"601 668 OFFCURVE",
"548 710 OFFCURVE",
"458 710 CURVE SMOOTH",
"273 710 OFFCURVE",
"128 583 OFFCURVE",
"81 350 CURVE SMOOTH",
"33 117 OFFCURVE",
"115 -10 OFFCURVE",
"297 -10 CURVE SMOOTH"
);
},
{
closed = 1;
nodes = (
"465 787 LINE",
"581 883 LINE",
"571 899 LINE",
"471 824 LINE",
"467 821 OFFCURVE",
"463 819 OFFCURVE",
"460 819 CURVE SMOOTH",
"457 819 OFFCURVE",
"453 821 OFFCURVE",
"450 824 CURVE SMOOTH",
"381 899 LINE",
"364 883 LINE",
"442 787 LINE"
);
}
);
width = 606;
}
);
leftKerningGroup = C;
note = Ccaron;
rightKerningGroup = C;
unicode = 010C;
},
{
glyphname = Ccedilla;
lastChange = "2015-10-22 12:03:08 +0000";
layers = (
{
layerId = "C8730BEE-A5E2-4294-A2BB-9D9AC44EE1E3";
name = "Light Italic";
paths = (
{
closed = 1;
nodes = (
"414 -10 OFFCURVE",
"525 50 OFFCURVE",
"572 169 CURVE",
"551 169 LINE",
"503 61 OFFCURVE",
"391 14 OFFCURVE",
"310 14 CURVE SMOOTH",
"121 14 OFFCURVE",
"71 156 OFFCURVE",
"110 350 CURVE SMOOTH",
"151 546 OFFCURVE",
"268 686 OFFCURVE",
"453 686 CURVE SMOOTH",
"565 686 OFFCURVE",
"631 622 OFFCURVE",
"620 531 CURVE",
"633 531 LINE",
"668 705 LINE",
"649 705 LINE",
"640 663 LINE SMOOTH",
"637 649 OFFCURVE",
"633 644 OFFCURVE",
"628 644 CURVE SMOOTH",
"625 644 OFFCURVE",
"623 647 OFFCURVE",
"620 649 CURVE",
"601 668 OFFCURVE",
"548 710 OFFCURVE",
"458 710 CURVE SMOOTH",
"273 710 OFFCURVE",
"128 583 OFFCURVE",
"81 350 CURVE SMOOTH",
"33 117 OFFCURVE",
"115 -10 OFFCURVE",
"297 -10 CURVE SMOOTH"
);
},
{
closed = 1;
nodes = (
"280 -186 OFFCURVE",
"324 -167 OFFCURVE",
"333 -121 CURVE SMOOTH",
"340 -85 OFFCURVE",
"312 -67 OFFCURVE",
"278 -67 CURVE SMOOTH",
"271 -67 OFFCURVE",
"263 -67 OFFCURVE",
"256 -68 CURVE",
"300 0 LINE",
"273 0 LINE",
"221 -79 LINE",
"227 -89 LINE",
"235 -88 OFFCURVE",
"248 -87 OFFCURVE",
"261 -87 CURVE SMOOTH",
"286 -87 OFFCURVE",
"312 -93 OFFCURVE",
"306 -119 CURVE SMOOTH",
"300 -153 OFFCURVE",
"273 -166 OFFCURVE",
"235 -166 CURVE SMOOTH",
"221 -166 OFFCURVE",
"204 -165 OFFCURVE",
"189 -162 CURVE",
"177 -180 LINE",
"193 -184 OFFCURVE",
"212 -186 OFFCURVE",
"228 -186 CURVE SMOOTH"
);
}
);
width = 606;
}
);
leftKerningGroup = C;
note = Ccedilla;
rightKerningGroup = C;
unicode = 00C7;
},
{
glyphname = Ccircumflex;
lastChange = "2015-10-22 12:03:08 +0000";
layers = (
{
layerId = "C8730BEE-A5E2-4294-A2BB-9D9AC44EE1E3";
name = "Light Italic";
paths = (
{
closed = 1;
nodes = (
"414 -10 OFFCURVE",
"525 50 OFFCURVE",
"572 169 CURVE",
"551 169 LINE",
"503 61 OFFCURVE",
"391 14 OFFCURVE",
"310 14 CURVE SMOOTH",
"121 14 OFFCURVE",
"71 156 OFFCURVE",
"110 350 CURVE SMOOTH",
"151 546 OFFCURVE",
"268 686 OFFCURVE",
"453 686 CURVE SMOOTH",
"565 686 OFFCURVE",
"631 622 OFFCURVE",
"620 531 CURVE",
"633 531 LINE",
"668 705 LINE",
"649 705 LINE",
"640 663 LINE SMOOTH",
"637 649 OFFCURVE",
"633 644 OFFCURVE",
"628 644 CURVE SMOOTH",
"625 644 OFFCURVE",
"623 647 OFFCURVE",
"620 649 CURVE",
"601 668 OFFCURVE",
"548 710 OFFCURVE",
"458 710 CURVE SMOOTH",
"273 710 OFFCURVE",
"128 583 OFFCURVE",
"81 350 CURVE SMOOTH",
"33 117 OFFCURVE",
"115 -10 OFFCURVE",
"297 -10 CURVE SMOOTH"
);
},
{
closed = 1;
nodes = (
"457 862 LINE SMOOTH",
"461 865 OFFCURVE",
"466 867 OFFCURVE",
"468 867 CURVE SMOOTH",
"471 867 OFFCURVE",
"474 865 OFFCURVE",
"478 862 CURVE",
"547 787 LINE",
"564 803 LINE",
"487 899 LINE",
"464 899 LINE",
"347 803 LINE",
"357 787 LINE"
);
}
);
width = 606;
}
);
leftKerningGroup = C;
note = Ccircumflex;
rightKerningGroup = C;
unicode = 0108;
},
{
glyphname = Cdotaccent;
lastChange = "2015-10-22 12:03:08 +0000";
layers = (
{
layerId = "C8730BEE-A5E2-4294-A2BB-9D9AC44EE1E3";
name = "Light Italic";
paths = (
{
closed = 1;
nodes = (
"414 -10 OFFCURVE",
"525 50 OFFCURVE",
"572 169 CURVE",
"551 169 LINE",
"503 61 OFFCURVE",
"391 14 OFFCURVE",
"310 14 CURVE SMOOTH",
"121 14 OFFCURVE",
"71 156 OFFCURVE",
"110 350 CURVE SMOOTH",
"151 546 OFFCURVE",
"268 686 OFFCURVE",
"453 686 CURVE SMOOTH",
"565 686 OFFCURVE",
"631 622 OFFCURVE",
"620 531 CURVE",
"633 531 LINE",
"668 705 LINE",
"649 705 LINE",
"640 663 LINE SMOOTH",
"637 649 OFFCURVE",
"633 644 OFFCURVE",
"628 644 CURVE SMOOTH",
"625 644 OFFCURVE",
"623 647 OFFCURVE",
"620 649 CURVE",
"601 668 OFFCURVE",
"548 710 OFFCURVE",
"458 710 CURVE SMOOTH",
"273 710 OFFCURVE",
"128 583 OFFCURVE",
"81 350 CURVE SMOOTH",
"33 117 OFFCURVE",
"115 -10 OFFCURVE",
"297 -10 CURVE SMOOTH"
);
},
{
closed = 1;
nodes = (
"487 759 OFFCURVE",
"500 770 OFFCURVE",
"504 789 CURVE SMOOTH",
"508 808 OFFCURVE",
"499 819 OFFCURVE",
"483 819 CURVE SMOOTH",
"467 819 OFFCURVE",
"452 808 OFFCURVE",
"448 789 CURVE SMOOTH",
"444 770 OFFCURVE",
"454 759 OFFCURVE",
"470 759 CURVE SMOOTH"
);
}
);
width = 606;
}
);
leftKerningGroup = C;
note = Cdotaccent;
rightKerningGroup = C;
unicode = 010A;
},
{
glyphname = D;
lastChange = "2015-10-22 12:03:08 +0000";
layers = (
{
layerId = "C8730BEE-A5E2-4294-A2BB-9D9AC44EE1E3";
name = "Light Italic";
paths = (
{
closed = 1;
nodes = (
"254 0 LINE SMOOTH",
"432 0 OFFCURVE",
"552 127 OFFCURVE",
"598 350 CURVE SMOOTH",
"643 573 OFFCURVE",
"575 700 OFFCURVE",
"397 700 CURVE SMOOTH",
"126 700 LINE",
"123 686 LINE",
"149 686 LINE SMOOTH",
"186 686 OFFCURVE",
"205 677 OFFCURVE",
"201 653 CURVE SMOOTH",
"77 47 LINE SMOOTH",
"72 23 OFFCURVE",
"49 14 OFFCURVE",
"12 14 CURVE SMOOTH",
"-14 14 LINE",
"-16 0 LINE"
);
},
{
closed = 1;
nodes = (
"237 678 LINE",
"393 678 LINE SMOOTH",
"560 678 OFFCURVE",
"609 546 OFFCURVE",
"568 350 CURVE SMOOTH",
"528 154 OFFCURVE",
"425 22 OFFCURVE",
"256 22 CURVE SMOOTH",
"103 22 LINE"
);
}
);
width = 604;
}
);
note = D;
rightKerningGroup = D;
unicode = 0044;
},
{
glyphname = Eth;
lastChange = "2015-10-22 12:03:09 +0000";
layers = (
{
layerId = "C8730BEE-A5E2-4294-A2BB-9D9AC44EE1E3";
name = "Light Italic";
paths = (
{
closed = 1;
nodes = (
"254 0 LINE SMOOTH",
"432 0 OFFCURVE",
"552 127 OFFCURVE",
"598 350 CURVE SMOOTH",
"643 573 OFFCURVE",
"575 700 OFFCURVE",
"397 700 CURVE SMOOTH",
"126 700 LINE",
"123 686 LINE",
"149 686 LINE SMOOTH",
"186 686 OFFCURVE",
"205 677 OFFCURVE",
"201 653 CURVE SMOOTH",
"77 47 LINE SMOOTH",
"72 23 OFFCURVE",
"49 14 OFFCURVE",
"12 14 CURVE SMOOTH",
"-14 14 LINE",
"-16 0 LINE"
);
},
{
closed = 1;
nodes = (
"388 349 LINE",
"393 371 LINE",
"73 371 LINE",
"68 349 LINE"
);
},
{
closed = 1;
nodes = (
"237 678 LINE",
"393 678 LINE SMOOTH",
"560 678 OFFCURVE",
"609 546 OFFCURVE",
"568 350 CURVE SMOOTH",
"528 154 OFFCURVE",
"425 22 OFFCURVE",
"256 22 CURVE SMOOTH",
"103 22 LINE"
);
}
);
width = 604;
}
);
note = Eth;
rightKerningGroup = D;
unicode = 00D0;
},
{
glyphname = Dcaron;
lastChange = "2015-10-22 12:03:09 +0000";
layers = (
{
layerId = "C8730BEE-A5E2-4294-A2BB-9D9AC44EE1E3";
name = "Light Italic";
paths = (
{
closed = 1;
nodes = (
"254 0 LINE SMOOTH",
"432 0 OFFCURVE",
"552 127 OFFCURVE",
"598 350 CURVE SMOOTH",
"643 573 OFFCURVE",
"575 700 OFFCURVE",
"397 700 CURVE SMOOTH",
"126 700 LINE",
"123 686 LINE",
"149 686 LINE SMOOTH",
"186 686 OFFCURVE",
"205 677 OFFCURVE",
"201 653 CURVE SMOOTH",
"77 47 LINE SMOOTH",
"72 23 OFFCURVE",
"49 14 OFFCURVE",
"12 14 CURVE SMOOTH",
"-14 14 LINE",
"-16 0 LINE"
);
},
{
closed = 1;
nodes = (
"237 678 LINE",
"393 678 LINE SMOOTH",
"560 678 OFFCURVE",
"609 546 OFFCURVE",
"568 350 CURVE SMOOTH",
"528 154 OFFCURVE",
"425 22 OFFCURVE",
"256 22 CURVE SMOOTH",
"103 22 LINE"
);
},
{
closed = 1;
nodes = (
"440 815 LINE",
"556 911 LINE",
"546 927 LINE",
"446 852 LINE",
"442 849 OFFCURVE",
"438 847 OFFCURVE",
"435 847 CURVE SMOOTH",
"432 847 OFFCURVE",
"428 849 OFFCURVE",
"425 852 CURVE SMOOTH",
"356 927 LINE",
"339 911 LINE",
"417 815 LINE"
);
}
);
width = 604;
}
);
note = Dcaron;
rightKerningGroup = D;
unicode = 010E;
},
{
glyphname = Dcroat;
lastChange = "2015-10-22 12:03:08 +0000";
layers = (
{
layerId = "C8730BEE-A5E2-4294-A2BB-9D9AC44EE1E3";
name = "Light Italic";
paths = (
{
closed = 1;
nodes = (
"254 0 LINE SMOOTH",
"432 0 OFFCURVE",
"552 127 OFFCURVE",
"598 350 CURVE SMOOTH",
"643 573 OFFCURVE",
"575 700 OFFCURVE",
"397 700 CURVE SMOOTH",
"126 700 LINE",
"123 686 LINE",
"149 686 LINE SMOOTH",
"186 686 OFFCURVE",
"205 677 OFFCURVE",
"201 653 CURVE SMOOTH",
"77 47 LINE SMOOTH",
"72 23 OFFCURVE",
"49 14 OFFCURVE",
"12 14 CURVE SMOOTH",
"-14 14 LINE",
"-16 0 LINE"
);
},
{
closed = 1;
nodes = (
"388 349 LINE",
"393 371 LINE",
"73 371 LINE",
"68 349 LINE"
);
},
{
closed = 1;
nodes = (
"237 678 LINE",
"393 678 LINE SMOOTH",
"560 678 OFFCURVE",
"609 546 OFFCURVE",
"568 350 CURVE SMOOTH",
"528 154 OFFCURVE",
"425 22 OFFCURVE",
"256 22 CURVE SMOOTH",
"103 22 LINE"
);
}
);
width = 604;
}
);
note = Dcroat;
rightKerningGroup = D;
unicode = 0110;
},
{
glyphname = Ddotbelow;
lastChange = "2015-10-22 12:03:09 +0000";
layers = (
{
layerId = "C8730BEE-A5E2-4294-A2BB-9D9AC44EE1E3";
name = "Light Italic";
paths = (
{
closed = 1;
nodes = (
"254 0 LINE SMOOTH",
"432 0 OFFCURVE",
"552 127 OFFCURVE",
"598 350 CURVE SMOOTH",
"643 573 OFFCURVE",
"575 700 OFFCURVE",
"397 700 CURVE SMOOTH",
"126 700 LINE",
"123 686 LINE",
"149 686 LINE SMOOTH",
"186 686 OFFCURVE",
"205 677 OFFCURVE",
"201 653 CURVE SMOOTH",
"77 47 LINE SMOOTH",
"72 23 OFFCURVE",
"49 14 OFFCURVE",
"12 14 CURVE SMOOTH",
"-14 14 LINE",
"-16 0 LINE"
);
},
{
closed = 1;
nodes = (
"241 -124 OFFCURVE",
"254 -113 OFFCURVE",
"259 -94 CURVE",
"263 -75 OFFCURVE",
"253 -64 OFFCURVE",
"237 -64 CURVE SMOOTH",
"221 -64 OFFCURVE",
"207 -75 OFFCURVE",
"204 -94 CURVE",
"199 -113 OFFCURVE",
"208 -124 OFFCURVE",
"225 -124 CURVE SMOOTH"
);
},
{
closed = 1;
nodes = (
"237 678 LINE",
"393 678 LINE SMOOTH",
"560 678 OFFCURVE",
"609 546 OFFCURVE",
"568 350 CURVE SMOOTH",
"528 154 OFFCURVE",
"425 22 OFFCURVE",
"256 22 CURVE SMOOTH",
"103 22 LINE"
);
}
);
width = 604;
}
);
note = Ddotbelow;
rightKerningGroup = D;
unicode = 1E0C;
},
{
glyphname = Dlinebelow;
lastChange = "2015-10-22 12:03:09 +0000";
layers = (
{
layerId = "C8730BEE-A5E2-4294-A2BB-9D9AC44EE1E3";
name = "Light Italic";
paths = (
{
closed = 1;
nodes = (
"254 0 LINE SMOOTH",
"432 0 OFFCURVE",
"552 127 OFFCURVE",
"598 350 CURVE SMOOTH",
"643 573 OFFCURVE",
"575 700 OFFCURVE",
"397 700 CURVE SMOOTH",
"126 700 LINE",
"123 686 LINE",
"149 686 LINE SMOOTH",
"186 686 OFFCURVE",
"205 677 OFFCURVE",
"201 653 CURVE SMOOTH",
"77 47 LINE SMOOTH",
"72 23 OFFCURVE",
"49 14 OFFCURVE",
"12 14 CURVE SMOOTH",
"-14 14 LINE",
"-16 0 LINE"
);
},
{
closed = 1;
nodes = (
"359 -98 LINE",
"363 -76 LINE",
"101 -76 LINE",
"97 -98 LINE"
);
},
{
closed = 1;
nodes = (
"237 678 LINE",
"393 678 LINE SMOOTH",
"560 678 OFFCURVE",
"609 546 OFFCURVE",
"568 350 CURVE SMOOTH",
"528 154 OFFCURVE",
"425 22 OFFCURVE",
"256 22 CURVE SMOOTH",
"103 22 LINE"
);
}
);
width = 604;
}
);
note = Dlinebelow;
rightKerningGroup = D;
unicode = 1E0E;
},
{
glyphname = E;
lastChange = "2015-10-22 12:03:08 +0000";
layers = (
{
layerId = "C8730BEE-A5E2-4294-A2BB-9D9AC44EE1E3";
name = "Light Italic";
paths = (
{
closed = 1;
nodes = (
"445 0 LINE",
"492 166 LINE",
"480 166 LINE",
"468 123 OFFCURVE",
"432 24 OFFCURVE",
"376 24 CURVE SMOOTH",
"101 24 LINE",
"233 676 LINE",
"504 676 LINE SMOOTH",
"562 676 OFFCURVE",
"551 589 OFFCURVE",
"544 546 CURVE",
"557 546 LINE",
"588 700 LINE",
"123 700 LINE",
"120 686 LINE",
"146 686 LINE SMOOTH",
"183 686 OFFCURVE",
"203 677 OFFCURVE",
"198 653 CURVE SMOOTH",
"74 47 LINE SMOOTH",
"69 23 OFFCURVE",
"46 14 OFFCURVE",
"9 14 CURVE SMOOTH",
"-17 14 LINE",
"-19 0 LINE"
);
},
{
closed = 1;
nodes = (
"415 258 LINE",
"462 488 LINE",
"448 488 LINE",
"434 434 OFFCURVE",
"420 385 OFFCURVE",
"378 385 CURVE SMOOTH",
"162 385 LINE",
"157 361 LINE",
"373 361 LINE SMOOTH",
"416 361 OFFCURVE",
"409 312 OFFCURVE",
"401 258 CURVE"
);
}
);
width = 536;
}
);
note = E;
unicode = 0045;
},
{
glyphname = Eacute;
lastChange = "2015-10-22 12:03:08 +0000";
layers = (
{
layerId = "C8730BEE-A5E2-4294-A2BB-9D9AC44EE1E3";
name = "Light Italic";
paths = (
{
closed = 1;
nodes = (
"445 0 LINE",
"492 166 LINE",
"480 166 LINE",
"468 123 OFFCURVE",
"432 24 OFFCURVE",
"376 24 CURVE SMOOTH",
"101 24 LINE",
"233 676 LINE",
"504 676 LINE SMOOTH",
"562 676 OFFCURVE",
"551 589 OFFCURVE",
"544 546 CURVE",
"557 546 LINE",
"588 700 LINE",
"123 700 LINE",
"120 686 LINE",
"146 686 LINE SMOOTH",
"183 686 OFFCURVE",
"203 677 OFFCURVE",
"198 653 CURVE SMOOTH",
"74 47 LINE SMOOTH",
"69 23 OFFCURVE",
"46 14 OFFCURVE",
"9 14 CURVE SMOOTH",
"-17 14 LINE",
"-19 0 LINE"
);
},
{
closed = 1;
nodes = (
"415 258 LINE",
"462 488 LINE",
"448 488 LINE",
"434 434 OFFCURVE",
"420 385 OFFCURVE",
"378 385 CURVE SMOOTH",
"162 385 LINE",
"157 361 LINE",
"373 361 LINE SMOOTH",
"416 361 OFFCURVE",
"409 312 OFFCURVE",
"401 258 CURVE"
);
},
{
closed = 1;
nodes = (
"475 860 LINE",
"488 866 OFFCURVE",
"494 875 OFFCURVE",
"495 883 CURVE",
"497 892 OFFCURVE",
"492 897 OFFCURVE",
"485 897 CURVE SMOOTH",
"475 897 OFFCURVE",
"467 891 OFFCURVE",
"458 885 CURVE SMOOTH",
"337 798 LINE",
"342 788 LINE"
);
}
);
width = 536;
}
);
note = Eacute;
unicode = 00C9;
},
{
glyphname = Ebreve;
lastChange = "2015-10-22 12:03:08 +0000";
layers = (
{
layerId = "C8730BEE-A5E2-4294-A2BB-9D9AC44EE1E3";
name = "Light Italic";
paths = (
{
closed = 1;
nodes = (
"445 0 LINE",
"492 166 LINE",
"480 166 LINE",
"468 123 OFFCURVE",
"432 24 OFFCURVE",
"376 24 CURVE SMOOTH",
"101 24 LINE",
"233 676 LINE",
"504 676 LINE SMOOTH",
"562 676 OFFCURVE",
"551 589 OFFCURVE",
"544 546 CURVE",
"557 546 LINE",
"588 700 LINE",
"123 700 LINE",
"120 686 LINE",
"146 686 LINE SMOOTH",
"183 686 OFFCURVE",
"203 677 OFFCURVE",
"198 653 CURVE SMOOTH",
"74 47 LINE SMOOTH",
"69 23 OFFCURVE",
"46 14 OFFCURVE",
"9 14 CURVE SMOOTH",
"-17 14 LINE",
"-19 0 LINE"
);
},
{
closed = 1;
nodes = (
"415 258 LINE",
"462 488 LINE",
"448 488 LINE",
"434 434 OFFCURVE",
"420 385 OFFCURVE",
"378 385 CURVE SMOOTH",
"162 385 LINE",
"157 361 LINE",
"373 361 LINE SMOOTH",
"416 361 OFFCURVE",
"409 312 OFFCURVE",
"401 258 CURVE"
);
},
{
closed = 1;
nodes = (
"469 776 OFFCURVE",
"526 811 OFFCURVE",
"548 889 CURVE",
"524 889 LINE",
"499 810 OFFCURVE",
"444 801 OFFCURVE",
"406 801 CURVE SMOOTH",
"369 801 OFFCURVE",
"317 810 OFFCURVE",
"324 889 CURVE",
"300 889 LINE",
"289 811 OFFCURVE",
"333 776 OFFCURVE",
"401 776 CURVE SMOOTH"
);
}
);
width = 536;
}
);
note = Ebreve;
unicode = 0114;
},
{
glyphname = Ecaron;
lastChange = "2015-10-22 12:03:09 +0000";
layers = (
{
layerId = "C8730BEE-A5E2-4294-A2BB-9D9AC44EE1E3";
name = "Light Italic";
paths = (
{
closed = 1;
nodes = (
"445 0 LINE",
"492 166 LINE",
"480 166 LINE",
"468 123 OFFCURVE",
"432 24 OFFCURVE",
"376 24 CURVE SMOOTH",
"101 24 LINE",
"233 676 LINE",
"504 676 LINE SMOOTH",
"562 676 OFFCURVE",
"551 589 OFFCURVE",
"544 546 CURVE",
"557 546 LINE",
"588 700 LINE",
"123 700 LINE",
"120 686 LINE",
"146 686 LINE SMOOTH",
"183 686 OFFCURVE",
"203 677 OFFCURVE",
"198 653 CURVE SMOOTH",
"74 47 LINE SMOOTH",
"69 23 OFFCURVE",
"46 14 OFFCURVE",
"9 14 CURVE SMOOTH",
"-17 14 LINE",
"-19 0 LINE"
);
},
{
closed = 1;
nodes = (
"415 258 LINE",
"462 488 LINE",
"448 488 LINE",
"434 434 OFFCURVE",
"420 385 OFFCURVE",
"378 385 CURVE SMOOTH",
"162 385 LINE",
"157 361 LINE",
"373 361 LINE SMOOTH",
"416 361 OFFCURVE",
"409 312 OFFCURVE",
"401 258 CURVE"
);
},
{
closed = 1;
nodes = (
"415 787 LINE",
"531 883 LINE",
"521 899 LINE",
"421 824 LINE",
"417 821 OFFCURVE",
"413 819 OFFCURVE",
"410 819 CURVE SMOOTH",
"407 819 OFFCURVE",
"403 821 OFFCURVE",
"400 824 CURVE SMOOTH",
"331 899 LINE",
"314 883 LINE",
"392 787 LINE"
);
}
);
width = 536;
}
);
note = Ecaron;
unicode = 011A;
},
{
glyphname = Ecircumflex;
lastChange = "2015-10-22 12:03:08 +0000";
layers = (
{
layerId = "C8730BEE-A5E2-4294-A2BB-9D9AC44EE1E3";
name = "Light Italic";
paths = (
{
closed = 1;
nodes = (
"445 0 LINE",
"492 166 LINE",
"480 166 LINE",
"468 123 OFFCURVE",
"432 24 OFFCURVE",
"376 24 CURVE SMOOTH",
"101 24 LINE",
"233 676 LINE",
"504 676 LINE SMOOTH",
"562 676 OFFCURVE",
"551 589 OFFCURVE",
"544 546 CURVE",
"557 546 LINE",
"588 700 LINE",
"123 700 LINE",
"120 686 LINE",
"146 686 LINE SMOOTH",
"183 686 OFFCURVE",
"203 677 OFFCURVE",
"198 653 CURVE SMOOTH",
"74 47 LINE SMOOTH",
"69 23 OFFCURVE",
"46 14 OFFCURVE",
"9 14 CURVE SMOOTH",
"-17 14 LINE",
"-19 0 LINE"
);
},
{
closed = 1;
nodes = (
"415 258 LINE",
"462 488 LINE",
"448 488 LINE",
"434 434 OFFCURVE",
"420 385 OFFCURVE",
"378 385 CURVE SMOOTH",
"162 385 LINE",
"157 361 LINE",
"373 361 LINE SMOOTH",
"416 361 OFFCURVE",
"409 312 OFFCURVE",
"401 258 CURVE"
);
},
{
closed = 1;
nodes = (
"408 862 LINE SMOOTH",
"412 865 OFFCURVE",
"417 867 OFFCURVE",
"420 867 CURVE SMOOTH",
"422 867 OFFCURVE",
"425 865 OFFCURVE",
"429 862 CURVE",
"498 787 LINE",
"515 803 LINE",
"438 899 LINE",
"415 899 LINE",
"298 803 LINE",
"308 787 LINE"
);
}
);
width = 536;
}
);
note = Ecircumflex;
unicode = 00CA;
},
{
glyphname = Ecircumflexacute;
lastChange = "2015-10-22 12:03:09 +0000";
layers = (
{
layerId = "C8730BEE-A5E2-4294-A2BB-9D9AC44EE1E3";
name = "Light Italic";
paths = (
{
closed = 1;
nodes = (
"445 0 LINE",
"492 166 LINE",
"480 166 LINE",
"468 123 OFFCURVE",
"432 24 OFFCURVE",
"376 24 CURVE SMOOTH",
"101 24 LINE",
"233 676 LINE",
"504 676 LINE SMOOTH",
"562 676 OFFCURVE",
"551 589 OFFCURVE",
"544 546 CURVE",
"557 546 LINE",
"588 700 LINE",
"123 700 LINE",
"120 686 LINE",
"146 686 LINE SMOOTH",
"183 686 OFFCURVE",
"203 677 OFFCURVE",
"198 653 CURVE SMOOTH",
"74 47 LINE SMOOTH",
"69 23 OFFCURVE",
"46 14 OFFCURVE",
"9 14 CURVE SMOOTH",
"-17 14 LINE",
"-19 0 LINE"
);
},
{
closed = 1;
nodes = (
"415 258 LINE",
"462 488 LINE",
"448 488 LINE",
"434 434 OFFCURVE",
"420 385 OFFCURVE",
"378 385 CURVE SMOOTH",
"162 385 LINE",
"157 361 LINE",
"373 361 LINE SMOOTH",
"416 361 OFFCURVE",
"409 312 OFFCURVE",
"401 258 CURVE"
);
},
{
closed = 1;
nodes = (
"410 862 LINE SMOOTH",
"414 865 OFFCURVE",
"419 867 OFFCURVE",
"421 867 CURVE SMOOTH",
"424 867 OFFCURVE",
"427 865 OFFCURVE",
"431 862 CURVE",
"500 787 LINE",
"516 803 LINE",
"440 899 LINE",
"417 899 LINE",
"300 803 LINE",
"310 787 LINE"
);
},
{
closed = 1;
nodes = (
"646 951 LINE SMOOTH",
"658 957 OFFCURVE",
"664 967 OFFCURVE",
"666 974 CURVE",
"668 983 OFFCURVE",
"662 988 OFFCURVE",
"655 988 CURVE SMOOTH",
"645 988 OFFCURVE",
"634 982 OFFCURVE",
"626 976 CURVE SMOOTH",
"507 888 LINE",
"513 878 LINE"
);
}
);
width = 536;
}
);
note = Ecircumflexacute;
unicode = 1EBE;
},
{
glyphname = Ecircumflexdotbelow;
lastChange = "2015-10-22 12:03:08 +0000";
layers = (
{
layerId = "C8730BEE-A5E2-4294-A2BB-9D9AC44EE1E3";
name = "Light Italic";
paths = (
{
closed = 1;
nodes = (
"445 0 LINE",
"492 166 LINE",
"480 166 LINE",
"468 123 OFFCURVE",
"432 24 OFFCURVE",
"376 24 CURVE SMOOTH",
"101 24 LINE",
"233 676 LINE",
"504 676 LINE SMOOTH",
"562 676 OFFCURVE",
"551 589 OFFCURVE",
"544 546 CURVE",
"557 546 LINE",
"588 700 LINE",
"123 700 LINE",
"120 686 LINE",
"146 686 LINE SMOOTH",
"183 686 OFFCURVE",
"203 677 OFFCURVE",
"198 653 CURVE SMOOTH",
"74 47 LINE SMOOTH",
"69 23 OFFCURVE",
"46 14 OFFCURVE",
"9 14 CURVE SMOOTH",
"-17 14 LINE",
"-19 0 LINE"
);
},
{
closed = 1;
nodes = (
"239 -124 OFFCURVE",
"252 -113 OFFCURVE",
"257 -94 CURVE",
"261 -75 OFFCURVE",
"252 -64 OFFCURVE",
"235 -64 CURVE SMOOTH",
"219 -64 OFFCURVE",
"205 -75 OFFCURVE",
"202 -94 CURVE",
"197 -113 OFFCURVE",
"206 -124 OFFCURVE",
"223 -124 CURVE SMOOTH"
);
},
{
closed = 1;
nodes = (
"415 258 LINE",
"462 488 LINE",
"448 488 LINE",
"434 434 OFFCURVE",
"420 385 OFFCURVE",
"378 385 CURVE SMOOTH",
"162 385 LINE",
"157 361 LINE",
"373 361 LINE SMOOTH",
"416 361 OFFCURVE",
"409 312 OFFCURVE",
"401 258 CURVE"
);
},
{
closed = 1;
nodes = (
"409 862 LINE SMOOTH",
"413 865 OFFCURVE",
"418 867 OFFCURVE",
"420 867 CURVE SMOOTH",
"423 867 OFFCURVE",
"426 865 OFFCURVE",
"430 862 CURVE",
"499 787 LINE",
"516 803 LINE",
"439 899 LINE",
"416 899 LINE",
"299 803 LINE",
"309 787 LINE"
);
}
);
width = 536;
}
);
note = Ecircumflexdotbelow;
unicode = 1EC6;
},
{
glyphname = Ecircumflexgrave;
lastChange = "2015-10-22 12:03:09 +0000";
layers = (
{
layerId = "C8730BEE-A5E2-4294-A2BB-9D9AC44EE1E3";
name = "Light Italic";
paths = (
{
closed = 1;
nodes = (
"445 0 LINE",
"492 166 LINE",
"480 166 LINE",
"468 123 OFFCURVE",
"432 24 OFFCURVE",
"376 24 CURVE SMOOTH",
"101 24 LINE",
"233 676 LINE",
"504 676 LINE SMOOTH",
"562 676 OFFCURVE",
"551 589 OFFCURVE",
"544 546 CURVE",
"557 546 LINE",
"588 700 LINE",
"123 700 LINE",
"120 686 LINE",
"146 686 LINE SMOOTH",
"183 686 OFFCURVE",
"203 677 OFFCURVE",
"198 653 CURVE SMOOTH",
"74 47 LINE SMOOTH",
"69 23 OFFCURVE",
"46 14 OFFCURVE",
"9 14 CURVE SMOOTH",
"-17 14 LINE",
"-19 0 LINE"
);
},
{
closed = 1;
nodes = (
"415 258 LINE",
"462 488 LINE",
"448 488 LINE",
"434 434 OFFCURVE",
"420 385 OFFCURVE",
"378 385 CURVE SMOOTH",
"162 385 LINE",
"157 361 LINE",
"373 361 LINE SMOOTH",
"416 361 OFFCURVE",
"409 312 OFFCURVE",
"401 258 CURVE"
);
},
{
closed = 1;
nodes = (
"355 888 LINE",
"272 976 LINE SMOOTH",
"266 982 OFFCURVE",
"258 988 OFFCURVE",
"249 988 CURVE SMOOTH",
"241 988 OFFCURVE",
"233 983 OFFCURVE",
"231 974 CURVE",
"229 967 OFFCURVE",
"232 958 OFFCURVE",
"242 951 CURVE SMOOTH",
"346 878 LINE"
);
},
{
closed = 1;
nodes = (
"410 862 LINE SMOOTH",
"414 865 OFFCURVE",
"419 867 OFFCURVE",
"421 867 CURVE SMOOTH",
"424 867 OFFCURVE",
"427 865 OFFCURVE",
"431 862 CURVE",
"500 787 LINE",
"516 803 LINE",
"440 899 LINE",
"417 899 LINE",
"300 803 LINE",
"310 787 LINE"
);
}
);
width = 536;
}
);
note = Ecircumflexgrave;
unicode = 1EC0;
},
{
glyphname = Ecircumflexhookabove;
lastChange = "2015-10-22 12:03:08 +0000";
layers = (
{
layerId = "C8730BEE-A5E2-4294-A2BB-9D9AC44EE1E3";
name = "Light Italic";
paths = (
{
closed = 1;
nodes = (
"445 0 LINE",
"492 166 LINE",
"480 166 LINE",
"468 123 OFFCURVE",
"432 24 OFFCURVE",
"376 24 CURVE SMOOTH",
"101 24 LINE",
"233 676 LINE",
"504 676 LINE SMOOTH",
"562 676 OFFCURVE",
"551 589 OFFCURVE",
"544 546 CURVE",
"557 546 LINE",
"588 700 LINE",
"123 700 LINE",
"120 686 LINE",
"146 686 LINE SMOOTH",
"183 686 OFFCURVE",
"203 677 OFFCURVE",
"198 653 CURVE SMOOTH",
"74 47 LINE SMOOTH",
"69 23 OFFCURVE",
"46 14 OFFCURVE",
"9 14 CURVE SMOOTH",
"-17 14 LINE",
"-19 0 LINE"
);
},
{
closed = 1;
nodes = (
"415 258 LINE",
"462 488 LINE",
"448 488 LINE",
"434 434 OFFCURVE",
"420 385 OFFCURVE",
"378 385 CURVE SMOOTH",
"162 385 LINE",
"157 361 LINE",
"373 361 LINE SMOOTH",
"416 361 OFFCURVE",
"409 312 OFFCURVE",
"401 258 CURVE"
);
},
{
closed = 1;
nodes = (
"410 862 LINE SMOOTH",
"414 865 OFFCURVE",
"419 867 OFFCURVE",
"421 867 CURVE SMOOTH",
"424 867 OFFCURVE",
"427 865 OFFCURVE",
"431 862 CURVE",
"500 787 LINE",
"516 803 LINE",
"440 899 LINE",
"417 899 LINE",
"300 803 LINE",
"310 787 LINE"
);
},
{
closed = 1;
nodes = (
"558 873 LINE",
"543 877 OFFCURVE",
"534 883 OFFCURVE",
"538 899 CURVE",
"542 924 OFFCURVE",
"612 933 OFFCURVE",
"620 971 CURVE SMOOTH",
"627 1003 OFFCURVE",
"597 1017 OFFCURVE",
"563 1017 CURVE SMOOTH",
"537 1017 OFFCURVE",
"497 1008 OFFCURVE",
"492 982 CURVE",
"490 971 OFFCURVE",
"495 964 OFFCURVE",
"504 964 CURVE SMOOTH",
"521 964 OFFCURVE",
"521 973 OFFCURVE",
"529 982 CURVE",
"537 990 OFFCURVE",
"543 997 OFFCURVE",
"561 997 CURVE SMOOTH",
"576 997 OFFCURVE",
"588 987 OFFCURVE",
"586 974 CURVE",
"578 940 OFFCURVE",
"515 933 OFFCURVE",
"507 898 CURVE SMOOTH",
"503 878 OFFCURVE",
"514 860 OFFCURVE",
"548 860 CURVE"
);
}
);
width = 536;
}
);
note = Ecircumflexhookabove;
unicode = 1EC2;
},
{
glyphname = Ecircumflextilde;
lastChange = "2015-10-22 12:03:09 +0000";
layers = (
{
layerId = "C8730BEE-A5E2-4294-A2BB-9D9AC44EE1E3";
name = "Light Italic";
paths = (
{
closed = 1;
nodes = (
"445 0 LINE",
"492 166 LINE",
"480 166 LINE",
"468 123 OFFCURVE",
"432 24 OFFCURVE",
"376 24 CURVE SMOOTH",
"101 24 LINE",
"233 676 LINE",
"504 676 LINE SMOOTH",
"562 676 OFFCURVE",
"551 589 OFFCURVE",
"544 546 CURVE",
"557 546 LINE",
"588 700 LINE",
"123 700 LINE",
"120 686 LINE",
"146 686 LINE SMOOTH",
"183 686 OFFCURVE",
"203 677 OFFCURVE",
"198 653 CURVE SMOOTH",
"74 47 LINE SMOOTH",
"69 23 OFFCURVE",
"46 14 OFFCURVE",
"9 14 CURVE SMOOTH",
"-17 14 LINE",
"-19 0 LINE"
);
},
{
closed = 1;
nodes = (
"415 258 LINE",
"462 488 LINE",
"448 488 LINE",
"434 434 OFFCURVE",
"420 385 OFFCURVE",
"378 385 CURVE SMOOTH",
"162 385 LINE",
"157 361 LINE",
"373 361 LINE SMOOTH",
"416 361 OFFCURVE",
"409 312 OFFCURVE",
"401 258 CURVE"
);
},
{
closed = 1;
nodes = (
"410 862 LINE SMOOTH",
"414 865 OFFCURVE",
"419 867 OFFCURVE",
"421 867 CURVE SMOOTH",
"424 867 OFFCURVE",
"427 865 OFFCURVE",
"431 862 CURVE",
"500 787 LINE",
"516 803 LINE",
"440 899 LINE",
"417 899 LINE",
"300 803 LINE",
"310 787 LINE"
);
},
{
closed = 1;
nodes = (
"337 970 OFFCURVE",
"360 994 OFFCURVE",
"388 994 CURVE SMOOTH",
"427 994 OFFCURVE",
"457 934 OFFCURVE",
"498 934 CURVE SMOOTH",
"537 934 OFFCURVE",
"567 961 OFFCURVE",
"588 1017 CURVE",
"574 1024 LINE",
"557 984 OFFCURVE",
"536 958 OFFCURVE",
"506 958 CURVE SMOOTH",
"468 958 OFFCURVE",
"436 1017 OFFCURVE",
"395 1017 CURVE SMOOTH",
"360 1017 OFFCURVE",
"325 995 OFFCURVE",
"307 940 CURVE",
"320 932 LINE"
);
}
);
width = 536;
}
);
note = Ecircumflextilde;
unicode = 1EC4;
},
{
glyphname = Edieresis;
lastChange = "2015-10-22 12:03:09 +0000";
layers = (
{
layerId = "C8730BEE-A5E2-4294-A2BB-9D9AC44EE1E3";
name = "Light Italic";
paths = (
{
closed = 1;
nodes = (
"445 0 LINE",
"492 166 LINE",
"480 166 LINE",
"468 123 OFFCURVE",
"432 24 OFFCURVE",
"376 24 CURVE SMOOTH",
"101 24 LINE",
"233 676 LINE",
"504 676 LINE SMOOTH",
"562 676 OFFCURVE",
"551 589 OFFCURVE",
"544 546 CURVE",
"557 546 LINE",
"588 700 LINE",
"123 700 LINE",
"120 686 LINE",
"146 686 LINE SMOOTH",
"183 686 OFFCURVE",
"203 677 OFFCURVE",
"198 653 CURVE SMOOTH",
"74 47 LINE SMOOTH",
"69 23 OFFCURVE",
"46 14 OFFCURVE",
"9 14 CURVE SMOOTH",
"-17 14 LINE",
"-19 0 LINE"
);
},
{
closed = 1;
nodes = (
"415 258 LINE",
"462 488 LINE",
"448 488 LINE",
"434 434 OFFCURVE",
"420 385 OFFCURVE",
"378 385 CURVE SMOOTH",
"162 385 LINE",
"157 361 LINE",
"373 361 LINE SMOOTH",
"416 361 OFFCURVE",
"409 312 OFFCURVE",
"401 258 CURVE"
);
},
{
closed = 1;
nodes = (
"324 785 OFFCURVE",
"339 796 OFFCURVE",
"343 815 CURVE SMOOTH",
"347 834 OFFCURVE",
"337 845 OFFCURVE",
"321 845 CURVE SMOOTH",
"304 845 OFFCURVE",
"291 834 OFFCURVE",
"287 815 CURVE",
"284 796 OFFCURVE",
"292 785 OFFCURVE",
"308 785 CURVE SMOOTH"
);
},
{
closed = 1;
nodes = (
"513 785 OFFCURVE",
"527 796 OFFCURVE",
"531 815 CURVE SMOOTH",
"535 834 OFFCURVE",
"525 845 OFFCURVE",
"509 845 CURVE SMOOTH",
"492 845 OFFCURVE",
"479 834 OFFCURVE",
"475 815 CURVE SMOOTH",
"471 796 OFFCURVE",
"480 785 OFFCURVE",
"496 785 CURVE SMOOTH"
);
}
);
width = 536;
}
);
note = Edieresis;
unicode = 00CB;
},
{
glyphname = Edotaccent;
lastChange = "2015-10-22 12:03:09 +0000";
layers = (
{
layerId = "C8730BEE-A5E2-4294-A2BB-9D9AC44EE1E3";
name = "Light Italic";
paths = (
{
closed = 1;
nodes = (
"445 0 LINE",
"492 166 LINE",
"480 166 LINE",
"468 123 OFFCURVE",
"432 24 OFFCURVE",
"376 24 CURVE SMOOTH",
"101 24 LINE",
"233 676 LINE",
"504 676 LINE SMOOTH",
"562 676 OFFCURVE",
"551 589 OFFCURVE",
"544 546 CURVE",
"557 546 LINE",
"588 700 LINE",
"123 700 LINE",
"120 686 LINE",
"146 686 LINE SMOOTH",
"183 686 OFFCURVE",
"203 677 OFFCURVE",
"198 653 CURVE SMOOTH",
"74 47 LINE SMOOTH",
"69 23 OFFCURVE",
"46 14 OFFCURVE",
"9 14 CURVE SMOOTH",
"-17 14 LINE",
"-19 0 LINE"
);
},
{
closed = 1;
nodes = (
"415 258 LINE",
"462 488 LINE",
"448 488 LINE",
"434 434 OFFCURVE",
"420 385 OFFCURVE",
"378 385 CURVE SMOOTH",
"162 385 LINE",
"157 361 LINE",
"373 361 LINE SMOOTH",
"416 361 OFFCURVE",
"409 312 OFFCURVE",
"401 258 CURVE"
);
},
{
closed = 1;
nodes = (
"414 759 OFFCURVE",
"427 770 OFFCURVE",
"431 789 CURVE SMOOTH",
"435 808 OFFCURVE",
"426 819 OFFCURVE",
"410 819 CURVE SMOOTH",
"394 819 OFFCURVE",
"379 808 OFFCURVE",
"375 789 CURVE SMOOTH",
"372 770 OFFCURVE",
"381 759 OFFCURVE",
"397 759 CURVE SMOOTH"
);
}
);
width = 536;
}
);
note = Edotaccent;
unicode = 0116;
},
{
glyphname = Edotbelow;
lastChange = "2015-10-22 12:03:08 +0000";
layers = (
{
layerId = "C8730BEE-A5E2-4294-A2BB-9D9AC44EE1E3";
name = "Light Italic";
paths = (
{
closed = 1;
nodes = (
"445 0 LINE",
"492 166 LINE",
"480 166 LINE",
"468 123 OFFCURVE",
"432 24 OFFCURVE",
"376 24 CURVE SMOOTH",
"101 24 LINE",
"233 676 LINE",
"504 676 LINE SMOOTH",
"562 676 OFFCURVE",
"551 589 OFFCURVE",
"544 546 CURVE",
"557 546 LINE",
"588 700 LINE",
"123 700 LINE",
"120 686 LINE",
"146 686 LINE SMOOTH",
"183 686 OFFCURVE",
"203 677 OFFCURVE",
"198 653 CURVE SMOOTH",
"74 47 LINE SMOOTH",
"69 23 OFFCURVE",
"46 14 OFFCURVE",
"9 14 CURVE SMOOTH",
"-17 14 LINE",
"-19 0 LINE"
);
},
{
closed = 1;
nodes = (
"239 -124 OFFCURVE",
"252 -113 OFFCURVE",
"257 -94 CURVE",
"261 -75 OFFCURVE",
"252 -64 OFFCURVE",
"235 -64 CURVE SMOOTH",
"219 -64 OFFCURVE",
"205 -75 OFFCURVE",
"202 -94 CURVE",
"197 -113 OFFCURVE",
"206 -124 OFFCURVE",
"223 -124 CURVE SMOOTH"
);
},
{
closed = 1;
nodes = (
"415 258 LINE",
"462 488 LINE",
"448 488 LINE",
"434 434 OFFCURVE",
"420 385 OFFCURVE",
"378 385 CURVE SMOOTH",
"162 385 LINE",
"157 361 LINE",
"373 361 LINE SMOOTH",
"416 361 OFFCURVE",
"409 312 OFFCURVE",
"401 258 CURVE"
);
}
);
width = 536;
}
);
note = Edotbelow;
unicode = 1EB8;
},
{
glyphname = Egrave;
lastChange = "2015-10-22 12:03:09 +0000";
layers = (
{
layerId = "C8730BEE-A5E2-4294-A2BB-9D9AC44EE1E3";
name = "Light Italic";
paths = (
{
closed = 1;
nodes = (
"445 0 LINE",
"492 166 LINE",
"480 166 LINE",
"468 123 OFFCURVE",
"432 24 OFFCURVE",
"376 24 CURVE SMOOTH",
"101 24 LINE",
"233 676 LINE",
"504 676 LINE SMOOTH",
"562 676 OFFCURVE",
"551 589 OFFCURVE",
"544 546 CURVE",
"557 546 LINE",
"588 700 LINE",
"123 700 LINE",
"120 686 LINE",
"146 686 LINE SMOOTH",
"183 686 OFFCURVE",
"203 677 OFFCURVE",
"198 653 CURVE SMOOTH",
"74 47 LINE SMOOTH",
"69 23 OFFCURVE",
"46 14 OFFCURVE",
"9 14 CURVE SMOOTH",
"-17 14 LINE",
"-19 0 LINE"
);
},
{
closed = 1;
nodes = (
"415 258 LINE",
"462 488 LINE",
"448 488 LINE",
"434 434 OFFCURVE",
"420 385 OFFCURVE",
"378 385 CURVE SMOOTH",
"162 385 LINE",
"157 361 LINE",
"373 361 LINE SMOOTH",
"416 361 OFFCURVE",
"409 312 OFFCURVE",
"401 258 CURVE"
);
},
{
closed = 1;
nodes = (
"476 798 LINE",
"392 885 LINE",
"385 891 OFFCURVE",
"378 897 OFFCURVE",
"369 897 CURVE SMOOTH",
"362 897 OFFCURVE",
"354 892 OFFCURVE",
"352 883 CURVE",
"351 875 OFFCURVE",
"354 866 OFFCURVE",
"363 860 CURVE SMOOTH",
"468 788 LINE"
);
}
);
width = 536;
}
);
note = Egrave;
unicode = 00C8;
},
{
glyphname = Ehookabove;
lastChange = "2015-10-22 12:03:09 +0000";
layers = (
{
layerId = "C8730BEE-A5E2-4294-A2BB-9D9AC44EE1E3";
name = "Light Italic";
paths = (
{
closed = 1;
nodes = (
"445 0 LINE",
"492 166 LINE",
"480 166 LINE",
"468 123 OFFCURVE",
"432 24 OFFCURVE",
"376 24 CURVE SMOOTH",
"101 24 LINE",
"233 676 LINE",
"504 676 LINE SMOOTH",
"562 676 OFFCURVE",
"551 589 OFFCURVE",
"544 546 CURVE",
"557 546 LINE",
"588 700 LINE",
"123 700 LINE",
"120 686 LINE",
"146 686 LINE SMOOTH",
"183 686 OFFCURVE",
"203 677 OFFCURVE",
"198 653 CURVE SMOOTH",
"74 47 LINE SMOOTH",
"69 23 OFFCURVE",
"46 14 OFFCURVE",
"9 14 CURVE SMOOTH",
"-17 14 LINE",
"-19 0 LINE"
);
},
{
closed = 1;
nodes = (
"415 258 LINE",
"462 488 LINE",
"448 488 LINE",
"434 434 OFFCURVE",
"420 385 OFFCURVE",
"378 385 CURVE SMOOTH",
"162 385 LINE",
"157 361 LINE",
"373 361 LINE SMOOTH",
"416 361 OFFCURVE",
"409 312 OFFCURVE",
"401 258 CURVE"
);
},
{
closed = 1;
nodes = (
"429 794 LINE",
"414 799 OFFCURVE",
"405 802 OFFCURVE",
"409 821 CURVE SMOOTH",
"416 851 OFFCURVE",
"492 869 OFFCURVE",
"501 915 CURVE SMOOTH",
"509 951 OFFCURVE",
"482 966 OFFCURVE",
"444 966 CURVE SMOOTH",
"406 966 OFFCURVE",
"373 949 OFFCURVE",
"369 924 CURVE SMOOTH",
"366 910 OFFCURVE",
"370 905 OFFCURVE",
"378 905 CURVE SMOOTH",
"390 905 OFFCURVE",
"393 910 OFFCURVE",
"401 927 CURVE SMOOTH",
"409 942 OFFCURVE",
"427 947 OFFCURVE",
"443 947 CURVE SMOOTH",
"469 947 OFFCURVE",
"475 933 OFFCURVE",
"472 917 CURVE SMOOTH",
"464 876 OFFCURVE",
"389 863 OFFCURVE",
"380 821 CURVE SMOOTH",
"375 797 OFFCURVE",
"389 779 OFFCURVE",
"420 779 CURVE"
);
}
);
width = 536;
}
);
note = Ehookabove;
unicode = 1EBA;
},
{
glyphname = Emacron;
lastChange = "2015-10-22 12:03:09 +0000";
layers = (
{
layerId = "C8730BEE-A5E2-4294-A2BB-9D9AC44EE1E3";
name = "Light Italic";
paths = (
{
closed = 1;
nodes = (
"445 0 LINE",
"492 166 LINE",
"480 166 LINE",
"468 123 OFFCURVE",
"432 24 OFFCURVE",
"376 24 CURVE SMOOTH",
"101 24 LINE",
"233 676 LINE",
"504 676 LINE SMOOTH",
"562 676 OFFCURVE",
"551 589 OFFCURVE",
"544 546 CURVE",
"557 546 LINE",
"588 700 LINE",
"123 700 LINE",
"120 686 LINE",
"146 686 LINE SMOOTH",
"183 686 OFFCURVE",
"203 677 OFFCURVE",
"198 653 CURVE SMOOTH",
"74 47 LINE SMOOTH",
"69 23 OFFCURVE",
"46 14 OFFCURVE",
"9 14 CURVE SMOOTH",
"-17 14 LINE",
"-19 0 LINE"
);
},
{
closed = 1;
nodes = (
"415 258 LINE",
"462 488 LINE",
"448 488 LINE",
"434 434 OFFCURVE",
"420 385 OFFCURVE",
"378 385 CURVE SMOOTH",
"162 385 LINE",
"157 361 LINE",
"373 361 LINE SMOOTH",
"416 361 OFFCURVE",
"409 312 OFFCURVE",
"401 258 CURVE"
);
},
{
closed = 1;
nodes = (
"534 787 LINE",
"539 809 LINE",
"276 809 LINE",
"272 787 LINE"
);
}
);
width = 536;
}
);
note = Emacron;
unicode = 0112;
},
{
glyphname = Eogonek;
lastChange = "2015-10-22 12:03:09 +0000";
layers = (
{
layerId = "C8730BEE-A5E2-4294-A2BB-9D9AC44EE1E3";
name = "Light Italic";
paths = (
{
closed = 1;
nodes = (
"445 0 LINE",
"492 166 LINE",
"480 166 LINE",
"468 123 OFFCURVE",
"432 24 OFFCURVE",
"376 24 CURVE SMOOTH",
"101 24 LINE",
"233 676 LINE",
"504 676 LINE SMOOTH",
"562 676 OFFCURVE",
"551 589 OFFCURVE",
"544 546 CURVE",
"557 546 LINE",
"588 700 LINE",
"123 700 LINE",
"120 686 LINE",
"146 686 LINE SMOOTH",
"183 686 OFFCURVE",
"203 677 OFFCURVE",
"198 653 CURVE SMOOTH",
"74 47 LINE SMOOTH",
"69 23 OFFCURVE",
"46 14 OFFCURVE",
"9 14 CURVE SMOOTH",
"-17 14 LINE",
"-19 0 LINE"
);
},
{
closed = 1;
nodes = (
"358 -166 OFFCURVE",
"372 -163 OFFCURVE",
"393 -157 CURVE",
"396 -141 LINE",
"379 -146 OFFCURVE",
"367 -148 OFFCURVE",
"354 -148 CURVE SMOOTH",
"324 -148 OFFCURVE",
"300 -135 OFFCURVE",
"307 -97 CURVE SMOOTH",
"315 -57 OFFCURVE",
"351 -20 OFFCURVE",
"395 0 CURVE",
"370 0 LINE",
"324 -20 OFFCURVE",
"290 -54 OFFCURVE",
"281 -98 CURVE SMOOTH",
"275 -128 OFFCURVE",
"284 -166 OFFCURVE",
"338 -166 CURVE SMOOTH"
);
},
{
closed = 1;
nodes = (
"415 258 LINE",
"462 488 LINE",
"448 488 LINE",
"434 434 OFFCURVE",
"420 385 OFFCURVE",
"378 385 CURVE SMOOTH",
"162 385 LINE",
"157 361 LINE",
"373 361 LINE SMOOTH",
"416 361 OFFCURVE",
"409 312 OFFCURVE",
"401 258 CURVE"
);
}
);
width = 536;
}
);
note = Eogonek;
unicode = 0118;
},
{
glyphname = Etilde;
lastChange = "2015-10-22 12:03:08 +0000";
layers = (
{
layerId = "C8730BEE-A5E2-4294-A2BB-9D9AC44EE1E3";
name = "Light Italic";
paths = (
{
closed = 1;
nodes = (
"445 0 LINE",
"492 166 LINE",
"480 166 LINE",
"468 123 OFFCURVE",
"432 24 OFFCURVE",
"376 24 CURVE SMOOTH",
"101 24 LINE",
"233 676 LINE",
"504 676 LINE SMOOTH",
"562 676 OFFCURVE",
"551 589 OFFCURVE",
"544 546 CURVE",
"557 546 LINE",
"588 700 LINE",
"123 700 LINE",
"120 686 LINE",
"146 686 LINE SMOOTH",
"183 686 OFFCURVE",
"203 677 OFFCURVE",
"198 653 CURVE SMOOTH",
"74 47 LINE SMOOTH",
"69 23 OFFCURVE",
"46 14 OFFCURVE",
"9 14 CURVE SMOOTH",
"-17 14 LINE",
"-19 0 LINE"
);
},
{
closed = 1;
nodes = (
"415 258 LINE",
"462 488 LINE",
"448 488 LINE",
"434 434 OFFCURVE",
"420 385 OFFCURVE",
"378 385 CURVE SMOOTH",
"162 385 LINE",
"157 361 LINE",
"373 361 LINE SMOOTH",
"416 361 OFFCURVE",
"409 312 OFFCURVE",
"401 258 CURVE"
);
},
{
closed = 1;
nodes = (
"297 823 OFFCURVE",
"320 847 OFFCURVE",
"348 847 CURVE SMOOTH",
"387 847 OFFCURVE",
"417 787 OFFCURVE",
"458 787 CURVE SMOOTH",
"497 787 OFFCURVE",
"528 814 OFFCURVE",
"548 870 CURVE",
"535 877 LINE",
"517 837 OFFCURVE",
"496 811 OFFCURVE",
"466 811 CURVE SMOOTH",
"428 811 OFFCURVE",
"396 870 OFFCURVE",
"354 870 CURVE SMOOTH",
"320 870 OFFCURVE",
"285 848 OFFCURVE",
"267 793 CURVE",
"279 785 LINE"
);
}
);
width = 536;
}
);
note = Etilde;
unicode = 1EBC;
},
{
glyphname = F;
lastChange = "2015-10-22 12:03:09 +0000";
layers = (
{
layerId = "C8730BEE-A5E2-4294-A2BB-9D9AC44EE1E3";
name = "Light Italic";
paths = (
{
closed = 1;
nodes = (
"180 0 LINE",
"182 14 LINE",
"156 14 LINE SMOOTH",
"119 14 OFFCURVE",
"100 23 OFFCURVE",
"105 47 CURVE SMOOTH",
"233 676 LINE",
"504 676 LINE SMOOTH",
"562 676 OFFCURVE",
"551 589 OFFCURVE",
"544 546 CURVE",
"557 546 LINE",
"588 700 LINE",
"123 700 LINE",
"120 686 LINE",
"146 686 LINE SMOOTH",
"183 686 OFFCURVE",
"203 677 OFFCURVE",
"198 653 CURVE SMOOTH",
"74 47 LINE SMOOTH",
"69 23 OFFCURVE",
"46 14 OFFCURVE",
"9 14 CURVE SMOOTH",
"-17 14 LINE",
"-19 0 LINE"
);
},
{
closed = 1;
nodes = (
"386 235 LINE",
"433 465 LINE",
"420 465 LINE",
"405 411 OFFCURVE",
"392 362 OFFCURVE",
"349 362 CURVE SMOOTH",
"158 362 LINE",
"154 338 LINE",
"345 338 LINE SMOOTH",
"387 338 OFFCURVE",
"380 289 OFFCURVE",
"372 235 CURVE"
);
}
);
width = 496;
}
);
note = F;
unicode = 0046;
},
{
glyphname = G;
lastChange = "2015-10-22 12:03:07 +0000";
layers = (
{
layerId = "C8730BEE-A5E2-4294-A2BB-9D9AC44EE1E3";
name = "Light Italic";
paths = (
{
closed = 1;
nodes = (
"434 -10 OFFCURVE",
"508 34 OFFCURVE",
"553 72 CURVE",
"597 288 LINE SMOOTH",
"606 332 OFFCURVE",
"629 339 OFFCURVE",
"662 339 CURVE",
"665 353 LINE",
"483 353 LINE",
"480 339 LINE",
"531 335 OFFCURVE",
"577 332 OFFCURVE",
"568 288 CURVE SMOOTH",
"526 82 LINE",
"460 26 OFFCURVE",
"364 14 OFFCURVE",
"310 14 CURVE SMOOTH",
"121 14 OFFCURVE",
"71 156 OFFCURVE",
"110 350 CURVE SMOOTH",
"151 546 OFFCURVE",
"268 686 OFFCURVE",
"453 686 CURVE SMOOTH",
"565 686 OFFCURVE",
"631 622 OFFCURVE",
"620 531 CURVE",
"633 531 LINE",
"668 705 LINE",
"649 705 LINE",
"640 663 LINE SMOOTH",
"637 649 OFFCURVE",
"633 644 OFFCURVE",
"628 644 CURVE SMOOTH",
"625 644 OFFCURVE",
"623 647 OFFCURVE",
"620 649 CURVE",
"601 668 OFFCURVE",
"548 710 OFFCURVE",
"458 710 CURVE SMOOTH",
"273 710 OFFCURVE",
"128 583 OFFCURVE",
"81 350 CURVE SMOOTH",
"33 117 OFFCURVE",
"115 -10 OFFCURVE",
"297 -10 CURVE SMOOTH"
);
}
);
width = 641;
}
);
leftKerningGroup = G;
note = G;
unicode = 0047;
},
{
glyphname = Gbreve;
lastChange = "2015-10-22 12:03:08 +0000";
layers = (
{
layerId = "C8730BEE-A5E2-4294-A2BB-9D9AC44EE1E3";
name = "Light Italic";
paths = (
{
closed = 1;
nodes = (
"434 -10 OFFCURVE",
"508 34 OFFCURVE",
"553 72 CURVE",
"597 288 LINE SMOOTH",
"606 332 OFFCURVE",
"629 339 OFFCURVE",
"662 339 CURVE",
"665 353 LINE",
"483 353 LINE",
"480 339 LINE",
"531 335 OFFCURVE",
"577 332 OFFCURVE",
"568 288 CURVE SMOOTH",
"526 82 LINE",
"460 26 OFFCURVE",
"364 14 OFFCURVE",
"310 14 CURVE SMOOTH",
"121 14 OFFCURVE",
"71 156 OFFCURVE",
"110 350 CURVE SMOOTH",
"151 546 OFFCURVE",
"268 686 OFFCURVE",
"453 686 CURVE SMOOTH",
"565 686 OFFCURVE",
"631 622 OFFCURVE",
"620 531 CURVE",
"633 531 LINE",
"668 705 LINE",
"649 705 LINE",
"640 663 LINE SMOOTH",
"637 649 OFFCURVE",
"633 644 OFFCURVE",
"628 644 CURVE SMOOTH",
"625 644 OFFCURVE",
"623 647 OFFCURVE",
"620 649 CURVE",
"601 668 OFFCURVE",
"548 710 OFFCURVE",
"458 710 CURVE SMOOTH",
"273 710 OFFCURVE",
"128 583 OFFCURVE",
"81 350 CURVE SMOOTH",
"33 117 OFFCURVE",
"115 -10 OFFCURVE",
"297 -10 CURVE SMOOTH"
);
},
{
closed = 1;
nodes = (
"537 804 OFFCURVE",
"593 839 OFFCURVE",
"615 917 CURVE",
"591 917 LINE",
"566 838 OFFCURVE",
"511 829 OFFCURVE",
"473 829 CURVE SMOOTH",
"436 829 OFFCURVE",
"384 838 OFFCURVE",
"392 917 CURVE",
"368 917 LINE",
"356 839 OFFCURVE",
"400 804 OFFCURVE",
"468 804 CURVE SMOOTH"
);
}
);
width = 641;
}
);
leftKerningGroup = G;
note = Gbreve;
unicode = 011E;
},
{
glyphname = Gcaron;
lastChange = "2015-10-22 12:03:09 +0000";
layers = (
{
layerId = "C8730BEE-A5E2-4294-A2BB-9D9AC44EE1E3";
name = "Light Italic";
paths = (
{
closed = 1;
nodes = (
"434 -10 OFFCURVE",
"508 34 OFFCURVE",
"553 72 CURVE",
"597 288 LINE SMOOTH",
"606 332 OFFCURVE",
"629 339 OFFCURVE",
"662 339 CURVE",
"665 353 LINE",
"483 353 LINE",
"480 339 LINE",
"531 335 OFFCURVE",
"577 332 OFFCURVE",
"568 288 CURVE SMOOTH",
"526 82 LINE",
"460 26 OFFCURVE",
"364 14 OFFCURVE",
"310 14 CURVE SMOOTH",
"121 14 OFFCURVE",
"71 156 OFFCURVE",
"110 350 CURVE SMOOTH",
"151 546 OFFCURVE",
"268 686 OFFCURVE",
"453 686 CURVE SMOOTH",
"565 686 OFFCURVE",
"631 622 OFFCURVE",
"620 531 CURVE",
"633 531 LINE",
"668 705 LINE",
"649 705 LINE",
"640 663 LINE SMOOTH",
"637 649 OFFCURVE",
"633 644 OFFCURVE",
"628 644 CURVE SMOOTH",
"625 644 OFFCURVE",
"623 647 OFFCURVE",
"620 649 CURVE",
"601 668 OFFCURVE",
"548 710 OFFCURVE",
"458 710 CURVE SMOOTH",
"273 710 OFFCURVE",
"128 583 OFFCURVE",
"81 350 CURVE SMOOTH",
"33 117 OFFCURVE",
"115 -10 OFFCURVE",
"297 -10 CURVE SMOOTH"
);
},
{
closed = 1;
nodes = (
"495 787 LINE",
"612 883 LINE",
"602 899 LINE",
"502 824 LINE",
"497 821 OFFCURVE",
"493 819 OFFCURVE",
"491 819 CURVE SMOOTH",
"488 819 OFFCURVE",
"484 821 OFFCURVE",
"481 824 CURVE SMOOTH",
"412 899 LINE",
"395 883 LINE",
"472 787 LINE"
);
}
);
width = 641;
}
);
leftKerningGroup = G;
note = Gcaron;
unicode = 01E6;
},
{
glyphname = Gcircumflex;
lastChange = "2015-10-22 12:03:08 +0000";
layers = (
{
layerId = "C8730BEE-A5E2-4294-A2BB-9D9AC44EE1E3";
name = "Light Italic";
paths = (
{
closed = 1;
nodes = (
"434 -10 OFFCURVE",
"508 34 OFFCURVE",
"553 72 CURVE",
"597 288 LINE SMOOTH",
"606 332 OFFCURVE",
"629 339 OFFCURVE",
"662 339 CURVE",
"665 353 LINE",
"483 353 LINE",
"480 339 LINE",
"531 335 OFFCURVE",
"577 332 OFFCURVE",
"568 288 CURVE SMOOTH",
"526 82 LINE",
"460 26 OFFCURVE",
"364 14 OFFCURVE",
"310 14 CURVE SMOOTH",
"121 14 OFFCURVE",
"71 156 OFFCURVE",
"110 350 CURVE SMOOTH",
"151 546 OFFCURVE",
"268 686 OFFCURVE",
"453 686 CURVE SMOOTH",
"565 686 OFFCURVE",
"631 622 OFFCURVE",
"620 531 CURVE",
"633 531 LINE",
"668 705 LINE",
"649 705 LINE",
"640 663 LINE SMOOTH",
"637 649 OFFCURVE",
"633 644 OFFCURVE",
"628 644 CURVE SMOOTH",
"625 644 OFFCURVE",
"623 647 OFFCURVE",
"620 649 CURVE",
"601 668 OFFCURVE",
"548 710 OFFCURVE",
"458 710 CURVE SMOOTH",
"273 710 OFFCURVE",
"128 583 OFFCURVE",
"81 350 CURVE SMOOTH",
"33 117 OFFCURVE",
"115 -10 OFFCURVE",
"297 -10 CURVE SMOOTH"
);
},
{
closed = 1;
nodes = (
"482 890 LINE SMOOTH",
"486 893 OFFCURVE",
"491 895 OFFCURVE",
"493 895 CURVE SMOOTH",
"496 895 OFFCURVE",
"499 893 OFFCURVE",
"503 890 CURVE",
"572 815 LINE",
"588 831 LINE",
"512 927 LINE",
"489 927 LINE",
"372 831 LINE",
"382 815 LINE"
);
}
);
width = 641;
}
);
leftKerningGroup = G;
note = Gcircumflex;
unicode = 011C;
},
{
glyphname = Gcommaaccent;
lastChange = "2015-10-22 12:03:08 +0000";
layers = (
{
layerId = "C8730BEE-A5E2-4294-A2BB-9D9AC44EE1E3";
name = "Light Italic";
paths = (
{
closed = 1;
nodes = (
"434 -10 OFFCURVE",
"508 34 OFFCURVE",
"553 72 CURVE",
"597 288 LINE SMOOTH",
"606 332 OFFCURVE",
"629 339 OFFCURVE",
"662 339 CURVE",
"665 353 LINE",
"483 353 LINE",
"480 339 LINE",
"531 335 OFFCURVE",
"577 332 OFFCURVE",
"568 288 CURVE SMOOTH",
"526 82 LINE",
"460 26 OFFCURVE",
"364 14 OFFCURVE",
"310 14 CURVE SMOOTH",
"121 14 OFFCURVE",
"71 156 OFFCURVE",
"110 350 CURVE SMOOTH",
"151 546 OFFCURVE",
"268 686 OFFCURVE",
"453 686 CURVE SMOOTH",
"565 686 OFFCURVE",
"631 622 OFFCURVE",
"620 531 CURVE",
"633 531 LINE",
"668 705 LINE",
"649 705 LINE",
"640 663 LINE SMOOTH",
"637 649 OFFCURVE",
"633 644 OFFCURVE",
"628 644 CURVE SMOOTH",
"625 644 OFFCURVE",
"623 647 OFFCURVE",
"620 649 CURVE",
"601 668 OFFCURVE",
"548 710 OFFCURVE",
"458 710 CURVE SMOOTH",
"273 710 OFFCURVE",
"128 583 OFFCURVE",
"81 350 CURVE SMOOTH",
"33 117 OFFCURVE",
"115 -10 OFFCURVE",
"297 -10 CURVE SMOOTH"
);
},
{
closed = 1;
nodes = (
"288 -194 OFFCURVE",
"317 -150 OFFCURVE",
"326 -102 CURVE SMOOTH",
"333 -67 OFFCURVE",
"321 -61 OFFCURVE",
"307 -61 CURVE SMOOTH",
"291 -61 OFFCURVE",
"279 -72 OFFCURVE",
"276 -90 CURVE SMOOTH",
"271 -116 OFFCURVE",
"297 -116 OFFCURVE",
"291 -144 CURVE SMOOTH",
"285 -174 OFFCURVE",
"254 -202 OFFCURVE",
"229 -222 CURVE",
"235 -232 LINE"
);
}
);
width = 641;
}
);
leftKerningGroup = G;
note = Gcommaaccent;
unicode = 0122;
},
{
glyphname = Gdotaccent;
lastChange = "2015-10-22 12:03:08 +0000";
layers = (
{
layerId = "C8730BEE-A5E2-4294-A2BB-9D9AC44EE1E3";
name = "Light Italic";
paths = (
{
closed = 1;
nodes = (
"434 -10 OFFCURVE",
"508 34 OFFCURVE",
"553 72 CURVE",
"597 288 LINE SMOOTH",
"606 332 OFFCURVE",
"629 339 OFFCURVE",
"662 339 CURVE",
"665 353 LINE",
"483 353 LINE",
"480 339 LINE",
"531 335 OFFCURVE",
"577 332 OFFCURVE",
"568 288 CURVE SMOOTH",
"526 82 LINE",
"460 26 OFFCURVE",
"364 14 OFFCURVE",
"310 14 CURVE SMOOTH",
"121 14 OFFCURVE",
"71 156 OFFCURVE",
"110 350 CURVE SMOOTH",
"151 546 OFFCURVE",
"268 686 OFFCURVE",
"453 686 CURVE SMOOTH",
"565 686 OFFCURVE",
"631 622 OFFCURVE",
"620 531 CURVE",
"633 531 LINE",
"668 705 LINE",
"649 705 LINE",
"640 663 LINE SMOOTH",
"637 649 OFFCURVE",
"633 644 OFFCURVE",
"628 644 CURVE SMOOTH",
"625 644 OFFCURVE",
"623 647 OFFCURVE",
"620 649 CURVE",
"601 668 OFFCURVE",
"548 710 OFFCURVE",
"458 710 CURVE SMOOTH",
"273 710 OFFCURVE",
"128 583 OFFCURVE",
"81 350 CURVE SMOOTH",
"33 117 OFFCURVE",
"115 -10 OFFCURVE",
"297 -10 CURVE SMOOTH"
);
},
{
closed = 1;
nodes = (
"492 787 OFFCURVE",
"506 798 OFFCURVE",
"510 817 CURVE SMOOTH",
"514 836 OFFCURVE",
"505 847 OFFCURVE",
"489 847 CURVE SMOOTH",
"472 847 OFFCURVE",
"458 836 OFFCURVE",
"454 817 CURVE SMOOTH",
"450 798 OFFCURVE",
"460 787 OFFCURVE",
"476 787 CURVE SMOOTH"
);
}
);
width = 641;
}
);
leftKerningGroup = G;
note = Gdotaccent;
unicode = 0120;
},
{
glyphname = Gmacron;
lastChange = "2015-10-22 12:03:08 +0000";
layers = (
{
layerId = "C8730BEE-A5E2-4294-A2BB-9D9AC44EE1E3";
name = "Light Italic";
paths = (
{
closed = 1;
nodes = (
"434 -10 OFFCURVE",
"508 34 OFFCURVE",
"553 72 CURVE",
"597 288 LINE SMOOTH",
"606 332 OFFCURVE",
"629 339 OFFCURVE",
"662 339 CURVE",
"665 353 LINE",
"483 353 LINE",
"480 339 LINE",
"531 335 OFFCURVE",
"577 332 OFFCURVE",
"568 288 CURVE SMOOTH",
"526 82 LINE",
"460 26 OFFCURVE",
"364 14 OFFCURVE",
"310 14 CURVE SMOOTH",
"121 14 OFFCURVE",
"71 156 OFFCURVE",
"110 350 CURVE SMOOTH",
"151 546 OFFCURVE",
"268 686 OFFCURVE",
"453 686 CURVE SMOOTH",
"565 686 OFFCURVE",
"631 622 OFFCURVE",
"620 531 CURVE",
"633 531 LINE",
"668 705 LINE",
"649 705 LINE",
"640 663 LINE SMOOTH",
"637 649 OFFCURVE",
"633 644 OFFCURVE",
"628 644 CURVE SMOOTH",
"625 644 OFFCURVE",
"623 647 OFFCURVE",
"620 649 CURVE",
"601 668 OFFCURVE",
"548 710 OFFCURVE",
"458 710 CURVE SMOOTH",
"273 710 OFFCURVE",
"128 583 OFFCURVE",
"81 350 CURVE SMOOTH",
"33 117 OFFCURVE",
"115 -10 OFFCURVE",
"297 -10 CURVE SMOOTH"
);
},
{
closed = 1;
nodes = (
"602 785 LINE",
"607 807 LINE",
"345 807 LINE",
"340 785 LINE"
);
}
);
width = 641;
}
);
leftKerningGroup = G;
note = Gmacron;
unicode = 1E20;
},
{
glyphname = H;
lastChange = "2015-10-22 12:03:09 +0000";
layers = (
{
layerId = "C8730BEE-A5E2-4294-A2BB-9D9AC44EE1E3";
name = "Light Italic";
paths = (
{
closed = 1;
nodes = (
"628 0 LINE",
"630 14 LINE",
"604 14 LINE SMOOTH",
"566 14 OFFCURVE",
"547 23 OFFCURVE",
"552 47 CURVE SMOOTH",
"676 653 LINE SMOOTH",
"681 677 OFFCURVE",
"704 686 OFFCURVE",
"741 686 CURVE SMOOTH",
"767 686 LINE",
"770 700 LINE",
"570 700 LINE",
"567 686 LINE",
"593 686 LINE SMOOTH",
"631 686 OFFCURVE",
"650 677 OFFCURVE",
"645 653 CURVE SMOOTH",
"521 47 LINE SMOOTH",
"516 23 OFFCURVE",
"493 14 OFFCURVE",
"456 14 CURVE SMOOTH",
"430 14 LINE",
"428 0 LINE"
);
},
{
closed = 1;
nodes = (
"190 0 LINE",
"192 14 LINE",
"166 14 LINE SMOOTH",
"129 14 OFFCURVE",
"109 23 OFFCURVE",
"114 47 CURVE SMOOTH",
"238 653 LINE SMOOTH",
"243 677 OFFCURVE",
"266 686 OFFCURVE",
"303 686 CURVE SMOOTH",
"329 686 LINE",
"332 700 LINE",
"132 700 LINE",
"130 686 LINE",
"156 686 LINE SMOOTH",
"193 686 OFFCURVE",
"212 677 OFFCURVE",
"207 653 CURVE SMOOTH",
"84 47 LINE SMOOTH",
"79 23 OFFCURVE",
"56 14 OFFCURVE",
"18 14 CURVE SMOOTH",
"-8 14 LINE",
"-10 0 LINE"
);
},
{
closed = 1;
nodes = (
"605 365 LINE",
"610 389 LINE",
"168 389 LINE",
"163 365 LINE"
);
}
);
width = 695;
}
);
note = H;
unicode = 0048;
},
{
glyphname = Hbar;
lastChange = "2015-10-22 12:03:08 +0000";
layers = (
{
layerId = "C8730BEE-A5E2-4294-A2BB-9D9AC44EE1E3";
name = "Light Italic";
paths = (
{
closed = 1;
nodes = (
"628 0 LINE",
"630 14 LINE",
"604 14 LINE SMOOTH",
"566 14 OFFCURVE",
"547 23 OFFCURVE",
"552 47 CURVE SMOOTH",
"676 653 LINE SMOOTH",
"681 677 OFFCURVE",
"704 686 OFFCURVE",
"741 686 CURVE SMOOTH",
"767 686 LINE",
"770 700 LINE",
"570 700 LINE",
"567 686 LINE",
"593 686 LINE SMOOTH",
"631 686 OFFCURVE",
"650 677 OFFCURVE",
"645 653 CURVE SMOOTH",
"521 47 LINE SMOOTH",
"516 23 OFFCURVE",
"493 14 OFFCURVE",
"456 14 CURVE SMOOTH",
"430 14 LINE",
"428 0 LINE"
);
},
{
closed = 1;
nodes = (
"190 0 LINE",
"192 14 LINE",
"166 14 LINE SMOOTH",
"129 14 OFFCURVE",
"109 23 OFFCURVE",
"114 47 CURVE SMOOTH",
"238 653 LINE SMOOTH",
"243 677 OFFCURVE",
"266 686 OFFCURVE",
"303 686 CURVE SMOOTH",
"329 686 LINE",
"332 700 LINE",
"132 700 LINE",
"130 686 LINE",
"156 686 LINE SMOOTH",
"193 686 OFFCURVE",
"212 677 OFFCURVE",
"207 653 CURVE SMOOTH",
"84 47 LINE SMOOTH",
"79 23 OFFCURVE",
"56 14 OFFCURVE",
"18 14 CURVE SMOOTH",
"-8 14 LINE",
"-10 0 LINE"
);
},
{
closed = 1;
nodes = (
"605 365 LINE",
"610 389 LINE",
"168 389 LINE",
"163 365 LINE"
);
},
{
closed = 1;
nodes = (
"697 519 LINE",
"702 543 LINE",
"119 543 LINE",
"114 519 LINE"
);
}
);
width = 695;
}
);
note = Hbar;
unicode = 0126;
},
{
glyphname = Hbrevebelow;
lastChange = "2015-10-22 12:03:09 +0000";
layers = (
{
layerId = "C8730BEE-A5E2-4294-A2BB-9D9AC44EE1E3";
name = "Light Italic";
paths = (
{
closed = 1;
nodes = (
"628 0 LINE",
"630 14 LINE",
"604 14 LINE SMOOTH",
"566 14 OFFCURVE",
"547 23 OFFCURVE",
"552 47 CURVE SMOOTH",
"676 653 LINE SMOOTH",
"681 677 OFFCURVE",
"704 686 OFFCURVE",
"741 686 CURVE SMOOTH",
"767 686 LINE",
"770 700 LINE",
"570 700 LINE",
"567 686 LINE",
"593 686 LINE SMOOTH",
"631 686 OFFCURVE",
"650 677 OFFCURVE",
"645 653 CURVE SMOOTH",
"521 47 LINE SMOOTH",
"516 23 OFFCURVE",
"493 14 OFFCURVE",
"456 14 CURVE SMOOTH",
"430 14 LINE",
"428 0 LINE"
);
},
{
closed = 1;
nodes = (
"343 -165 OFFCURVE",
"400 -130 OFFCURVE",
"421 -52 CURVE",
"397 -52 LINE",
"373 -131 OFFCURVE",
"318 -140 OFFCURVE",
"281 -140 CURVE SMOOTH",
"244 -140 OFFCURVE",
"192 -131 OFFCURVE",
"199 -52 CURVE",
"175 -52 LINE",
"164 -130 OFFCURVE",
"207 -165 OFFCURVE",
"276 -165 CURVE SMOOTH"
);
},
{
closed = 1;
nodes = (
"190 0 LINE",
"192 14 LINE",
"166 14 LINE SMOOTH",
"129 14 OFFCURVE",
"109 23 OFFCURVE",
"114 47 CURVE SMOOTH",
"238 653 LINE SMOOTH",
"243 677 OFFCURVE",
"266 686 OFFCURVE",
"303 686 CURVE SMOOTH",
"329 686 LINE",
"332 700 LINE",
"132 700 LINE",
"130 686 LINE",
"156 686 LINE SMOOTH",
"193 686 OFFCURVE",
"212 677 OFFCURVE",
"207 653 CURVE SMOOTH",
"84 47 LINE SMOOTH",
"79 23 OFFCURVE",
"56 14 OFFCURVE",
"18 14 CURVE SMOOTH",
"-8 14 LINE",
"-10 0 LINE"
);
},
{
closed = 1;
nodes = (
"605 365 LINE",
"610 389 LINE",
"168 389 LINE",
"163 365 LINE"
);
}
);
width = 695;
}
);
note = Hbrevebelow;
unicode = 1E2A;
},
{
glyphname = Hcircumflex;
lastChange = "2015-10-22 12:03:09 +0000";
layers = (
{
layerId = "C8730BEE-A5E2-4294-A2BB-9D9AC44EE1E3";
name = "Light Italic";
paths = (
{
closed = 1;
nodes = (
"628 0 LINE",
"630 14 LINE",
"604 14 LINE SMOOTH",
"566 14 OFFCURVE",
"547 23 OFFCURVE",
"552 47 CURVE SMOOTH",
"676 653 LINE SMOOTH",
"681 677 OFFCURVE",
"704 686 OFFCURVE",
"741 686 CURVE SMOOTH",
"767 686 LINE",
"770 700 LINE",
"570 700 LINE",
"567 686 LINE",
"593 686 LINE SMOOTH",
"631 686 OFFCURVE",
"650 677 OFFCURVE",
"645 653 CURVE SMOOTH",
"521 47 LINE SMOOTH",
"516 23 OFFCURVE",
"493 14 OFFCURVE",
"456 14 CURVE SMOOTH",
"430 14 LINE",
"428 0 LINE"
);
},
{
closed = 1;
nodes = (
"190 0 LINE",
"192 14 LINE",
"166 14 LINE SMOOTH",
"129 14 OFFCURVE",
"109 23 OFFCURVE",
"114 47 CURVE SMOOTH",
"238 653 LINE SMOOTH",
"243 677 OFFCURVE",
"266 686 OFFCURVE",
"303 686 CURVE SMOOTH",
"329 686 LINE",
"332 700 LINE",
"132 700 LINE",
"130 686 LINE",
"156 686 LINE SMOOTH",
"193 686 OFFCURVE",
"212 677 OFFCURVE",
"207 653 CURVE SMOOTH",
"84 47 LINE SMOOTH",
"79 23 OFFCURVE",
"56 14 OFFCURVE",
"18 14 CURVE SMOOTH",
"-8 14 LINE",
"-10 0 LINE"
);
},
{
closed = 1;
nodes = (
"605 365 LINE",
"610 389 LINE",
"168 389 LINE",
"163 365 LINE"
);
},
{
closed = 1;
nodes = (
"473 862 LINE SMOOTH",
"477 865 OFFCURVE",
"482 867 OFFCURVE",
"485 867 CURVE SMOOTH",
"488 867 OFFCURVE",
"491 865 OFFCURVE",
"494 862 CURVE",
"564 787 LINE",
"580 803 LINE",
"503 899 LINE",
"480 899 LINE",
"363 803 LINE",
"373 787 LINE"
);
}
);
width = 695;
}
);
note = Hcircumflex;
unicode = 0124;
},
{
glyphname = Hdotbelow;
lastChange = "2015-10-22 12:03:09 +0000";
layers = (
{
layerId = "C8730BEE-A5E2-4294-A2BB-9D9AC44EE1E3";
name = "Light Italic";
paths = (
{
closed = 1;
nodes = (
"628 0 LINE",
"630 14 LINE",
"604 14 LINE SMOOTH",
"566 14 OFFCURVE",
"547 23 OFFCURVE",
"552 47 CURVE SMOOTH",
"676 653 LINE SMOOTH",
"681 677 OFFCURVE",
"704 686 OFFCURVE",
"741 686 CURVE SMOOTH",
"767 686 LINE",
"770 700 LINE",
"570 700 LINE",
"567 686 LINE",
"593 686 LINE SMOOTH",
"631 686 OFFCURVE",
"650 677 OFFCURVE",
"645 653 CURVE SMOOTH",
"521 47 LINE SMOOTH",
"516 23 OFFCURVE",
"493 14 OFFCURVE",
"456 14 CURVE SMOOTH",
"430 14 LINE",
"428 0 LINE"
);
},
{
closed = 1;
nodes = (
"300 -124 OFFCURVE",
"314 -113 OFFCURVE",
"319 -94 CURVE",
"323 -75 OFFCURVE",
"313 -64 OFFCURVE",
"297 -64 CURVE SMOOTH",
"280 -64 OFFCURVE",
"267 -75 OFFCURVE",
"263 -94 CURVE",
"258 -113 OFFCURVE",
"268 -124 OFFCURVE",
"284 -124 CURVE SMOOTH"
);
},
{
closed = 1;
nodes = (
"190 0 LINE",
"192 14 LINE",
"166 14 LINE SMOOTH",
"129 14 OFFCURVE",
"109 23 OFFCURVE",
"114 47 CURVE SMOOTH",
"238 653 LINE SMOOTH",
"243 677 OFFCURVE",
"266 686 OFFCURVE",
"303 686 CURVE SMOOTH",
"329 686 LINE",
"332 700 LINE",
"132 700 LINE",
"130 686 LINE",
"156 686 LINE SMOOTH",
"193 686 OFFCURVE",
"212 677 OFFCURVE",
"207 653 CURVE SMOOTH",
"84 47 LINE SMOOTH",
"79 23 OFFCURVE",
"56 14 OFFCURVE",
"18 14 CURVE SMOOTH",
"-8 14 LINE",
"-10 0 LINE"
);
},
{
closed = 1;
nodes = (
"605 365 LINE",
"610 389 LINE",
"168 389 LINE",
"163 365 LINE"
);
}
);
width = 695;
}
);
note = Hdotbelow;
unicode = 1E24;
},
{
glyphname = I;
lastChange = "2015-10-22 12:03:07 +0000";
layers = (
{
layerId = "C8730BEE-A5E2-4294-A2BB-9D9AC44EE1E3";
name = "Light Italic";
paths = (
{
closed = 1;
nodes = (
"193 0 LINE",
"195 14 LINE",
"169 14 LINE SMOOTH",
"132 14 OFFCURVE",
"112 23 OFFCURVE",
"117 47 CURVE SMOOTH",
"241 653 LINE SMOOTH",
"246 677 OFFCURVE",
"269 686 OFFCURVE",
"306 686 CURVE SMOOTH",
"332 686 LINE",
"335 700 LINE",
"135 700 LINE",
"132 686 LINE",
"158 686 LINE SMOOTH",
"196 686 OFFCURVE",
"215 677 OFFCURVE",
"210 653 CURVE SMOOTH",
"86 47 LINE SMOOTH",
"82 23 OFFCURVE",
"59 14 OFFCURVE",
"21 14 CURVE SMOOTH",
"-5 14 LINE",
"-7 0 LINE"
);
}
);
width = 263;
}
);
note = I;
unicode = 0049;
},
{
glyphname = IJ;
lastChange = "2015-10-22 12:03:09 +0000";
layers = (
{
layerId = "C8730BEE-A5E2-4294-A2BB-9D9AC44EE1E3";
name = "Light Italic";
paths = (
{
closed = 1;
nodes = (
"296 -114 OFFCURVE",
"369 -48 OFFCURVE",
"391 58 CURVE SMOOTH",
"512 653 LINE SMOOTH",
"516 677 OFFCURVE",
"540 686 OFFCURVE",
"577 686 CURVE SMOOTH",
"603 686 LINE",
"606 700 LINE",
"406 700 LINE",
"403 686 LINE",
"429 686 LINE SMOOTH",
"467 686 OFFCURVE",
"486 677 OFFCURVE",
"481 653 CURVE SMOOTH",
"360 57 LINE SMOOTH",
"341 -35 OFFCURVE",
"275 -90 OFFCURVE",
"204 -98 CURVE",
"204 -114 LINE"
);
},
{
closed = 1;
nodes = (
"193 0 LINE",
"195 14 LINE",
"169 14 LINE SMOOTH",
"132 14 OFFCURVE",
"112 23 OFFCURVE",
"117 47 CURVE SMOOTH",
"241 653 LINE SMOOTH",
"246 677 OFFCURVE",
"269 686 OFFCURVE",
"306 686 CURVE SMOOTH",
"332 686 LINE",
"335 700 LINE",
"135 700 LINE",
"132 686 LINE",
"158 686 LINE SMOOTH",
"196 686 OFFCURVE",
"215 677 OFFCURVE",
"210 653 CURVE SMOOTH",
"86 47 LINE SMOOTH",
"82 23 OFFCURVE",
"59 14 OFFCURVE",
"21 14 CURVE SMOOTH",
"-5 14 LINE",
"-7 0 LINE"
);
}
);
width = 534;
}
);
note = IJ;
unicode = 0132;
},
{
glyphname = Iacute;
lastChange = "2015-10-22 12:03:09 +0000";
layers = (
{
layerId = "C8730BEE-A5E2-4294-A2BB-9D9AC44EE1E3";
name = "Light Italic";
paths = (
{
closed = 1;
nodes = (
"193 0 LINE",
"195 14 LINE",
"169 14 LINE SMOOTH",
"132 14 OFFCURVE",
"112 23 OFFCURVE",
"117 47 CURVE SMOOTH",
"241 653 LINE SMOOTH",
"246 677 OFFCURVE",
"269 686 OFFCURVE",
"306 686 CURVE SMOOTH",
"332 686 LINE",
"335 700 LINE",
"135 700 LINE",
"132 686 LINE",
"158 686 LINE SMOOTH",
"196 686 OFFCURVE",
"215 677 OFFCURVE",
"210 653 CURVE SMOOTH",
"86 47 LINE SMOOTH",
"82 23 OFFCURVE",
"59 14 OFFCURVE",
"21 14 CURVE SMOOTH",
"-5 14 LINE",
"-7 0 LINE"
);
},
{
closed = 1;
nodes = (
"324 860 LINE",
"337 866 OFFCURVE",
"344 875 OFFCURVE",
"345 883 CURVE",
"347 892 OFFCURVE",
"341 897 OFFCURVE",
"334 897 CURVE SMOOTH",
"324 897 OFFCURVE",
"316 891 OFFCURVE",
"307 885 CURVE SMOOTH",
"186 798 LINE",
"191 788 LINE"
);
}
);
width = 263;
}
);
note = Iacute;
unicode = 00CD;
},
{
glyphname = Ibreve;
lastChange = "2015-10-22 12:03:08 +0000";
layers = (
{
layerId = "C8730BEE-A5E2-4294-A2BB-9D9AC44EE1E3";
name = "Light Italic";
paths = (
{
closed = 1;
nodes = (
"193 0 LINE",
"195 14 LINE",
"169 14 LINE SMOOTH",
"132 14 OFFCURVE",
"112 23 OFFCURVE",
"117 47 CURVE SMOOTH",
"241 653 LINE SMOOTH",
"246 677 OFFCURVE",
"269 686 OFFCURVE",
"306 686 CURVE SMOOTH",
"332 686 LINE",
"335 700 LINE",
"135 700 LINE",
"132 686 LINE",
"158 686 LINE SMOOTH",
"196 686 OFFCURVE",
"215 677 OFFCURVE",
"210 653 CURVE SMOOTH",
"86 47 LINE SMOOTH",
"82 23 OFFCURVE",
"59 14 OFFCURVE",
"21 14 CURVE SMOOTH",
"-5 14 LINE",
"-7 0 LINE"
);
},
{
closed = 1;
nodes = (
"319 776 OFFCURVE",
"375 811 OFFCURVE",
"397 889 CURVE",
"373 889 LINE",
"348 810 OFFCURVE",
"293 801 OFFCURVE",
"255 801 CURVE SMOOTH",
"218 801 OFFCURVE",
"166 810 OFFCURVE",
"174 889 CURVE",
"150 889 LINE",
"138 811 OFFCURVE",
"182 776 OFFCURVE",
"251 776 CURVE SMOOTH"
);
}
);
width = 263;
}
);
note = Ibreve;
unicode = 012C;
},
{
glyphname = Icaron;
lastChange = "2015-10-22 12:03:09 +0000";
layers = (
{
layerId = "C8730BEE-A5E2-4294-A2BB-9D9AC44EE1E3";
name = "Light Italic";
paths = (
{
closed = 1;
nodes = (
"193 0 LINE",
"195 14 LINE",
"169 14 LINE SMOOTH",
"132 14 OFFCURVE",
"112 23 OFFCURVE",
"117 47 CURVE SMOOTH",
"241 653 LINE SMOOTH",
"246 677 OFFCURVE",
"269 686 OFFCURVE",
"306 686 CURVE SMOOTH",
"332 686 LINE",
"335 700 LINE",
"135 700 LINE",
"132 686 LINE",
"158 686 LINE SMOOTH",
"196 686 OFFCURVE",
"215 677 OFFCURVE",
"210 653 CURVE SMOOTH",
"86 47 LINE SMOOTH",
"82 23 OFFCURVE",
"59 14 OFFCURVE",
"21 14 CURVE SMOOTH",
"-5 14 LINE",
"-7 0 LINE"
);
},
{
closed = 1;
nodes = (
"264 787 LINE",
"380 883 LINE",
"371 899 LINE",
"271 824 LINE",
"266 821 OFFCURVE",
"262 819 OFFCURVE",
"259 819 CURVE SMOOTH",
"256 819 OFFCURVE",
"252 821 OFFCURVE",
"250 824 CURVE SMOOTH",
"180 899 LINE",
"163 883 LINE",
"241 787 LINE"
);
}
);
width = 263;
}
);
note = Icaron;
unicode = 01CF;
},
{
glyphname = Icircumflex;
lastChange = "2015-10-22 12:03:08 +0000";
layers = (
{
layerId = "C8730BEE-A5E2-4294-A2BB-9D9AC44EE1E3";
name = "Light Italic";
paths = (
{
closed = 1;
nodes = (
"193 0 LINE",
"195 14 LINE",
"169 14 LINE SMOOTH",
"132 14 OFFCURVE",
"112 23 OFFCURVE",
"117 47 CURVE SMOOTH",
"241 653 LINE SMOOTH",
"246 677 OFFCURVE",
"269 686 OFFCURVE",
"306 686 CURVE SMOOTH",
"332 686 LINE",
"335 700 LINE",
"135 700 LINE",
"132 686 LINE",
"158 686 LINE SMOOTH",
"196 686 OFFCURVE",
"215 677 OFFCURVE",
"210 653 CURVE SMOOTH",
"86 47 LINE SMOOTH",
"82 23 OFFCURVE",
"59 14 OFFCURVE",
"21 14 CURVE SMOOTH",
"-5 14 LINE",
"-7 0 LINE"
);
},
{
closed = 1;
nodes = (
"257 862 LINE SMOOTH",
"261 865 OFFCURVE",
"266 867 OFFCURVE",
"269 867 CURVE SMOOTH",
"272 867 OFFCURVE",
"275 865 OFFCURVE",
"278 862 CURVE",
"348 787 LINE",
"364 803 LINE",
"287 899 LINE",
"264 899 LINE",
"147 803 LINE",
"157 787 LINE"
);
}
);
width = 263;
}
);
note = Icircumflex;
unicode = 00CE;
},
{
glyphname = Idieresis;
lastChange = "2015-10-22 12:03:09 +0000";
layers = (
{
layerId = "C8730BEE-A5E2-4294-A2BB-9D9AC44EE1E3";
name = "Light Italic";
paths = (
{
closed = 1;
nodes = (
"193 0 LINE",
"195 14 LINE",
"169 14 LINE SMOOTH",
"132 14 OFFCURVE",
"112 23 OFFCURVE",
"117 47 CURVE SMOOTH",
"241 653 LINE SMOOTH",
"246 677 OFFCURVE",
"269 686 OFFCURVE",
"306 686 CURVE SMOOTH",
"332 686 LINE",
"335 700 LINE",
"135 700 LINE",
"132 686 LINE",
"158 686 LINE SMOOTH",
"196 686 OFFCURVE",
"215 677 OFFCURVE",
"210 653 CURVE SMOOTH",
"86 47 LINE SMOOTH",
"82 23 OFFCURVE",
"59 14 OFFCURVE",
"21 14 CURVE SMOOTH",
"-5 14 LINE",
"-7 0 LINE"
);
},
{
closed = 1;
nodes = (
"174 785 OFFCURVE",
"188 796 OFFCURVE",
"192 815 CURVE SMOOTH",
"196 834 OFFCURVE",
"186 845 OFFCURVE",
"170 845 CURVE SMOOTH",
"154 845 OFFCURVE",
"140 834 OFFCURVE",
"136 815 CURVE",
"133 796 OFFCURVE",
"141 785 OFFCURVE",
"157 785 CURVE SMOOTH"
);
},
{
closed = 1;
nodes = (
"362 785 OFFCURVE",
"376 796 OFFCURVE",
"380 815 CURVE SMOOTH",
"384 834 OFFCURVE",
"374 845 OFFCURVE",
"358 845 CURVE SMOOTH",
"342 845 OFFCURVE",
"328 834 OFFCURVE",
"324 815 CURVE SMOOTH",
"321 796 OFFCURVE",
"329 785 OFFCURVE",
"346 785 CURVE SMOOTH"
);
}
);
width = 263;
}
);
note = Idieresis;
unicode = 00CF;
},
{
glyphname = Idotaccent;
lastChange = "2015-10-22 12:03:08 +0000";
layers = (
{
layerId = "C8730BEE-A5E2-4294-A2BB-9D9AC44EE1E3";
name = "Light Italic";
paths = (
{
closed = 1;
nodes = (
"193 0 LINE",
"195 14 LINE",
"169 14 LINE SMOOTH",
"132 14 OFFCURVE",
"112 23 OFFCURVE",
"117 47 CURVE SMOOTH",
"241 653 LINE SMOOTH",
"246 677 OFFCURVE",
"269 686 OFFCURVE",
"306 686 CURVE SMOOTH",
"332 686 LINE",
"335 700 LINE",
"135 700 LINE",
"132 686 LINE",
"158 686 LINE SMOOTH",
"196 686 OFFCURVE",
"215 677 OFFCURVE",
"210 653 CURVE SMOOTH",
"86 47 LINE SMOOTH",
"82 23 OFFCURVE",
"59 14 OFFCURVE",
"21 14 CURVE SMOOTH",
"-5 14 LINE",
"-7 0 LINE"
);
},
{
closed = 1;
nodes = (
"263 759 OFFCURVE",
"276 770 OFFCURVE",
"280 789 CURVE SMOOTH",
"284 808 OFFCURVE",
"276 819 OFFCURVE",
"259 819 CURVE SMOOTH",
"243 819 OFFCURVE",
"228 808 OFFCURVE",
"225 789 CURVE SMOOTH",
"221 770 OFFCURVE",
"230 759 OFFCURVE",
"247 759 CURVE SMOOTH"
);
}
);
width = 263;
}
);
note = Idotaccent;
unicode = 0130;
},
{
glyphname = Idotbelow;
lastChange = "2015-10-22 12:03:08 +0000";
layers = (
{
layerId = "C8730BEE-A5E2-4294-A2BB-9D9AC44EE1E3";
name = "Light Italic";
paths = (
{
closed = 1;
nodes = (
"193 0 LINE",
"195 14 LINE",
"169 14 LINE SMOOTH",
"132 14 OFFCURVE",
"112 23 OFFCURVE",
"117 47 CURVE SMOOTH",
"241 653 LINE SMOOTH",
"246 677 OFFCURVE",
"269 686 OFFCURVE",
"306 686 CURVE SMOOTH",
"332 686 LINE",
"335 700 LINE",
"135 700 LINE",
"132 686 LINE",
"158 686 LINE SMOOTH",
"196 686 OFFCURVE",
"215 677 OFFCURVE",
"210 653 CURVE SMOOTH",
"86 47 LINE SMOOTH",
"82 23 OFFCURVE",
"59 14 OFFCURVE",
"21 14 CURVE SMOOTH",
"-5 14 LINE",
"-7 0 LINE"
);
},
{
closed = 1;
nodes = (
"84 -124 OFFCURVE",
"98 -113 OFFCURVE",
"103 -94 CURVE",
"107 -75 OFFCURVE",
"97 -64 OFFCURVE",
"81 -64 CURVE SMOOTH",
"64 -64 OFFCURVE",
"51 -75 OFFCURVE",
"47 -94 CURVE",
"42 -113 OFFCURVE",
"52 -124 OFFCURVE",
"68 -124 CURVE SMOOTH"
);
}
);
width = 263;
}
);
note = Idotbelow;
unicode = 1ECA;
},
{
glyphname = Igrave;
lastChange = "2015-10-22 12:03:09 +0000";
layers = (
{
layerId = "C8730BEE-A5E2-4294-A2BB-9D9AC44EE1E3";
name = "Light Italic";
paths = (
{
closed = 1;
nodes = (
"193 0 LINE",
"195 14 LINE",
"169 14 LINE SMOOTH",
"132 14 OFFCURVE",
"112 23 OFFCURVE",
"117 47 CURVE SMOOTH",
"241 653 LINE SMOOTH",
"246 677 OFFCURVE",
"269 686 OFFCURVE",
"306 686 CURVE SMOOTH",
"332 686 LINE",
"335 700 LINE",
"135 700 LINE",
"132 686 LINE",
"158 686 LINE SMOOTH",
"196 686 OFFCURVE",
"215 677 OFFCURVE",
"210 653 CURVE SMOOTH",
"86 47 LINE SMOOTH",
"82 23 OFFCURVE",
"59 14 OFFCURVE",
"21 14 CURVE SMOOTH",
"-5 14 LINE",
"-7 0 LINE"
);
},
{
closed = 1;
nodes = (
"325 798 LINE",
"241 885 LINE",
"234 891 OFFCURVE",
"228 897 OFFCURVE",
"218 897 CURVE SMOOTH",
"211 897 OFFCURVE",
"204 892 OFFCURVE",
"202 883 CURVE",
"201 875 OFFCURVE",
"204 866 OFFCURVE",
"212 860 CURVE SMOOTH",
"317 788 LINE"
);
}
);
width = 263;
}
);
note = Igrave;
unicode = 00CC;
},
{
glyphname = Ihookabove;
lastChange = "2015-10-22 12:03:08 +0000";
layers = (
{
layerId = "C8730BEE-A5E2-4294-A2BB-9D9AC44EE1E3";
name = "Light Italic";
paths = (
{
closed = 1;
nodes = (
"193 0 LINE",
"195 14 LINE",
"169 14 LINE SMOOTH",
"132 14 OFFCURVE",
"112 23 OFFCURVE",
"117 47 CURVE SMOOTH",
"241 653 LINE SMOOTH",
"246 677 OFFCURVE",
"269 686 OFFCURVE",
"306 686 CURVE SMOOTH",
"332 686 LINE",
"335 700 LINE",
"135 700 LINE",
"132 686 LINE",
"158 686 LINE SMOOTH",
"196 686 OFFCURVE",
"215 677 OFFCURVE",
"210 653 CURVE SMOOTH",
"86 47 LINE SMOOTH",
"82 23 OFFCURVE",
"59 14 OFFCURVE",
"21 14 CURVE SMOOTH",
"-5 14 LINE",
"-7 0 LINE"
);
},
{
closed = 1;
nodes = (
"288 794 LINE",
"273 799 OFFCURVE",
"264 802 OFFCURVE",
"268 821 CURVE SMOOTH",
"275 851 OFFCURVE",
"350 869 OFFCURVE",
"360 915 CURVE SMOOTH",
"368 951 OFFCURVE",
"341 966 OFFCURVE",
"303 966 CURVE SMOOTH",
"265 966 OFFCURVE",
"232 949 OFFCURVE",
"228 924 CURVE SMOOTH",
"225 910 OFFCURVE",
"228 905 OFFCURVE",
"237 905 CURVE SMOOTH",
"249 905 OFFCURVE",
"252 910 OFFCURVE",
"260 927 CURVE SMOOTH",
"268 942 OFFCURVE",
"286 947 OFFCURVE",
"301 947 CURVE SMOOTH",
"328 947 OFFCURVE",
"334 933 OFFCURVE",
"331 917 CURVE SMOOTH",
"323 876 OFFCURVE",
"248 863 OFFCURVE",
"239 821 CURVE SMOOTH",
"234 797 OFFCURVE",
"248 779 OFFCURVE",
"278 779 CURVE"
);
}
);
width = 263;
}
);
note = Ihookabove;
unicode = 1EC8;
},
{
glyphname = Imacron;
lastChange = "2015-10-22 12:03:08 +0000";
layers = (
{
layerId = "C8730BEE-A5E2-4294-A2BB-9D9AC44EE1E3";
name = "Light Italic";
paths = (
{
closed = 1;
nodes = (
"193 0 LINE",
"195 14 LINE",
"169 14 LINE SMOOTH",
"132 14 OFFCURVE",
"112 23 OFFCURVE",
"117 47 CURVE SMOOTH",
"241 653 LINE SMOOTH",
"246 677 OFFCURVE",
"269 686 OFFCURVE",
"306 686 CURVE SMOOTH",
"332 686 LINE",
"335 700 LINE",
"135 700 LINE",
"132 686 LINE",
"158 686 LINE SMOOTH",
"196 686 OFFCURVE",
"215 677 OFFCURVE",
"210 653 CURVE SMOOTH",
"86 47 LINE SMOOTH",
"82 23 OFFCURVE",
"59 14 OFFCURVE",
"21 14 CURVE SMOOTH",
"-5 14 LINE",
"-7 0 LINE"
);
},
{
closed = 1;
nodes = (
"414 786 LINE",
"419 808 LINE",
"99 808 LINE",
"94 786 LINE"
);
}
);
width = 263;
}
);
note = Imacron;
unicode = 012A;
},
{
glyphname = Iogonek;
lastChange = "2015-10-22 12:03:09 +0000";
layers = (
{
layerId = "C8730BEE-A5E2-4294-A2BB-9D9AC44EE1E3";
name = "Light Italic";
paths = (
{
closed = 1;
nodes = (
"193 0 LINE",
"195 14 LINE",
"169 14 LINE SMOOTH",
"132 14 OFFCURVE",
"112 23 OFFCURVE",
"117 47 CURVE SMOOTH",
"241 653 LINE SMOOTH",
"246 677 OFFCURVE",
"269 686 OFFCURVE",
"306 686 CURVE SMOOTH",
"332 686 LINE",
"335 700 LINE",
"135 700 LINE",
"132 686 LINE",
"158 686 LINE SMOOTH",
"196 686 OFFCURVE",
"215 677 OFFCURVE",
"210 653 CURVE SMOOTH",
"86 47 LINE SMOOTH",
"82 23 OFFCURVE",
"59 14 OFFCURVE",
"21 14 CURVE SMOOTH",
"-5 14 LINE",
"-7 0 LINE"
);
},
{
closed = 1;
nodes = (
"126 -166 OFFCURVE",
"139 -163 OFFCURVE",
"160 -157 CURVE",
"164 -141 LINE",
"147 -146 OFFCURVE",
"134 -148 OFFCURVE",
"122 -148 CURVE SMOOTH",
"92 -148 OFFCURVE",
"67 -135 OFFCURVE",
"75 -97 CURVE SMOOTH",
"83 -57 OFFCURVE",
"119 -20 OFFCURVE",
"162 0 CURVE",
"137 0 LINE",
"91 -20 OFFCURVE",
"58 -54 OFFCURVE",
"49 -98 CURVE SMOOTH",
"42 -128 OFFCURVE",
"52 -166 OFFCURVE",
"106 -166 CURVE SMOOTH"
);
}
);
width = 263;
}
);
note = Iogonek;
unicode = 012E;
},
{
glyphname = Itilde;
lastChange = "2015-10-22 12:03:09 +0000";
layers = (
{
layerId = "C8730BEE-A5E2-4294-A2BB-9D9AC44EE1E3";
name = "Light Italic";
paths = (
{
closed = 1;
nodes = (
"193 0 LINE",
"195 14 LINE",
"169 14 LINE SMOOTH",
"132 14 OFFCURVE",
"112 23 OFFCURVE",
"117 47 CURVE SMOOTH",
"241 653 LINE SMOOTH",
"246 677 OFFCURVE",
"269 686 OFFCURVE",
"306 686 CURVE SMOOTH",
"332 686 LINE",
"335 700 LINE",
"135 700 LINE",
"132 686 LINE",
"158 686 LINE SMOOTH",
"196 686 OFFCURVE",
"215 677 OFFCURVE",
"210 653 CURVE SMOOTH",
"86 47 LINE SMOOTH",
"82 23 OFFCURVE",
"59 14 OFFCURVE",
"21 14 CURVE SMOOTH",
"-5 14 LINE",
"-7 0 LINE"
);
},
{
closed = 1;
nodes = (
"152 824 OFFCURVE",
"175 848 OFFCURVE",
"203 848 CURVE SMOOTH",
"242 848 OFFCURVE",
"272 788 OFFCURVE",
"313 788 CURVE SMOOTH",
"352 788 OFFCURVE",
"383 815 OFFCURVE",
"403 871 CURVE",
"390 878 LINE",
"372 838 OFFCURVE",
"351 812 OFFCURVE",
"321 812 CURVE SMOOTH",
"283 812 OFFCURVE",
"251 871 OFFCURVE",
"209 871 CURVE SMOOTH",
"175 871 OFFCURVE",
"140 849 OFFCURVE",
"122 794 CURVE",
"134 786 LINE"
);
}
);
width = 263;
}
);
note = Itilde;
unicode = 0128;
},
{
glyphname = J;
lastChange = "2015-10-22 12:03:07 +0000";
layers = (
{
layerId = "C8730BEE-A5E2-4294-A2BB-9D9AC44EE1E3";
name = "Light Italic";
paths = (
{
closed = 1;
nodes = (
"58 -114 OFFCURVE",
"131 -48 OFFCURVE",
"153 58 CURVE SMOOTH",
"274 653 LINE SMOOTH",
"278 677 OFFCURVE",
"301 686 OFFCURVE",
"339 686 CURVE SMOOTH",
"365 686 LINE",
"368 700 LINE",
"168 700 LINE",
"165 686 LINE",
"191 686 LINE SMOOTH",
"228 686 OFFCURVE",
"248 677 OFFCURVE",
"243 653 CURVE SMOOTH",
"122 57 LINE SMOOTH",
"103 -35 OFFCURVE",
"36 -90 OFFCURVE",
"-34 -98 CURVE",
"-35 -114 LINE"
);
}
);
width = 296;
}
);
note = J;
unicode = 004A;
},
{
glyphname = Jcircumflex;
lastChange = "2015-10-22 12:03:08 +0000";
layers = (
{
layerId = "C8730BEE-A5E2-4294-A2BB-9D9AC44EE1E3";
name = "Light Italic";
paths = (
{
closed = 1;
nodes = (
"58 -114 OFFCURVE",
"131 -48 OFFCURVE",
"153 58 CURVE SMOOTH",
"274 653 LINE SMOOTH",
"278 677 OFFCURVE",
"301 686 OFFCURVE",
"339 686 CURVE SMOOTH",
"365 686 LINE",
"368 700 LINE",
"168 700 LINE",
"165 686 LINE",
"191 686 LINE SMOOTH",
"228 686 OFFCURVE",
"248 677 OFFCURVE",
"243 653 CURVE SMOOTH",
"122 57 LINE SMOOTH",
"103 -35 OFFCURVE",
"36 -90 OFFCURVE",
"-34 -98 CURVE",
"-35 -114 LINE"
);
},
{
closed = 1;
nodes = (
"297 890 LINE SMOOTH",
"300 893 OFFCURVE",
"305 895 OFFCURVE",
"308 895 CURVE SMOOTH",
"311 895 OFFCURVE",
"314 893 OFFCURVE",
"318 890 CURVE",
"387 815 LINE",
"403 831 LINE",
"326 927 LINE",
"303 927 LINE",
"186 831 LINE",
"197 815 LINE"
);
}
);
width = 296;
}
);
note = Jcircumflex;
unicode = 0134;
},
{
glyphname = K;
lastChange = "2015-10-22 12:03:09 +0000";
layers = (
{
layerId = "C8730BEE-A5E2-4294-A2BB-9D9AC44EE1E3";
name = "Light Italic";
paths = (
{
closed = 1;
nodes = (
"190 0 LINE",
"192 14 LINE",
"166 14 LINE SMOOTH",
"129 14 OFFCURVE",
"109 23 OFFCURVE",
"114 47 CURVE SMOOTH",
"238 653 LINE SMOOTH",
"243 677 OFFCURVE",
"266 686 OFFCURVE",
"303 686 CURVE SMOOTH",
"329 686 LINE",
"332 700 LINE",
"132 700 LINE",
"130 686 LINE",
"156 686 LINE SMOOTH",
"193 686 OFFCURVE",
"212 677 OFFCURVE",
"207 653 CURVE SMOOTH",
"84 47 LINE SMOOTH",
"79 23 OFFCURVE",
"56 14 OFFCURVE",
"18 14 CURVE SMOOTH",
"-8 14 LINE",
"-10 0 LINE"
);
},
{
closed = 1;
nodes = (
"540 0 LINE",
"541 14 LINE",
"513 14 LINE SMOOTH",
"481 14 OFFCURVE",
"471 27 OFFCURVE",
"460 42 CURVE SMOOTH",
"206 372 LINE",
"180 350 LINE",
"449 0 LINE"
);
},
{
closed = 1;
nodes = (
"578 658 LINE",
"595 674 OFFCURVE",
"611 686 OFFCURVE",
"642 686 CURVE SMOOTH",
"656 686 LINE",
"659 700 LINE",
"499 700 LINE",
"496 686 LINE",
"511 686 LINE SMOOTH",
"535 686 OFFCURVE",
"548 681 OFFCURVE",
"545 667 CURVE",
"545 664 OFFCURVE",
"543 660 OFFCURVE",
"539 656 CURVE",
"188 387 LINE",
"180 350 LINE"
);
}
);
width = 594;
}
);
note = K;
rightKerningGroup = K;
unicode = 004B;
},
{
glyphname = Kcommaaccent;
lastChange = "2015-10-22 12:03:08 +0000";
layers = (
{
layerId = "C8730BEE-A5E2-4294-A2BB-9D9AC44EE1E3";
name = "Light Italic";
paths = (
{
closed = 1;
nodes = (
"190 0 LINE",
"192 14 LINE",
"166 14 LINE SMOOTH",
"129 14 OFFCURVE",
"109 23 OFFCURVE",
"114 47 CURVE SMOOTH",
"238 653 LINE SMOOTH",
"243 677 OFFCURVE",
"266 686 OFFCURVE",
"303 686 CURVE SMOOTH",
"329 686 LINE",
"332 700 LINE",
"132 700 LINE",
"130 686 LINE",
"156 686 LINE SMOOTH",
"193 686 OFFCURVE",
"212 677 OFFCURVE",
"207 653 CURVE SMOOTH",
"84 47 LINE SMOOTH",
"79 23 OFFCURVE",
"56 14 OFFCURVE",
"18 14 CURVE SMOOTH",
"-8 14 LINE",
"-10 0 LINE"
);
},
{
closed = 1;
nodes = (
"260 -194 OFFCURVE",
"289 -150 OFFCURVE",
"299 -102 CURVE SMOOTH",
"305 -67 OFFCURVE",
"293 -61 OFFCURVE",
"279 -61 CURVE SMOOTH",
"263 -61 OFFCURVE",
"252 -72 OFFCURVE",
"248 -90 CURVE SMOOTH",
"243 -116 OFFCURVE",
"269 -116 OFFCURVE",
"263 -144 CURVE SMOOTH",
"257 -174 OFFCURVE",
"227 -202 OFFCURVE",
"202 -222 CURVE",
"207 -232 LINE"
);
},
{
closed = 1;
nodes = (
"540 0 LINE",
"541 14 LINE",
"513 14 LINE SMOOTH",
"481 14 OFFCURVE",
"471 27 OFFCURVE",
"460 42 CURVE SMOOTH",
"206 372 LINE",
"180 350 LINE",
"449 0 LINE"
);
},
{
closed = 1;
nodes = (
"578 658 LINE",
"595 674 OFFCURVE",
"611 686 OFFCURVE",
"642 686 CURVE SMOOTH",
"656 686 LINE",
"659 700 LINE",
"499 700 LINE",
"496 686 LINE",
"511 686 LINE SMOOTH",
"535 686 OFFCURVE",
"548 681 OFFCURVE",
"545 667 CURVE",
"545 664 OFFCURVE",
"543 660 OFFCURVE",
"539 656 CURVE",
"188 387 LINE",
"180 350 LINE"
);
}
);
width = 594;
}
);
note = Kcommaaccent;
rightKerningGroup = K;
unicode = 0136;
},
{
glyphname = L;
lastChange = "2015-10-22 12:03:07 +0000";
layers = (
{
layerId = "C8730BEE-A5E2-4294-A2BB-9D9AC44EE1E3";
name = "Light Italic";
paths = (
{
closed = 1;
nodes = (
"433 0 LINE",
"480 166 LINE",
"468 166 LINE",
"456 123 OFFCURVE",
"420 24 OFFCURVE",
"364 24 CURVE SMOOTH",
"169 24 LINE SMOOTH",
"132 24 OFFCURVE",
"112 33 OFFCURVE",
"117 57 CURVE SMOOTH",
"238 653 LINE SMOOTH",
"243 677 OFFCURVE",
"266 686 OFFCURVE",
"303 686 CURVE SMOOTH",
"329 686 LINE",
"332 700 LINE",
"132 700 LINE",
"130 686 LINE",
"156 686 LINE SMOOTH",
"193 686 OFFCURVE",
"212 677 OFFCURVE",
"207 653 CURVE SMOOTH",
"84 47 LINE SMOOTH",
"79 23 OFFCURVE",
"56 14 OFFCURVE",
"18 14 CURVE SMOOTH",
"-8 14 LINE",
"-10 0 LINE"
);
}
);
width = 504;
}
);
note = L;
rightKerningGroup = L;
unicode = 004C;
},
{
glyphname = Lacute;
lastChange = "2015-10-22 12:03:09 +0000";
layers = (
{
layerId = "C8730BEE-A5E2-4294-A2BB-9D9AC44EE1E3";
name = "Light Italic";
paths = (
{
closed = 1;
nodes = (
"433 0 LINE",
"480 166 LINE",
"468 166 LINE",
"456 123 OFFCURVE",
"420 24 OFFCURVE",
"364 24 CURVE SMOOTH",
"169 24 LINE SMOOTH",
"132 24 OFFCURVE",
"112 33 OFFCURVE",
"117 57 CURVE SMOOTH",
"238 653 LINE SMOOTH",
"243 677 OFFCURVE",
"266 686 OFFCURVE",
"303 686 CURVE SMOOTH",
"329 686 LINE",
"332 700 LINE",
"132 700 LINE",
"130 686 LINE",
"156 686 LINE SMOOTH",
"193 686 OFFCURVE",
"212 677 OFFCURVE",
"207 653 CURVE SMOOTH",
"84 47 LINE SMOOTH",
"79 23 OFFCURVE",
"56 14 OFFCURVE",
"18 14 CURVE SMOOTH",
"-8 14 LINE",
"-10 0 LINE"
);
},
{
closed = 1;
nodes = (
"383 860 LINE",
"396 866 OFFCURVE",
"402 875 OFFCURVE",
"403 883 CURVE",
"405 892 OFFCURVE",
"399 897 OFFCURVE",
"393 897 CURVE SMOOTH",
"383 897 OFFCURVE",
"374 891 OFFCURVE",
"366 885 CURVE SMOOTH",
"245 798 LINE",
"250 788 LINE"
);
}
);
width = 504;
}
);
note = Lacute;
rightKerningGroup = L;
unicode = 0139;
},
{
glyphname = Lcaron;
lastChange = "2015-10-22 12:03:09 +0000";
layers = (
{
layerId = "C8730BEE-A5E2-4294-A2BB-9D9AC44EE1E3";
name = "Light Italic";
paths = (
{
closed = 1;
nodes = (
"433 0 LINE",
"480 166 LINE",
"468 166 LINE",
"456 123 OFFCURVE",
"420 24 OFFCURVE",
"364 24 CURVE SMOOTH",
"169 24 LINE SMOOTH",
"132 24 OFFCURVE",
"112 33 OFFCURVE",
"117 57 CURVE SMOOTH",
"238 653 LINE SMOOTH",
"243 677 OFFCURVE",
"266 686 OFFCURVE",
"303 686 CURVE SMOOTH",
"329 686 LINE",
"332 700 LINE",
"132 700 LINE",
"130 686 LINE",
"156 686 LINE SMOOTH",
"193 686 OFFCURVE",
"212 677 OFFCURVE",
"207 653 CURVE SMOOTH",
"84 47 LINE SMOOTH",
"79 23 OFFCURVE",
"56 14 OFFCURVE",
"18 14 CURVE SMOOTH",
"-8 14 LINE",
"-10 0 LINE"
);
},
{
closed = 1;
nodes = (
"434 572 OFFCURVE",
"463 616 OFFCURVE",
"472 664 CURVE SMOOTH",
"479 699 OFFCURVE",
"467 705 OFFCURVE",
"453 705 CURVE SMOOTH",
"437 705 OFFCURVE",
"425 694 OFFCURVE",
"421 676 CURVE SMOOTH",
"417 650 OFFCURVE",
"443 650 OFFCURVE",
"437 622 CURVE SMOOTH",
"431 592 OFFCURVE",
"400 564 OFFCURVE",
"375 544 CURVE",
"381 534 LINE"
);
}
);
width = 504;
}
);
note = Lcaron;
rightKerningGroup = L;
unicode = 013D;
},
{
glyphname = Lcommaaccent;
lastChange = "2015-10-22 12:03:09 +0000";
layers = (
{
layerId = "C8730BEE-A5E2-4294-A2BB-9D9AC44EE1E3";
name = "Light Italic";
paths = (
{
closed = 1;
nodes = (
"433 0 LINE",
"480 166 LINE",
"468 166 LINE",
"456 123 OFFCURVE",
"420 24 OFFCURVE",
"364 24 CURVE SMOOTH",
"169 24 LINE SMOOTH",
"132 24 OFFCURVE",
"112 33 OFFCURVE",
"117 57 CURVE SMOOTH",
"238 653 LINE SMOOTH",
"243 677 OFFCURVE",
"266 686 OFFCURVE",
"303 686 CURVE SMOOTH",
"329 686 LINE",
"332 700 LINE",
"132 700 LINE",
"130 686 LINE",
"156 686 LINE SMOOTH",
"193 686 OFFCURVE",
"212 677 OFFCURVE",
"207 653 CURVE SMOOTH",
"84 47 LINE SMOOTH",
"79 23 OFFCURVE",
"56 14 OFFCURVE",
"18 14 CURVE SMOOTH",
"-8 14 LINE",
"-10 0 LINE"
);
},
{
closed = 1;
nodes = (
"187 -194 OFFCURVE",
"216 -150 OFFCURVE",
"226 -102 CURVE SMOOTH",
"232 -67 OFFCURVE",
"220 -61 OFFCURVE",
"206 -61 CURVE SMOOTH",
"190 -61 OFFCURVE",
"179 -72 OFFCURVE",
"175 -90 CURVE SMOOTH",
"170 -116 OFFCURVE",
"196 -116 OFFCURVE",
"190 -144 CURVE SMOOTH",
"184 -174 OFFCURVE",
"154 -202 OFFCURVE",
"129 -222 CURVE",
"134 -232 LINE"
);
}
);
width = 504;
}
);
note = Lcommaaccent;
rightKerningGroup = L;
unicode = 013B;
},
{
glyphname = Ldot;
lastChange = "2015-10-22 12:03:09 +0000";
layers = (
{
layerId = "C8730BEE-A5E2-4294-A2BB-9D9AC44EE1E3";
name = "Light Italic";
paths = (
{
closed = 1;
nodes = (
"433 0 LINE",
"480 166 LINE",
"468 166 LINE",
"456 123 OFFCURVE",
"420 24 OFFCURVE",
"364 24 CURVE SMOOTH",
"169 24 LINE SMOOTH",
"132 24 OFFCURVE",
"112 33 OFFCURVE",
"117 57 CURVE SMOOTH",
"238 653 LINE SMOOTH",
"243 677 OFFCURVE",
"266 686 OFFCURVE",
"303 686 CURVE SMOOTH",
"329 686 LINE",
"332 700 LINE",
"132 700 LINE",
"130 686 LINE",
"156 686 LINE SMOOTH",
"193 686 OFFCURVE",
"212 677 OFFCURVE",
"207 653 CURVE SMOOTH",
"84 47 LINE SMOOTH",
"79 23 OFFCURVE",
"56 14 OFFCURVE",
"18 14 CURVE SMOOTH",
"-8 14 LINE",
"-10 0 LINE"
);
},
{
closed = 1;
nodes = (
"343 309 OFFCURVE",
"356 320 OFFCURVE",
"360 339 CURVE SMOOTH",
"364 358 OFFCURVE",
"355 369 OFFCURVE",
"339 369 CURVE SMOOTH",
"323 369 OFFCURVE",
"308 358 OFFCURVE",
"304 339 CURVE SMOOTH",
"300 320 OFFCURVE",
"310 309 OFFCURVE",
"326 309 CURVE SMOOTH"
);
}
);
width = 504;
}
);
note = Ldot;
rightKerningGroup = L;
unicode = 013F;
},
{
glyphname = Ldotbelow;
lastChange = "2015-10-22 12:03:09 +0000";
layers = (
{
layerId = "C8730BEE-A5E2-4294-A2BB-9D9AC44EE1E3";
name = "Light Italic";
paths = (
{
closed = 1;
nodes = (
"433 0 LINE",
"480 166 LINE",
"468 166 LINE",
"456 123 OFFCURVE",
"420 24 OFFCURVE",
"364 24 CURVE SMOOTH",
"169 24 LINE SMOOTH",
"132 24 OFFCURVE",
"112 33 OFFCURVE",
"117 57 CURVE SMOOTH",
"238 653 LINE SMOOTH",
"243 677 OFFCURVE",
"266 686 OFFCURVE",
"303 686 CURVE SMOOTH",
"329 686 LINE",
"332 700 LINE",
"132 700 LINE",
"130 686 LINE",
"156 686 LINE SMOOTH",
"193 686 OFFCURVE",
"212 677 OFFCURVE",
"207 653 CURVE SMOOTH",
"84 47 LINE SMOOTH",
"79 23 OFFCURVE",
"56 14 OFFCURVE",
"18 14 CURVE SMOOTH",
"-8 14 LINE",
"-10 0 LINE"
);
},
{
closed = 1;
nodes = (
"244 -113 OFFCURVE",
"258 -102 OFFCURVE",
"262 -83 CURVE SMOOTH",
"266 -64 OFFCURVE",
"255 -53 OFFCURVE",
"239 -53 CURVE SMOOTH",
"224 -53 OFFCURVE",
"209 -64 OFFCURVE",
"205 -83 CURVE SMOOTH",
"202 -102 OFFCURVE",
"212 -113 OFFCURVE",
"228 -113 CURVE SMOOTH"
);
}
);
width = 504;
}
);
note = Ldotbelow;
rightKerningGroup = L;
unicode = 1E36;
},
{
glyphname = Ldotbelowmacron;
lastChange = "2015-10-22 12:03:08 +0000";
layers = (
{
layerId = "C8730BEE-A5E2-4294-A2BB-9D9AC44EE1E3";
name = "Light Italic";
paths = (
{
closed = 1;
nodes = (
"433 0 LINE",
"480 166 LINE",
"468 166 LINE",
"456 123 OFFCURVE",
"420 24 OFFCURVE",
"364 24 CURVE SMOOTH",
"169 24 LINE SMOOTH",
"132 24 OFFCURVE",
"112 33 OFFCURVE",
"117 57 CURVE SMOOTH",
"238 653 LINE SMOOTH",
"243 677 OFFCURVE",
"266 686 OFFCURVE",
"303 686 CURVE SMOOTH",
"329 686 LINE",
"332 700 LINE",
"132 700 LINE",
"130 686 LINE",
"156 686 LINE SMOOTH",
"193 686 OFFCURVE",
"212 677 OFFCURVE",
"207 653 CURVE SMOOTH",
"84 47 LINE SMOOTH",
"79 23 OFFCURVE",
"56 14 OFFCURVE",
"18 14 CURVE SMOOTH",
"-8 14 LINE",
"-10 0 LINE"
);
},
{
closed = 1;
nodes = (
"244 -113 OFFCURVE",
"258 -102 OFFCURVE",
"262 -83 CURVE SMOOTH",
"266 -64 OFFCURVE",
"255 -53 OFFCURVE",
"239 -53 CURVE SMOOTH",
"224 -53 OFFCURVE",
"209 -64 OFFCURVE",
"205 -83 CURVE SMOOTH",
"202 -102 OFFCURVE",
"212 -113 OFFCURVE",
"228 -113 CURVE SMOOTH"
);
},
{
closed = 1;
nodes = (
"396 785 LINE",
"400 807 LINE",
"138 807 LINE",
"133 785 LINE"
);
}
);
width = 504;
}
);
note = Ldotbelowmacron;
rightKerningGroup = L;
unicode = 1E38;
},
{
glyphname = Llinebelow;
lastChange = "2015-10-22 12:03:09 +0000";
layers = (
{
layerId = "C8730BEE-A5E2-4294-A2BB-9D9AC44EE1E3";
name = "Light Italic";
paths = (
{
closed = 1;
nodes = (
"433 0 LINE",
"480 166 LINE",
"468 166 LINE",
"456 123 OFFCURVE",
"420 24 OFFCURVE",
"364 24 CURVE SMOOTH",
"169 24 LINE SMOOTH",
"132 24 OFFCURVE",
"112 33 OFFCURVE",
"117 57 CURVE SMOOTH",
"238 653 LINE SMOOTH",
"243 677 OFFCURVE",
"266 686 OFFCURVE",
"303 686 CURVE SMOOTH",
"329 686 LINE",
"332 700 LINE",
"132 700 LINE",
"130 686 LINE",
"156 686 LINE SMOOTH",
"193 686 OFFCURVE",
"212 677 OFFCURVE",
"207 653 CURVE SMOOTH",
"84 47 LINE SMOOTH",
"79 23 OFFCURVE",
"56 14 OFFCURVE",
"18 14 CURVE SMOOTH",
"-8 14 LINE",
"-10 0 LINE"
);
},
{
closed = 1;
nodes = (
"335 -98 LINE",
"339 -76 LINE",
"77 -76 LINE",
"73 -98 LINE"
);
}
);
width = 504;
}
);
note = Llinebelow;
rightKerningGroup = L;
unicode = 1E3A;
},
{
glyphname = Lslash;
lastChange = "2015-10-22 12:03:08 +0000";
layers = (
{
layerId = "C8730BEE-A5E2-4294-A2BB-9D9AC44EE1E3";
name = "Light Italic";
paths = (
{
closed = 1;
nodes = (
"433 0 LINE",
"480 166 LINE",
"468 166 LINE",
"456 123 OFFCURVE",
"420 24 OFFCURVE",
"364 24 CURVE SMOOTH",
"169 24 LINE SMOOTH",
"132 24 OFFCURVE",
"112 33 OFFCURVE",
"117 57 CURVE SMOOTH",
"238 653 LINE SMOOTH",
"243 677 OFFCURVE",
"266 686 OFFCURVE",
"303 686 CURVE SMOOTH",
"329 686 LINE",
"332 700 LINE",
"132 700 LINE",
"130 686 LINE",
"156 686 LINE SMOOTH",
"193 686 OFFCURVE",
"212 677 OFFCURVE",
"207 653 CURVE SMOOTH",
"84 47 LINE SMOOTH",
"79 23 OFFCURVE",
"56 14 OFFCURVE",
"18 14 CURVE SMOOTH",
"-8 14 LINE",
"-10 0 LINE"
);
},
{
closed = 1;
nodes = (
"397 388 LINE",
"403 416 LINE",
"49 290 LINE",
"43 262 LINE"
);
}
);
width = 504;
}
);
note = Lslash;
rightKerningGroup = L;
unicode = 0141;
},
{
glyphname = M;
lastChange = "2015-10-22 12:03:07 +0000";
layers = (
{
layerId = "C8730BEE-A5E2-4294-A2BB-9D9AC44EE1E3";
name = "Light Italic";
paths = (
{
closed = 1;
nodes = (
"190 0 LINE",
"192 14 LINE",
"166 14 LINE SMOOTH",
"129 14 OFFCURVE",
"109 23 OFFCURVE",
"114 47 CURVE SMOOTH",
"238 653 LINE",
"240 656 LINE",
"373 79 LINE",
"393 79 LINE",
"761 656 LINE",
"762 653 LINE",
"638 47 LINE SMOOTH",
"634 23 OFFCURVE",
"611 14 OFFCURVE",
"573 14 CURVE SMOOTH",
"547 14 LINE",
"545 0 LINE",
"745 0 LINE",
"747 14 LINE",
"721 14 LINE SMOOTH",
"684 14 OFFCURVE",
"664 23 OFFCURVE",
"669 47 CURVE SMOOTH",
"793 653 LINE SMOOTH",
"798 677 OFFCURVE",
"821 686 OFFCURVE",
"858 686 CURVE SMOOTH",
"884 686 LINE",
"887 700 LINE",
"756 700 LINE",
"393 124 LINE",
"263 700 LINE",
"132 700 LINE",
"130 686 LINE",
"156 686 LINE SMOOTH",
"193 686 OFFCURVE",
"212 677 OFFCURVE",
"207 653 CURVE SMOOTH",
"84 47 LINE SMOOTH",
"79 23 OFFCURVE",
"56 14 OFFCURVE",
"18 14 CURVE SMOOTH",
"-8 14 LINE",
"-10 0 LINE"
);
}
);
width = 812;
}
);
note = M;
unicode = 004D;
},
{
glyphname = Mdotbelow;
lastChange = "2015-10-22 12:03:08 +0000";
layers = (
{
layerId = "C8730BEE-A5E2-4294-A2BB-9D9AC44EE1E3";
name = "Light Italic";
paths = (
{
closed = 1;
nodes = (
"190 0 LINE",
"192 14 LINE",
"166 14 LINE SMOOTH",
"129 14 OFFCURVE",
"109 23 OFFCURVE",
"114 47 CURVE SMOOTH",
"238 653 LINE",
"240 656 LINE",
"373 79 LINE",
"393 79 LINE",
"761 656 LINE",
"762 653 LINE",
"638 47 LINE SMOOTH",
"634 23 OFFCURVE",
"611 14 OFFCURVE",
"573 14 CURVE SMOOTH",
"547 14 LINE",
"545 0 LINE",
"745 0 LINE",
"747 14 LINE",
"721 14 LINE SMOOTH",
"684 14 OFFCURVE",
"664 23 OFFCURVE",
"669 47 CURVE SMOOTH",
"793 653 LINE SMOOTH",
"798 677 OFFCURVE",
"821 686 OFFCURVE",
"858 686 CURVE SMOOTH",
"884 686 LINE",
"887 700 LINE",
"756 700 LINE",
"393 124 LINE",
"263 700 LINE",
"132 700 LINE",
"130 686 LINE",
"156 686 LINE SMOOTH",
"193 686 OFFCURVE",
"212 677 OFFCURVE",
"207 653 CURVE SMOOTH",
"84 47 LINE SMOOTH",
"79 23 OFFCURVE",
"56 14 OFFCURVE",
"18 14 CURVE SMOOTH",
"-8 14 LINE",
"-10 0 LINE"
);
},
{
closed = 1;
nodes = (
"359 -124 OFFCURVE",
"372 -113 OFFCURVE",
"377 -94 CURVE",
"381 -75 OFFCURVE",
"372 -64 OFFCURVE",
"355 -64 CURVE SMOOTH",
"339 -64 OFFCURVE",
"325 -75 OFFCURVE",
"322 -94 CURVE",
"317 -113 OFFCURVE",
"326 -124 OFFCURVE",
"343 -124 CURVE SMOOTH"
);
}
);
width = 812;
}
);
note = Mdotbelow;
unicode = 1E42;
},
{
glyphname = N;
lastChange = "2015-10-22 12:03:07 +0000";
layers = (
{
layerId = "C8730BEE-A5E2-4294-A2BB-9D9AC44EE1E3";
name = "Light Italic";
paths = (
{
closed = 1;
nodes = (
"190 0 LINE",
"192 14 LINE",
"166 14 LINE SMOOTH",
"129 14 OFFCURVE",
"109 23 OFFCURVE",
"114 47 CURVE SMOOTH",
"243 677 LINE",
"249 677 LINE",
"516 0 LINE",
"546 0 LINE",
"679 653 LINE SMOOTH",
"684 677 OFFCURVE",
"707 686 OFFCURVE",
"744 686 CURVE SMOOTH",
"770 686 LINE",
"773 700 LINE",
"573 700 LINE",
"570 686 LINE",
"596 686 LINE SMOOTH",
"634 686 OFFCURVE",
"653 677 OFFCURVE",
"648 653 CURVE SMOOTH",
"525 51 LINE",
"272 700 LINE",
"132 700 LINE",
"130 686 LINE",
"156 686 LINE SMOOTH",
"193 686 OFFCURVE",
"212 677 OFFCURVE",
"207 653 CURVE SMOOTH",
"84 47 LINE SMOOTH",
"79 23 OFFCURVE",
"56 14 OFFCURVE",
"18 14 CURVE SMOOTH",
"-8 14 LINE",
"-10 0 LINE"
);
}
);
width = 698;
}
);
note = N;
unicode = 004E;
},
{
glyphname = Nacute;
lastChange = "2015-10-22 12:03:09 +0000";
layers = (
{
layerId = "C8730BEE-A5E2-4294-A2BB-9D9AC44EE1E3";
name = "Light Italic";
paths = (
{
closed = 1;
nodes = (
"190 0 LINE",
"192 14 LINE",
"166 14 LINE SMOOTH",
"129 14 OFFCURVE",
"109 23 OFFCURVE",
"114 47 CURVE SMOOTH",
"243 677 LINE",
"249 677 LINE",
"516 0 LINE",
"546 0 LINE",
"679 653 LINE SMOOTH",
"684 677 OFFCURVE",
"707 686 OFFCURVE",
"744 686 CURVE SMOOTH",
"770 686 LINE",
"773 700 LINE",
"573 700 LINE",
"570 686 LINE",
"596 686 LINE SMOOTH",
"634 686 OFFCURVE",
"653 677 OFFCURVE",
"648 653 CURVE SMOOTH",
"525 51 LINE",
"272 700 LINE",
"132 700 LINE",
"130 686 LINE",
"156 686 LINE SMOOTH",
"193 686 OFFCURVE",
"212 677 OFFCURVE",
"207 653 CURVE SMOOTH",
"84 47 LINE SMOOTH",
"79 23 OFFCURVE",
"56 14 OFFCURVE",
"18 14 CURVE SMOOTH",
"-8 14 LINE",
"-10 0 LINE"
);
},
{
closed = 1;
nodes = (
"548 860 LINE",
"561 866 OFFCURVE",
"567 875 OFFCURVE",
"568 883 CURVE",
"570 892 OFFCURVE",
"564 897 OFFCURVE",
"558 897 CURVE SMOOTH",
"548 897 OFFCURVE",
"540 891 OFFCURVE",
"531 885 CURVE SMOOTH",
"410 798 LINE",
"415 788 LINE"
);
}
);
width = 698;
}
);
note = Nacute;
unicode = 0143;
},
{
glyphname = Ncaron;
lastChange = "2015-10-22 12:03:09 +0000";
layers = (
{
layerId = "C8730BEE-A5E2-4294-A2BB-9D9AC44EE1E3";
name = "Light Italic";
paths = (
{
closed = 1;
nodes = (
"190 0 LINE",
"192 14 LINE",
"166 14 LINE SMOOTH",
"129 14 OFFCURVE",
"109 23 OFFCURVE",
"114 47 CURVE SMOOTH",
"243 677 LINE",
"249 677 LINE",
"516 0 LINE",
"546 0 LINE",
"679 653 LINE SMOOTH",
"684 677 OFFCURVE",
"707 686 OFFCURVE",
"744 686 CURVE SMOOTH",
"770 686 LINE",
"773 700 LINE",
"573 700 LINE",
"570 686 LINE",
"596 686 LINE SMOOTH",
"634 686 OFFCURVE",
"653 677 OFFCURVE",
"648 653 CURVE SMOOTH",
"525 51 LINE",
"272 700 LINE",
"132 700 LINE",
"130 686 LINE",
"156 686 LINE SMOOTH",
"193 686 OFFCURVE",
"212 677 OFFCURVE",
"207 653 CURVE SMOOTH",
"84 47 LINE SMOOTH",
"79 23 OFFCURVE",
"56 14 OFFCURVE",
"18 14 CURVE SMOOTH",
"-8 14 LINE",
"-10 0 LINE"
);
},
{
closed = 1;
nodes = (
"488 787 LINE",
"604 883 LINE",
"594 899 LINE",
"494 824 LINE",
"490 821 OFFCURVE",
"486 819 OFFCURVE",
"483 819 CURVE SMOOTH",
"480 819 OFFCURVE",
"476 821 OFFCURVE",
"473 824 CURVE SMOOTH",
"404 899 LINE",
"387 883 LINE",
"465 787 LINE"
);
}
);
width = 698;
}
);
note = Ncaron;
unicode = 0147;
},
{
glyphname = Ncommaaccent;
lastChange = "2015-10-22 12:03:08 +0000";
layers = (
{
layerId = "C8730BEE-A5E2-4294-A2BB-9D9AC44EE1E3";
name = "Light Italic";
paths = (
{
closed = 1;
nodes = (
"190 0 LINE",
"192 14 LINE",
"166 14 LINE SMOOTH",
"129 14 OFFCURVE",
"109 23 OFFCURVE",
"114 47 CURVE SMOOTH",
"243 677 LINE",
"249 677 LINE",
"516 0 LINE",
"546 0 LINE",
"679 653 LINE SMOOTH",
"684 677 OFFCURVE",
"707 686 OFFCURVE",
"744 686 CURVE SMOOTH",
"770 686 LINE",
"773 700 LINE",
"573 700 LINE",
"570 686 LINE",
"596 686 LINE SMOOTH",
"634 686 OFFCURVE",
"653 677 OFFCURVE",
"648 653 CURVE SMOOTH",
"525 51 LINE",
"272 700 LINE",
"132 700 LINE",
"130 686 LINE",
"156 686 LINE SMOOTH",
"193 686 OFFCURVE",
"212 677 OFFCURVE",
"207 653 CURVE SMOOTH",
"84 47 LINE SMOOTH",
"79 23 OFFCURVE",
"56 14 OFFCURVE",
"18 14 CURVE SMOOTH",
"-8 14 LINE",
"-10 0 LINE"
);
},
{
closed = 1;
nodes = (
"256 -194 OFFCURVE",
"285 -150 OFFCURVE",
"295 -102 CURVE SMOOTH",
"301 -67 OFFCURVE",
"289 -61 OFFCURVE",
"276 -61 CURVE SMOOTH",
"259 -61 OFFCURVE",
"248 -72 OFFCURVE",
"244 -90 CURVE SMOOTH",
"239 -116 OFFCURVE",
"265 -116 OFFCURVE",
"259 -144 CURVE SMOOTH",
"253 -174 OFFCURVE",
"223 -202 OFFCURVE",
"198 -222 CURVE",
"204 -232 LINE"
);
}
);
width = 698;
}
);
note = Ncommaaccent;
unicode = 0145;
},
{
glyphname = Ndotaccent;
lastChange = "2015-10-22 12:03:09 +0000";
layers = (
{
layerId = "C8730BEE-A5E2-4294-A2BB-9D9AC44EE1E3";
name = "Light Italic";
paths = (
{
closed = 1;
nodes = (
"190 0 LINE",
"192 14 LINE",
"166 14 LINE SMOOTH",
"129 14 OFFCURVE",
"109 23 OFFCURVE",
"114 47 CURVE SMOOTH",
"243 677 LINE",
"249 677 LINE",
"516 0 LINE",
"546 0 LINE",
"679 653 LINE SMOOTH",
"684 677 OFFCURVE",
"707 686 OFFCURVE",
"744 686 CURVE SMOOTH",
"770 686 LINE",
"773 700 LINE",
"573 700 LINE",
"570 686 LINE",
"596 686 LINE SMOOTH",
"634 686 OFFCURVE",
"653 677 OFFCURVE",
"648 653 CURVE SMOOTH",
"525 51 LINE",
"272 700 LINE",
"132 700 LINE",
"130 686 LINE",
"156 686 LINE SMOOTH",
"193 686 OFFCURVE",
"212 677 OFFCURVE",
"207 653 CURVE SMOOTH",
"84 47 LINE SMOOTH",
"79 23 OFFCURVE",
"56 14 OFFCURVE",
"18 14 CURVE SMOOTH",
"-8 14 LINE",
"-10 0 LINE"
);
},
{
closed = 1;
nodes = (
"480 759 OFFCURVE",
"493 770 OFFCURVE",
"497 789 CURVE SMOOTH",
"501 808 OFFCURVE",
"492 819 OFFCURVE",
"476 819 CURVE SMOOTH",
"460 819 OFFCURVE",
"445 808 OFFCURVE",
"442 789 CURVE SMOOTH",
"438 770 OFFCURVE",
"447 759 OFFCURVE",
"464 759 CURVE SMOOTH"
);
}
);
width = 698;
}
);
note = Ndotaccent;
unicode = 1E44;
},
{
glyphname = Ndotbelow;
lastChange = "2015-10-22 12:03:08 +0000";
layers = (
{
layerId = "C8730BEE-A5E2-4294-A2BB-9D9AC44EE1E3";
name = "Light Italic";
paths = (
{
closed = 1;
nodes = (
"190 0 LINE",
"192 14 LINE",
"166 14 LINE SMOOTH",
"129 14 OFFCURVE",
"109 23 OFFCURVE",
"114 47 CURVE SMOOTH",
"243 677 LINE",
"249 677 LINE",
"516 0 LINE",
"546 0 LINE",
"679 653 LINE SMOOTH",
"684 677 OFFCURVE",
"707 686 OFFCURVE",
"744 686 CURVE SMOOTH",
"770 686 LINE",
"773 700 LINE",
"573 700 LINE",
"570 686 LINE",
"596 686 LINE SMOOTH",
"634 686 OFFCURVE",
"653 677 OFFCURVE",
"648 653 CURVE SMOOTH",
"525 51 LINE",
"272 700 LINE",
"132 700 LINE",
"130 686 LINE",
"156 686 LINE SMOOTH",
"193 686 OFFCURVE",
"212 677 OFFCURVE",
"207 653 CURVE SMOOTH",
"84 47 LINE SMOOTH",
"79 23 OFFCURVE",
"56 14 OFFCURVE",
"18 14 CURVE SMOOTH",
"-8 14 LINE",
"-10 0 LINE"
);
},
{
closed = 1;
nodes = (
"301 -124 OFFCURVE",
"315 -113 OFFCURVE",
"320 -94 CURVE",
"324 -75 OFFCURVE",
"314 -64 OFFCURVE",
"298 -64 CURVE SMOOTH",
"281 -64 OFFCURVE",
"268 -75 OFFCURVE",
"264 -94 CURVE",
"259 -113 OFFCURVE",
"269 -124 OFFCURVE",
"285 -124 CURVE SMOOTH"
);
}
);
width = 698;
}
);
note = Ndotbelow;
unicode = 1E46;
},
{
glyphname = Eng;
lastChange = "2015-10-22 12:03:08 +0000";
layers = (
{
layerId = "C8730BEE-A5E2-4294-A2BB-9D9AC44EE1E3";
name = "Light Italic";
paths = (
{
closed = 1;
nodes = (
"439 -234 OFFCURVE",
"512 -168 OFFCURVE",
"533 -62 CURVE SMOOTH",
"679 653 LINE SMOOTH",
"684 677 OFFCURVE",
"707 686 OFFCURVE",
"744 686 CURVE SMOOTH",
"770 686 LINE",
"773 700 LINE",
"573 700 LINE",
"570 686 LINE",
"596 686 LINE SMOOTH",
"634 686 OFFCURVE",
"653 677 OFFCURVE",
"648 653 CURVE SMOOTH",
"525 51 LINE",
"272 700 LINE",
"132 700 LINE",
"130 686 LINE",
"156 686 LINE SMOOTH",
"193 686 OFFCURVE",
"212 677 OFFCURVE",
"207 653 CURVE SMOOTH",
"84 47 LINE SMOOTH",
"79 23 OFFCURVE",
"56 14 OFFCURVE",
"18 14 CURVE SMOOTH",
"-8 14 LINE",
"-10 0 LINE",
"190 0 LINE",
"192 14 LINE",
"166 14 LINE SMOOTH",
"129 14 OFFCURVE",
"109 23 OFFCURVE",
"114 47 CURVE SMOOTH",
"243 677 LINE",
"249 677 LINE",
"516 1 LINE",
"502 -63 LINE SMOOTH",
"484 -155 OFFCURVE",
"418 -210 OFFCURVE",
"347 -218 CURVE",
"347 -234 LINE"
);
}
);
width = 698;
}
);
note = Eng;
unicode = 014A;
},
{
glyphname = Nlinebelow;
lastChange = "2015-10-22 12:03:08 +0000";
layers = (
{
layerId = "C8730BEE-A5E2-4294-A2BB-9D9AC44EE1E3";
name = "Light Italic";
paths = (
{
closed = 1;
nodes = (
"190 0 LINE",
"192 14 LINE",
"166 14 LINE SMOOTH",
"129 14 OFFCURVE",
"109 23 OFFCURVE",
"114 47 CURVE SMOOTH",
"243 677 LINE",
"249 677 LINE",
"516 0 LINE",
"546 0 LINE",
"679 653 LINE SMOOTH",
"684 677 OFFCURVE",
"707 686 OFFCURVE",
"744 686 CURVE SMOOTH",
"770 686 LINE",
"773 700 LINE",
"573 700 LINE",
"570 686 LINE",
"596 686 LINE SMOOTH",
"634 686 OFFCURVE",
"653 677 OFFCURVE",
"648 653 CURVE SMOOTH",
"525 51 LINE",
"272 700 LINE",
"132 700 LINE",
"130 686 LINE",
"156 686 LINE SMOOTH",
"193 686 OFFCURVE",
"212 677 OFFCURVE",
"207 653 CURVE SMOOTH",
"84 47 LINE SMOOTH",
"79 23 OFFCURVE",
"56 14 OFFCURVE",
"18 14 CURVE SMOOTH",
"-8 14 LINE",
"-10 0 LINE"
);
},
{
closed = 1;
nodes = (
"420 -98 LINE",
"424 -76 LINE",
"162 -76 LINE",
"158 -98 LINE"
);
}
);
width = 698;
}
);
note = Nlinebelow;
unicode = 1E48;
},
{
glyphname = Ntilde;
lastChange = "2015-10-22 12:03:09 +0000";
layers = (
{
layerId = "C8730BEE-A5E2-4294-A2BB-9D9AC44EE1E3";
name = "Light Italic";
paths = (
{
closed = 1;
nodes = (
"190 0 LINE",
"192 14 LINE",
"166 14 LINE SMOOTH",
"129 14 OFFCURVE",
"109 23 OFFCURVE",
"114 47 CURVE SMOOTH",
"243 677 LINE",
"249 677 LINE",
"516 0 LINE",
"546 0 LINE",
"679 653 LINE SMOOTH",
"684 677 OFFCURVE",
"707 686 OFFCURVE",
"744 686 CURVE SMOOTH",
"770 686 LINE",
"773 700 LINE",
"573 700 LINE",
"570 686 LINE",
"596 686 LINE SMOOTH",
"634 686 OFFCURVE",
"653 677 OFFCURVE",
"648 653 CURVE SMOOTH",
"525 51 LINE",
"272 700 LINE",
"132 700 LINE",
"130 686 LINE",
"156 686 LINE SMOOTH",
"193 686 OFFCURVE",
"212 677 OFFCURVE",
"207 653 CURVE SMOOTH",
"84 47 LINE SMOOTH",
"79 23 OFFCURVE",
"56 14 OFFCURVE",
"18 14 CURVE SMOOTH",
"-8 14 LINE",
"-10 0 LINE"
);
},
{
closed = 1;
nodes = (
"375 824 OFFCURVE",
"398 848 OFFCURVE",
"426 848 CURVE SMOOTH",
"466 848 OFFCURVE",
"495 788 OFFCURVE",
"537 788 CURVE SMOOTH",
"576 788 OFFCURVE",
"607 815 OFFCURVE",
"627 871 CURVE",
"613 878 LINE",
"596 838 OFFCURVE",
"575 812 OFFCURVE",
"544 812 CURVE SMOOTH",
"507 812 OFFCURVE",
"474 871 OFFCURVE",
"433 871 CURVE SMOOTH",
"398 871 OFFCURVE",
"364 849 OFFCURVE",
"346 794 CURVE",
"358 786 LINE"
);
}
);
width = 698;
}
);
note = Ntilde;
unicode = 00D1;
},
{
glyphname = O;
lastChange = "2015-10-22 12:03:09 +0000";
layers = (
{
layerId = "C8730BEE-A5E2-4294-A2BB-9D9AC44EE1E3";
name = "Light Italic";
paths = (
{
closed = 1;
nodes = (
"482 -10 OFFCURVE",
"622 117 OFFCURVE",
"670 350 CURVE SMOOTH",
"717 583 OFFCURVE",
"629 710 OFFCURVE",
"444 710 CURVE SMOOTH",
"258 710 OFFCURVE",
"118 583 OFFCURVE",
"71 350 CURVE SMOOTH",
"23 117 OFFCURVE",
"111 -10 OFFCURVE",
"297 -10 CURVE SMOOTH"
);
},
{
closed = 1;
nodes = (
"116 14 OFFCURVE",
"60 154 OFFCURVE",
"101 350 CURVE SMOOTH",
"141 546 OFFCURVE",
"253 686 OFFCURVE",
"439 686 CURVE SMOOTH",
"624 686 OFFCURVE",
"681 546 OFFCURVE",
"640 350 CURVE SMOOTH",
"600 154 OFFCURVE",
"487 14 OFFCURVE",
"301 14 CURVE SMOOTH"
);
}
);
width = 676;
}
);
leftKerningGroup = O;
note = O;
rightKerningGroup = O;
unicode = 004F;
},
{
glyphname = Oacute;
lastChange = "2015-10-22 12:03:09 +0000";
layers = (
{
layerId = "C8730BEE-A5E2-4294-A2BB-9D9AC44EE1E3";
name = "Light Italic";
paths = (
{
closed = 1;
nodes = (
"482 -10 OFFCURVE",
"622 117 OFFCURVE",
"670 350 CURVE SMOOTH",
"717 583 OFFCURVE",
"629 710 OFFCURVE",
"444 710 CURVE SMOOTH",
"258 710 OFFCURVE",
"118 583 OFFCURVE",
"71 350 CURVE SMOOTH",
"23 117 OFFCURVE",
"111 -10 OFFCURVE",
"297 -10 CURVE SMOOTH"
);
},
{
closed = 1;
nodes = (
"116 14 OFFCURVE",
"60 154 OFFCURVE",
"101 350 CURVE SMOOTH",
"141 546 OFFCURVE",
"253 686 OFFCURVE",
"439 686 CURVE SMOOTH",
"624 686 OFFCURVE",
"681 546 OFFCURVE",
"640 350 CURVE SMOOTH",
"600 154 OFFCURVE",
"487 14 OFFCURVE",
"301 14 CURVE SMOOTH"
);
},
{
closed = 1;
nodes = (
"531 860 LINE",
"543 866 OFFCURVE",
"550 875 OFFCURVE",
"551 883 CURVE",
"553 892 OFFCURVE",
"547 897 OFFCURVE",
"540 897 CURVE SMOOTH",
"531 897 OFFCURVE",
"522 891 OFFCURVE",
"514 885 CURVE SMOOTH",
"393 798 LINE",
"397 788 LINE"
);
}
);
width = 676;
}
);
leftKerningGroup = O;
note = Oacute;
rightKerningGroup = O;
unicode = 00D3;
},
{
glyphname = Obreve;
lastChange = "2015-10-22 12:03:08 +0000";
layers = (
{
layerId = "C8730BEE-A5E2-4294-A2BB-9D9AC44EE1E3";
name = "Light Italic";
paths = (
{
closed = 1;
nodes = (
"482 -10 OFFCURVE",
"622 117 OFFCURVE",
"670 350 CURVE SMOOTH",
"717 583 OFFCURVE",
"629 710 OFFCURVE",
"444 710 CURVE SMOOTH",
"258 710 OFFCURVE",
"118 583 OFFCURVE",
"71 350 CURVE SMOOTH",
"23 117 OFFCURVE",
"111 -10 OFFCURVE",
"297 -10 CURVE SMOOTH"
);
},
{
closed = 1;
nodes = (
"116 14 OFFCURVE",
"60 154 OFFCURVE",
"101 350 CURVE SMOOTH",
"141 546 OFFCURVE",
"253 686 OFFCURVE",
"439 686 CURVE SMOOTH",
"624 686 OFFCURVE",
"681 546 OFFCURVE",
"640 350 CURVE SMOOTH",
"600 154 OFFCURVE",
"487 14 OFFCURVE",
"301 14 CURVE SMOOTH"
);
},
{
closed = 1;
nodes = (
"525 774 OFFCURVE",
"582 809 OFFCURVE",
"604 887 CURVE",
"580 887 LINE",
"555 808 OFFCURVE",
"499 799 OFFCURVE",
"462 799 CURVE SMOOTH",
"424 799 OFFCURVE",
"372 808 OFFCURVE",
"380 887 CURVE",
"356 887 LINE",
"345 809 OFFCURVE",
"389 774 OFFCURVE",
"457 774 CURVE SMOOTH"
);
}
);
width = 676;
}
);
leftKerningGroup = O;
note = Obreve;
rightKerningGroup = O;
unicode = 014E;
},
{
glyphname = Ocaron;
lastChange = "2015-10-22 12:03:08 +0000";
layers = (
{
layerId = "C8730BEE-A5E2-4294-A2BB-9D9AC44EE1E3";
name = "Light Italic";
paths = (
{
closed = 1;
nodes = (
"482 -10 OFFCURVE",
"622 117 OFFCURVE",
"670 350 CURVE SMOOTH",
"717 583 OFFCURVE",
"629 710 OFFCURVE",
"444 710 CURVE SMOOTH",
"258 710 OFFCURVE",
"118 583 OFFCURVE",
"71 350 CURVE SMOOTH",
"23 117 OFFCURVE",
"111 -10 OFFCURVE",
"297 -10 CURVE SMOOTH"
);
},
{
closed = 1;
nodes = (
"116 14 OFFCURVE",
"60 154 OFFCURVE",
"101 350 CURVE SMOOTH",
"141 546 OFFCURVE",
"253 686 OFFCURVE",
"439 686 CURVE SMOOTH",
"624 686 OFFCURVE",
"681 546 OFFCURVE",
"640 350 CURVE SMOOTH",
"600 154 OFFCURVE",
"487 14 OFFCURVE",
"301 14 CURVE SMOOTH"
);
},
{
closed = 1;
nodes = (
"470 787 LINE",
"587 883 LINE",
"577 899 LINE",
"477 824 LINE",
"472 821 OFFCURVE",
"468 819 OFFCURVE",
"466 819 CURVE SMOOTH",
"463 819 OFFCURVE",
"459 821 OFFCURVE",
"456 824 CURVE SMOOTH",
"387 899 LINE",
"370 883 LINE",
"447 787 LINE"
);
}
);
width = 676;
}
);
leftKerningGroup = O;
note = Ocaron;
rightKerningGroup = O;
unicode = 01D1;
},
{
glyphname = Ocircumflex;
lastChange = "2015-10-22 12:03:09 +0000";
layers = (
{
layerId = "C8730BEE-A5E2-4294-A2BB-9D9AC44EE1E3";
name = "Light Italic";
paths = (
{
closed = 1;
nodes = (
"482 -10 OFFCURVE",
"622 117 OFFCURVE",
"670 350 CURVE SMOOTH",
"717 583 OFFCURVE",
"629 710 OFFCURVE",
"444 710 CURVE SMOOTH",
"258 710 OFFCURVE",
"118 583 OFFCURVE",
"71 350 CURVE SMOOTH",
"23 117 OFFCURVE",
"111 -10 OFFCURVE",
"297 -10 CURVE SMOOTH"
);
},
{
closed = 1;
nodes = (
"116 14 OFFCURVE",
"60 154 OFFCURVE",
"101 350 CURVE SMOOTH",
"141 546 OFFCURVE",
"253 686 OFFCURVE",
"439 686 CURVE SMOOTH",
"624 686 OFFCURVE",
"681 546 OFFCURVE",
"640 350 CURVE SMOOTH",
"600 154 OFFCURVE",
"487 14 OFFCURVE",
"301 14 CURVE SMOOTH"
);
},
{
closed = 1;
nodes = (
"464 862 LINE SMOOTH",
"468 865 OFFCURVE",
"472 867 OFFCURVE",
"475 867 CURVE SMOOTH",
"478 867 OFFCURVE",
"481 865 OFFCURVE",
"485 862 CURVE",
"554 787 LINE",
"570 803 LINE",
"493 899 LINE",
"470 899 LINE",
"353 803 LINE",
"364 787 LINE"
);
}
);
width = 676;
}
);
leftKerningGroup = O;
note = Ocircumflex;
rightKerningGroup = O;
unicode = 00D4;
},
{
glyphname = Ocircumflexacute;
lastChange = "2015-10-22 12:03:09 +0000";
layers = (
{
layerId = "C8730BEE-A5E2-4294-A2BB-9D9AC44EE1E3";
name = "Light Italic";
paths = (
{
closed = 1;
nodes = (
"482 -10 OFFCURVE",
"622 117 OFFCURVE",
"670 350 CURVE SMOOTH",
"717 583 OFFCURVE",
"629 710 OFFCURVE",
"444 710 CURVE SMOOTH",
"258 710 OFFCURVE",
"118 583 OFFCURVE",
"71 350 CURVE SMOOTH",
"23 117 OFFCURVE",
"111 -10 OFFCURVE",
"297 -10 CURVE SMOOTH"
);
},
{
closed = 1;
nodes = (
"116 14 OFFCURVE",
"60 154 OFFCURVE",
"101 350 CURVE SMOOTH",
"141 546 OFFCURVE",
"253 686 OFFCURVE",
"439 686 CURVE SMOOTH",
"624 686 OFFCURVE",
"681 546 OFFCURVE",
"640 350 CURVE SMOOTH",
"600 154 OFFCURVE",
"487 14 OFFCURVE",
"301 14 CURVE SMOOTH"
);
},
{
closed = 1;
nodes = (
"465 862 LINE SMOOTH",
"468 865 OFFCURVE",
"473 867 OFFCURVE",
"476 867 CURVE SMOOTH",
"479 867 OFFCURVE",
"482 865 OFFCURVE",
"486 862 CURVE",
"555 787 LINE",
"571 803 LINE",
"494 899 LINE",
"471 899 LINE",
"354 803 LINE",
"365 787 LINE"
);
},
{
closed = 1;
nodes = (
"701 951 LINE SMOOTH",
"712 957 OFFCURVE",
"719 967 OFFCURVE",
"721 974 CURVE",
"723 983 OFFCURVE",
"717 988 OFFCURVE",
"709 988 CURVE SMOOTH",
"700 988 OFFCURVE",
"688 982 OFFCURVE",
"681 976 CURVE SMOOTH",
"562 888 LINE",
"567 878 LINE"
);
}
);
width = 676;
}
);
leftKerningGroup = O;
note = Ocircumflexacute;
rightKerningGroup = O;
unicode = 1ED0;
},
{
glyphname = Ocircumflexdotbelow;
lastChange = "2015-10-22 12:03:09 +0000";
layers = (
{
layerId = "C8730BEE-A5E2-4294-A2BB-9D9AC44EE1E3";
name = "Light Italic";
paths = (
{
closed = 1;
nodes = (
"482 -10 OFFCURVE",
"622 117 OFFCURVE",
"670 350 CURVE SMOOTH",
"717 583 OFFCURVE",
"629 710 OFFCURVE",
"444 710 CURVE SMOOTH",
"258 710 OFFCURVE",
"118 583 OFFCURVE",
"71 350 CURVE SMOOTH",
"23 117 OFFCURVE",
"111 -10 OFFCURVE",
"297 -10 CURVE SMOOTH"
);
},
{
closed = 1;
nodes = (
"291 -124 OFFCURVE",
"304 -113 OFFCURVE",
"309 -94 CURVE",
"313 -75 OFFCURVE",
"303 -64 OFFCURVE",
"287 -64 CURVE SMOOTH",
"271 -64 OFFCURVE",
"257 -75 OFFCURVE",
"253 -94 CURVE",
"249 -113 OFFCURVE",
"258 -124 OFFCURVE",
"275 -124 CURVE SMOOTH"
);
},
{
closed = 1;
nodes = (
"116 14 OFFCURVE",
"60 154 OFFCURVE",
"101 350 CURVE SMOOTH",
"141 546 OFFCURVE",
"253 686 OFFCURVE",
"439 686 CURVE SMOOTH",
"624 686 OFFCURVE",
"681 546 OFFCURVE",
"640 350 CURVE SMOOTH",
"600 154 OFFCURVE",
"487 14 OFFCURVE",
"301 14 CURVE SMOOTH"
);
},
{
closed = 1;
nodes = (
"464 862 LINE SMOOTH",
"468 865 OFFCURVE",
"472 867 OFFCURVE",
"475 867 CURVE SMOOTH",
"478 867 OFFCURVE",
"481 865 OFFCURVE",
"485 862 CURVE",
"554 787 LINE",
"570 803 LINE",
"493 899 LINE",
"470 899 LINE",
"353 803 LINE",
"364 787 LINE"
);
}
);
width = 676;
}
);
leftKerningGroup = O;
note = Ocircumflexdotbelow;
rightKerningGroup = O;
unicode = 1ED8;
},
{
glyphname = Ocircumflexgrave;
lastChange = "2015-10-22 12:03:09 +0000";
layers = (
{
layerId = "C8730BEE-A5E2-4294-A2BB-9D9AC44EE1E3";
name = "Light Italic";
paths = (
{
closed = 1;
nodes = (
"482 -10 OFFCURVE",
"622 117 OFFCURVE",
"670 350 CURVE SMOOTH",
"717 583 OFFCURVE",
"629 710 OFFCURVE",
"444 710 CURVE SMOOTH",
"258 710 OFFCURVE",
"118 583 OFFCURVE",
"71 350 CURVE SMOOTH",
"23 117 OFFCURVE",
"111 -10 OFFCURVE",
"297 -10 CURVE SMOOTH"
);
},
{
closed = 1;
nodes = (
"116 14 OFFCURVE",
"60 154 OFFCURVE",
"101 350 CURVE SMOOTH",
"141 546 OFFCURVE",
"253 686 OFFCURVE",
"439 686 CURVE SMOOTH",
"624 686 OFFCURVE",
"681 546 OFFCURVE",
"640 350 CURVE SMOOTH",
"600 154 OFFCURVE",
"487 14 OFFCURVE",
"301 14 CURVE SMOOTH"
);
},
{
closed = 1;
nodes = (
"410 888 LINE",
"326 976 LINE SMOOTH",
"321 982 OFFCURVE",
"313 988 OFFCURVE",
"303 988 CURVE SMOOTH",
"296 988 OFFCURVE",
"288 983 OFFCURVE",
"286 974 CURVE",
"284 967 OFFCURVE",
"287 958 OFFCURVE",
"297 951 CURVE SMOOTH",
"400 878 LINE"
);
},
{
closed = 1;
nodes = (
"465 862 LINE SMOOTH",
"468 865 OFFCURVE",
"473 867 OFFCURVE",
"476 867 CURVE SMOOTH",
"479 867 OFFCURVE",
"482 865 OFFCURVE",
"486 862 CURVE",
"555 787 LINE",
"571 803 LINE",
"494 899 LINE",
"471 899 LINE",
"354 803 LINE",
"365 787 LINE"
);
}
);
width = 676;
}
);
leftKerningGroup = O;
note = Ocircumflexgrave;
rightKerningGroup = O;
unicode = 1ED2;
},
{
glyphname = Ocircumflexhookabove;
lastChange = "2015-10-22 12:03:08 +0000";
layers = (
{
layerId = "C8730BEE-A5E2-4294-A2BB-9D9AC44EE1E3";
name = "Light Italic";
paths = (
{
closed = 1;
nodes = (
"482 -10 OFFCURVE",
"622 117 OFFCURVE",
"670 350 CURVE SMOOTH",
"717 583 OFFCURVE",
"629 710 OFFCURVE",
"444 710 CURVE SMOOTH",
"258 710 OFFCURVE",
"118 583 OFFCURVE",
"71 350 CURVE SMOOTH",
"23 117 OFFCURVE",
"111 -10 OFFCURVE",
"297 -10 CURVE SMOOTH"
);
},
{
closed = 1;
nodes = (
"116 14 OFFCURVE",
"60 154 OFFCURVE",
"101 350 CURVE SMOOTH",
"141 546 OFFCURVE",
"253 686 OFFCURVE",
"439 686 CURVE SMOOTH",
"624 686 OFFCURVE",
"681 546 OFFCURVE",
"640 350 CURVE SMOOTH",
"600 154 OFFCURVE",
"487 14 OFFCURVE",
"301 14 CURVE SMOOTH"
);
},
{
closed = 1;
nodes = (
"465 862 LINE SMOOTH",
"468 865 OFFCURVE",
"473 867 OFFCURVE",
"476 867 CURVE SMOOTH",
"479 867 OFFCURVE",
"482 865 OFFCURVE",
"486 862 CURVE",
"555 787 LINE",
"571 803 LINE",
"494 899 LINE",
"471 899 LINE",
"354 803 LINE",
"365 787 LINE"
);
},
{
closed = 1;
nodes = (
"612 873 LINE",
"598 877 OFFCURVE",
"588 883 OFFCURVE",
"592 899 CURVE",
"597 924 OFFCURVE",
"667 933 OFFCURVE",
"675 971 CURVE SMOOTH",
"682 1003 OFFCURVE",
"652 1017 OFFCURVE",
"617 1017 CURVE SMOOTH",
"591 1017 OFFCURVE",
"552 1008 OFFCURVE",
"546 982 CURVE",
"544 971 OFFCURVE",
"550 964 OFFCURVE",
"559 964 CURVE SMOOTH",
"576 964 OFFCURVE",
"576 973 OFFCURVE",
"584 982 CURVE",
"591 990 OFFCURVE",
"598 997 OFFCURVE",
"615 997 CURVE SMOOTH",
"631 997 OFFCURVE",
"642 987 OFFCURVE",
"640 974 CURVE",
"633 940 OFFCURVE",
"569 933 OFFCURVE",
"562 898 CURVE SMOOTH",
"558 878 OFFCURVE",
"568 860 OFFCURVE",
"603 860 CURVE"
);
}
);
width = 676;
}
);
leftKerningGroup = O;
note = Ocircumflexhookabove;
rightKerningGroup = O;
unicode = 1ED4;
},
{
glyphname = Ocircumflextilde;
lastChange = "2015-10-22 12:03:08 +0000";
layers = (
{
layerId = "C8730BEE-A5E2-4294-A2BB-9D9AC44EE1E3";
name = "Light Italic";
paths = (
{
closed = 1;
nodes = (
"482 -10 OFFCURVE",
"622 117 OFFCURVE",
"670 350 CURVE SMOOTH",
"717 583 OFFCURVE",
"629 710 OFFCURVE",
"444 710 CURVE SMOOTH",
"258 710 OFFCURVE",
"118 583 OFFCURVE",
"71 350 CURVE SMOOTH",
"23 117 OFFCURVE",
"111 -10 OFFCURVE",
"297 -10 CURVE SMOOTH"
);
},
{
closed = 1;
nodes = (
"116 14 OFFCURVE",
"60 154 OFFCURVE",
"101 350 CURVE SMOOTH",
"141 546 OFFCURVE",
"253 686 OFFCURVE",
"439 686 CURVE SMOOTH",
"624 686 OFFCURVE",
"681 546 OFFCURVE",
"640 350 CURVE SMOOTH",
"600 154 OFFCURVE",
"487 14 OFFCURVE",
"301 14 CURVE SMOOTH"
);
},
{
closed = 1;
nodes = (
"465 862 LINE SMOOTH",
"468 865 OFFCURVE",
"473 867 OFFCURVE",
"476 867 CURVE SMOOTH",
"479 867 OFFCURVE",
"482 865 OFFCURVE",
"486 862 CURVE",
"555 787 LINE",
"571 803 LINE",
"494 899 LINE",
"471 899 LINE",
"354 803 LINE",
"365 787 LINE"
);
},
{
closed = 1;
nodes = (
"392 970 OFFCURVE",
"415 994 OFFCURVE",
"443 994 CURVE SMOOTH",
"482 994 OFFCURVE",
"512 934 OFFCURVE",
"553 934 CURVE SMOOTH",
"591 934 OFFCURVE",
"622 961 OFFCURVE",
"642 1017 CURVE",
"629 1024 LINE",
"612 984 OFFCURVE",
"590 958 OFFCURVE",
"561 958 CURVE SMOOTH",
"523 958 OFFCURVE",
"491 1017 OFFCURVE",
"449 1017 CURVE SMOOTH",
"415 1017 OFFCURVE",
"380 995 OFFCURVE",
"362 940 CURVE",
"374 932 LINE"
);
}
);
width = 676;
}
);
leftKerningGroup = O;
note = Ocircumflextilde;
rightKerningGroup = O;
unicode = 1ED6;
},
{
glyphname = Odieresis;
lastChange = "2015-10-22 12:03:09 +0000";
layers = (
{
layerId = "C8730BEE-A5E2-4294-A2BB-9D9AC44EE1E3";
name = "Light Italic";
paths = (
{
closed = 1;
nodes = (
"482 -10 OFFCURVE",
"622 117 OFFCURVE",
"670 350 CURVE SMOOTH",
"717 583 OFFCURVE",
"629 710 OFFCURVE",
"444 710 CURVE SMOOTH",
"258 710 OFFCURVE",
"118 583 OFFCURVE",
"71 350 CURVE SMOOTH",
"23 117 OFFCURVE",
"111 -10 OFFCURVE",
"297 -10 CURVE SMOOTH"
);
},
{
closed = 1;
nodes = (
"116 14 OFFCURVE",
"60 154 OFFCURVE",
"101 350 CURVE SMOOTH",
"141 546 OFFCURVE",
"253 686 OFFCURVE",
"439 686 CURVE SMOOTH",
"624 686 OFFCURVE",
"681 546 OFFCURVE",
"640 350 CURVE SMOOTH",
"600 154 OFFCURVE",
"487 14 OFFCURVE",
"301 14 CURVE SMOOTH"
);
},
{
closed = 1;
nodes = (
"380 785 OFFCURVE",
"395 796 OFFCURVE",
"398 815 CURVE SMOOTH",
"402 834 OFFCURVE",
"393 845 OFFCURVE",
"376 845 CURVE SMOOTH",
"360 845 OFFCURVE",
"347 834 OFFCURVE",
"343 815 CURVE",
"340 796 OFFCURVE",
"348 785 OFFCURVE",
"364 785 CURVE SMOOTH"
);
},
{
closed = 1;
nodes = (
"568 785 OFFCURVE",
"583 796 OFFCURVE",
"587 815 CURVE SMOOTH",
"590 834 OFFCURVE",
"581 845 OFFCURVE",
"564 845 CURVE SMOOTH",
"548 845 OFFCURVE",
"535 834 OFFCURVE",
"531 815 CURVE SMOOTH",
"527 796 OFFCURVE",
"536 785 OFFCURVE",
"552 785 CURVE SMOOTH"
);
}
);
width = 676;
}
);
leftKerningGroup = O;
note = Odieresis;
rightKerningGroup = O;
unicode = 00D6;
},
{
glyphname = Odotbelow;
lastChange = "2015-10-22 12:03:08 +0000";
layers = (
{
layerId = "C8730BEE-A5E2-4294-A2BB-9D9AC44EE1E3";
name = "Light Italic";
paths = (
{
closed = 1;
nodes = (
"482 -10 OFFCURVE",
"622 117 OFFCURVE",
"670 350 CURVE SMOOTH",
"717 583 OFFCURVE",
"629 710 OFFCURVE",
"444 710 CURVE SMOOTH",
"258 710 OFFCURVE",
"118 583 OFFCURVE",
"71 350 CURVE SMOOTH",
"23 117 OFFCURVE",
"111 -10 OFFCURVE",
"297 -10 CURVE SMOOTH"
);
},
{
closed = 1;
nodes = (
"291 -124 OFFCURVE",
"304 -113 OFFCURVE",
"309 -94 CURVE",
"313 -75 OFFCURVE",
"303 -64 OFFCURVE",
"287 -64 CURVE SMOOTH",
"271 -64 OFFCURVE",
"257 -75 OFFCURVE",
"253 -94 CURVE",
"249 -113 OFFCURVE",
"258 -124 OFFCURVE",
"275 -124 CURVE SMOOTH"
);
},
{
closed = 1;
nodes = (
"116 14 OFFCURVE",
"60 154 OFFCURVE",
"101 350 CURVE SMOOTH",
"141 546 OFFCURVE",
"253 686 OFFCURVE",
"439 686 CURVE SMOOTH",
"624 686 OFFCURVE",
"681 546 OFFCURVE",
"640 350 CURVE SMOOTH",
"600 154 OFFCURVE",
"487 14 OFFCURVE",
"301 14 CURVE SMOOTH"
);
}
);
width = 676;
}
);
leftKerningGroup = O;
note = Odotbelow;
rightKerningGroup = O;
unicode = 1ECC;
},
{
glyphname = Ograve;
lastChange = "2015-10-22 12:03:09 +0000";
layers = (
{
layerId = "C8730BEE-A5E2-4294-A2BB-9D9AC44EE1E3";
name = "Light Italic";
paths = (
{
closed = 1;
nodes = (
"482 -10 OFFCURVE",
"622 117 OFFCURVE",
"670 350 CURVE SMOOTH",
"717 583 OFFCURVE",
"629 710 OFFCURVE",
"444 710 CURVE SMOOTH",
"258 710 OFFCURVE",
"118 583 OFFCURVE",
"71 350 CURVE SMOOTH",
"23 117 OFFCURVE",
"111 -10 OFFCURVE",
"297 -10 CURVE SMOOTH"
);
},
{
closed = 1;
nodes = (
"116 14 OFFCURVE",
"60 154 OFFCURVE",
"101 350 CURVE SMOOTH",
"141 546 OFFCURVE",
"253 686 OFFCURVE",
"439 686 CURVE SMOOTH",
"624 686 OFFCURVE",
"681 546 OFFCURVE",
"640 350 CURVE SMOOTH",
"600 154 OFFCURVE",
"487 14 OFFCURVE",
"301 14 CURVE SMOOTH"
);
},
{
closed = 1;
nodes = (
"511 798 LINE",
"426 885 LINE",
"420 891 OFFCURVE",
"413 897 OFFCURVE",
"403 897 CURVE SMOOTH",
"396 897 OFFCURVE",
"389 892 OFFCURVE",
"387 883 CURVE",
"386 875 OFFCURVE",
"389 866 OFFCURVE",
"397 860 CURVE SMOOTH",
"502 788 LINE"
);
}
);
width = 676;
}
);
leftKerningGroup = O;
note = Ograve;
rightKerningGroup = O;
unicode = 00D2;
},
{
glyphname = Ohookabove;
lastChange = "2015-10-22 12:03:08 +0000";
layers = (
{
layerId = "C8730BEE-A5E2-4294-A2BB-9D9AC44EE1E3";
name = "Light Italic";
paths = (
{
closed = 1;
nodes = (
"482 -10 OFFCURVE",
"622 117 OFFCURVE",
"670 350 CURVE SMOOTH",
"717 583 OFFCURVE",
"629 710 OFFCURVE",
"444 710 CURVE SMOOTH",
"258 710 OFFCURVE",
"118 583 OFFCURVE",
"71 350 CURVE SMOOTH",
"23 117 OFFCURVE",
"111 -10 OFFCURVE",
"297 -10 CURVE SMOOTH"
);
},
{
closed = 1;
nodes = (
"116 14 OFFCURVE",
"60 154 OFFCURVE",
"101 350 CURVE SMOOTH",
"141 546 OFFCURVE",
"253 686 OFFCURVE",
"439 686 CURVE SMOOTH",
"624 686 OFFCURVE",
"681 546 OFFCURVE",
"640 350 CURVE SMOOTH",
"600 154 OFFCURVE",
"487 14 OFFCURVE",
"301 14 CURVE SMOOTH"
);
},
{
closed = 1;
nodes = (
"475 794 LINE",
"460 799 OFFCURVE",
"451 802 OFFCURVE",
"455 821 CURVE SMOOTH",
"462 851 OFFCURVE",
"538 869 OFFCURVE",
"547 915 CURVE SMOOTH",
"555 951 OFFCURVE",
"528 966 OFFCURVE",
"491 966 CURVE SMOOTH",
"452 966 OFFCURVE",
"420 949 OFFCURVE",
"415 924 CURVE SMOOTH",
"412 910 OFFCURVE",
"416 905 OFFCURVE",
"424 905 CURVE SMOOTH",
"436 905 OFFCURVE",
"439 910 OFFCURVE",
"447 927 CURVE SMOOTH",
"455 942 OFFCURVE",
"473 947 OFFCURVE",
"489 947 CURVE SMOOTH",
"516 947 OFFCURVE",
"521 933 OFFCURVE",
"518 917 CURVE SMOOTH",
"510 876 OFFCURVE",
"435 863 OFFCURVE",
"426 821 CURVE SMOOTH",
"421 797 OFFCURVE",
"435 779 OFFCURVE",
"466 779 CURVE"
);
}
);
width = 676;
}
);
leftKerningGroup = O;
note = Ohookabove;
rightKerningGroup = O;
unicode = 1ECE;
},
{
glyphname = Ohorn;
lastChange = "2015-10-22 12:03:08 +0000";
layers = (
{
layerId = "C8730BEE-A5E2-4294-A2BB-9D9AC44EE1E3";
name = "Light Italic";
paths = (
{
closed = 1;
nodes = (
"482 -10 OFFCURVE",
"622 117 OFFCURVE",
"670 350 CURVE SMOOTH",
"717 583 OFFCURVE",
"629 710 OFFCURVE",
"444 710 CURVE SMOOTH",
"258 710 OFFCURVE",
"118 583 OFFCURVE",
"71 350 CURVE SMOOTH",
"23 117 OFFCURVE",
"111 -10 OFFCURVE",
"297 -10 CURVE SMOOTH"
);
},
{
closed = 1;
nodes = (
"116 14 OFFCURVE",
"60 154 OFFCURVE",
"101 350 CURVE SMOOTH",
"141 546 OFFCURVE",
"253 686 OFFCURVE",
"439 686 CURVE SMOOTH",
"624 686 OFFCURVE",
"681 546 OFFCURVE",
"640 350 CURVE SMOOTH",
"600 154 OFFCURVE",
"487 14 OFFCURVE",
"301 14 CURVE SMOOTH"
);
},
{
closed = 1;
nodes = (
"697 623 OFFCURVE",
"735 672 OFFCURVE",
"745 720 CURVE SMOOTH",
"752 755 OFFCURVE",
"736 763 OFFCURVE",
"723 763 CURVE SMOOTH",
"707 763 OFFCURVE",
"695 750 OFFCURVE",
"692 735 CURVE SMOOTH",
"686 707 OFFCURVE",
"711 708 OFFCURVE",
"706 680 CURVE SMOOTH",
"700 650 OFFCURVE",
"665 624 OFFCURVE",
"642 609 CURVE",
"639 592 LINE"
);
}
);
width = 676;
}
);
leftKerningGroup = O;
note = Ohorn;
rightKerningGroup = O;
unicode = 01A0;
},
{
glyphname = Ohornacute;
lastChange = "2015-10-22 12:03:08 +0000";
layers = (
{
layerId = "C8730BEE-A5E2-4294-A2BB-9D9AC44EE1E3";
name = "Light Italic";
paths = (
{
closed = 1;
nodes = (
"482 -10 OFFCURVE",
"622 117 OFFCURVE",
"670 350 CURVE SMOOTH",
"717 583 OFFCURVE",
"629 710 OFFCURVE",
"444 710 CURVE SMOOTH",
"258 710 OFFCURVE",
"118 583 OFFCURVE",
"71 350 CURVE SMOOTH",
"23 117 OFFCURVE",
"111 -10 OFFCURVE",
"297 -10 CURVE SMOOTH"
);
},
{
closed = 1;
nodes = (
"116 14 OFFCURVE",
"60 154 OFFCURVE",
"101 350 CURVE SMOOTH",
"141 546 OFFCURVE",
"253 686 OFFCURVE",
"439 686 CURVE SMOOTH",
"624 686 OFFCURVE",
"681 546 OFFCURVE",
"640 350 CURVE SMOOTH",
"600 154 OFFCURVE",
"487 14 OFFCURVE",
"301 14 CURVE SMOOTH"
);
},
{
closed = 1;
nodes = (
"511 859 LINE",
"523 865 OFFCURVE",
"530 874 OFFCURVE",
"531 882 CURVE",
"533 891 OFFCURVE",
"527 896 OFFCURVE",
"520 896 CURVE SMOOTH",
"511 896 OFFCURVE",
"502 890 OFFCURVE",
"493 884 CURVE SMOOTH",
"372 797 LINE",
"377 787 LINE"
);
},
{
closed = 1;
nodes = (
"697 623 OFFCURVE",
"735 672 OFFCURVE",
"745 720 CURVE SMOOTH",
"752 755 OFFCURVE",
"736 763 OFFCURVE",
"723 763 CURVE SMOOTH",
"707 763 OFFCURVE",
"695 750 OFFCURVE",
"692 735 CURVE SMOOTH",
"686 707 OFFCURVE",
"711 708 OFFCURVE",
"706 680 CURVE SMOOTH",
"700 650 OFFCURVE",
"665 624 OFFCURVE",
"642 609 CURVE",
"639 592 LINE"
);
}
);
width = 676;
}
);
leftKerningGroup = O;
note = Ohornacute;
rightKerningGroup = O;
unicode = 1EDA;
},
{
glyphname = Ohorndotbelow;
lastChange = "2015-10-22 12:03:09 +0000";
layers = (
{
layerId = "C8730BEE-A5E2-4294-A2BB-9D9AC44EE1E3";
name = "Light Italic";
paths = (
{
closed = 1;
nodes = (
"482 -10 OFFCURVE",
"622 117 OFFCURVE",
"670 350 CURVE SMOOTH",
"717 583 OFFCURVE",
"629 710 OFFCURVE",
"444 710 CURVE SMOOTH",
"258 710 OFFCURVE",
"118 583 OFFCURVE",
"71 350 CURVE SMOOTH",
"23 117 OFFCURVE",
"111 -10 OFFCURVE",
"297 -10 CURVE SMOOTH"
);
},
{
closed = 1;
nodes = (
"270 -124 OFFCURVE",
"283 -113 OFFCURVE",
"288 -94 CURVE",
"292 -75 OFFCURVE",
"282 -64 OFFCURVE",
"266 -64 CURVE SMOOTH",
"250 -64 OFFCURVE",
"236 -75 OFFCURVE",
"232 -94 CURVE",
"228 -113 OFFCURVE",
"237 -124 OFFCURVE",
"253 -124 CURVE SMOOTH"
);
},
{
closed = 1;
nodes = (
"116 14 OFFCURVE",
"60 154 OFFCURVE",
"101 350 CURVE SMOOTH",
"141 546 OFFCURVE",
"253 686 OFFCURVE",
"439 686 CURVE SMOOTH",
"624 686 OFFCURVE",
"681 546 OFFCURVE",
"640 350 CURVE SMOOTH",
"600 154 OFFCURVE",
"487 14 OFFCURVE",
"301 14 CURVE SMOOTH"
);
},
{
closed = 1;
nodes = (
"697 623 OFFCURVE",
"735 672 OFFCURVE",
"745 720 CURVE SMOOTH",
"752 755 OFFCURVE",
"736 763 OFFCURVE",
"723 763 CURVE SMOOTH",
"707 763 OFFCURVE",
"695 750 OFFCURVE",
"692 735 CURVE SMOOTH",
"686 707 OFFCURVE",
"711 708 OFFCURVE",
"706 680 CURVE SMOOTH",
"700 650 OFFCURVE",
"665 624 OFFCURVE",
"642 609 CURVE",
"639 592 LINE"
);
}
);
width = 676;
}
);
leftKerningGroup = O;
note = Ohorndotbelow;
rightKerningGroup = O;
unicode = 1EE2;
},
{
glyphname = Ohorngrave;
lastChange = "2015-10-22 12:03:08 +0000";
layers = (
{
layerId = "C8730BEE-A5E2-4294-A2BB-9D9AC44EE1E3";
name = "Light Italic";
paths = (
{
closed = 1;
nodes = (
"482 -10 OFFCURVE",
"622 117 OFFCURVE",
"670 350 CURVE SMOOTH",
"717 583 OFFCURVE",
"629 710 OFFCURVE",
"444 710 CURVE SMOOTH",
"258 710 OFFCURVE",
"118 583 OFFCURVE",
"71 350 CURVE SMOOTH",
"23 117 OFFCURVE",
"111 -10 OFFCURVE",
"297 -10 CURVE SMOOTH"
);
},
{
closed = 1;
nodes = (
"116 14 OFFCURVE",
"60 154 OFFCURVE",
"101 350 CURVE SMOOTH",
"141 546 OFFCURVE",
"253 686 OFFCURVE",
"439 686 CURVE SMOOTH",
"624 686 OFFCURVE",
"681 546 OFFCURVE",
"640 350 CURVE SMOOTH",
"600 154 OFFCURVE",
"487 14 OFFCURVE",
"301 14 CURVE SMOOTH"
);
},
{
closed = 1;
nodes = (
"512 797 LINE",
"427 884 LINE",
"420 890 OFFCURVE",
"414 896 OFFCURVE",
"404 896 CURVE SMOOTH",
"397 896 OFFCURVE",
"390 891 OFFCURVE",
"388 882 CURVE",
"387 874 OFFCURVE",
"390 865 OFFCURVE",
"398 859 CURVE SMOOTH",
"503 787 LINE"
);
},
{
closed = 1;
nodes = (
"697 623 OFFCURVE",
"735 672 OFFCURVE",
"745 720 CURVE SMOOTH",
"752 755 OFFCURVE",
"736 763 OFFCURVE",
"723 763 CURVE SMOOTH",
"707 763 OFFCURVE",
"695 750 OFFCURVE",
"692 735 CURVE SMOOTH",
"686 707 OFFCURVE",
"711 708 OFFCURVE",
"706 680 CURVE SMOOTH",
"700 650 OFFCURVE",
"665 624 OFFCURVE",
"642 609 CURVE",
"639 592 LINE"
);
}
);
width = 676;
}
);
leftKerningGroup = O;
note = Ohorngrave;
rightKerningGroup = O;
unicode = 1EDC;
},
{
glyphname = Ohornhookabove;
lastChange = "2015-10-22 12:03:08 +0000";
layers = (
{
layerId = "C8730BEE-A5E2-4294-A2BB-9D9AC44EE1E3";
name = "Light Italic";
paths = (
{
closed = 1;
nodes = (
"482 -10 OFFCURVE",
"622 117 OFFCURVE",
"670 350 CURVE SMOOTH",
"717 583 OFFCURVE",
"629 710 OFFCURVE",
"444 710 CURVE SMOOTH",
"258 710 OFFCURVE",
"118 583 OFFCURVE",
"71 350 CURVE SMOOTH",
"23 117 OFFCURVE",
"111 -10 OFFCURVE",
"297 -10 CURVE SMOOTH"
);
},
{
closed = 1;
nodes = (
"116 14 OFFCURVE",
"60 154 OFFCURVE",
"101 350 CURVE SMOOTH",
"141 546 OFFCURVE",
"253 686 OFFCURVE",
"439 686 CURVE SMOOTH",
"624 686 OFFCURVE",
"681 546 OFFCURVE",
"640 350 CURVE SMOOTH",
"600 154 OFFCURVE",
"487 14 OFFCURVE",
"301 14 CURVE SMOOTH"
);
},
{
closed = 1;
nodes = (
"489 794 LINE",
"473 799 OFFCURVE",
"465 802 OFFCURVE",
"468 821 CURVE SMOOTH",
"475 851 OFFCURVE",
"551 869 OFFCURVE",
"561 915 CURVE SMOOTH",
"568 951 OFFCURVE",
"541 966 OFFCURVE",
"504 966 CURVE SMOOTH",
"466 966 OFFCURVE",
"433 949 OFFCURVE",
"428 924 CURVE SMOOTH",
"425 910 OFFCURVE",
"429 905 OFFCURVE",
"438 905 CURVE SMOOTH",
"449 905 OFFCURVE",
"452 910 OFFCURVE",
"461 927 CURVE SMOOTH",
"468 942 OFFCURVE",
"487 947 OFFCURVE",
"502 947 CURVE SMOOTH",
"529 947 OFFCURVE",
"535 933 OFFCURVE",
"532 917 CURVE SMOOTH",
"523 876 OFFCURVE",
"448 863 OFFCURVE",
"440 821 CURVE SMOOTH",
"435 797 OFFCURVE",
"448 779 OFFCURVE",
"479 779 CURVE"
);
},
{
closed = 1;
nodes = (
"697 623 OFFCURVE",
"735 672 OFFCURVE",
"745 720 CURVE SMOOTH",
"752 755 OFFCURVE",
"736 763 OFFCURVE",
"723 763 CURVE SMOOTH",
"707 763 OFFCURVE",
"695 750 OFFCURVE",
"692 735 CURVE SMOOTH",
"686 707 OFFCURVE",
"711 708 OFFCURVE",
"706 680 CURVE SMOOTH",
"700 650 OFFCURVE",
"665 624 OFFCURVE",
"642 609 CURVE",
"639 592 LINE"
);
}
);
width = 676;
}
);
leftKerningGroup = O;
note = Ohornhookabove;
rightKerningGroup = O;
unicode = 1EDE;
},
{
glyphname = Ohorntilde;
lastChange = "2015-10-22 12:03:08 +0000";
layers = (
{
layerId = "C8730BEE-A5E2-4294-A2BB-9D9AC44EE1E3";
name = "Light Italic";
paths = (
{
closed = 1;
nodes = (
"482 -10 OFFCURVE",
"622 117 OFFCURVE",
"670 350 CURVE SMOOTH",
"717 583 OFFCURVE",
"629 710 OFFCURVE",
"444 710 CURVE SMOOTH",
"258 710 OFFCURVE",
"118 583 OFFCURVE",
"71 350 CURVE SMOOTH",
"23 117 OFFCURVE",
"111 -10 OFFCURVE",
"297 -10 CURVE SMOOTH"
);
},
{
closed = 1;
nodes = (
"116 14 OFFCURVE",
"60 154 OFFCURVE",
"101 350 CURVE SMOOTH",
"141 546 OFFCURVE",
"253 686 OFFCURVE",
"439 686 CURVE SMOOTH",
"624 686 OFFCURVE",
"681 546 OFFCURVE",
"640 350 CURVE SMOOTH",
"600 154 OFFCURVE",
"487 14 OFFCURVE",
"301 14 CURVE SMOOTH"
);
},
{
closed = 1;
nodes = (
"338 824 OFFCURVE",
"361 848 OFFCURVE",
"389 848 CURVE SMOOTH",
"428 848 OFFCURVE",
"458 788 OFFCURVE",
"499 788 CURVE SMOOTH",
"539 788 OFFCURVE",
"569 815 OFFCURVE",
"589 871 CURVE",
"576 878 LINE",
"559 838 OFFCURVE",
"538 812 OFFCURVE",
"507 812 CURVE SMOOTH",
"469 812 OFFCURVE",
"437 871 OFFCURVE",
"396 871 CURVE SMOOTH",
"361 871 OFFCURVE",
"326 849 OFFCURVE",
"308 794 CURVE",
"321 786 LINE"
);
},
{
closed = 1;
nodes = (
"697 623 OFFCURVE",
"735 672 OFFCURVE",
"745 720 CURVE SMOOTH",
"752 755 OFFCURVE",
"736 763 OFFCURVE",
"723 763 CURVE SMOOTH",
"707 763 OFFCURVE",
"695 750 OFFCURVE",
"692 735 CURVE SMOOTH",
"686 707 OFFCURVE",
"711 708 OFFCURVE",
"706 680 CURVE SMOOTH",
"700 650 OFFCURVE",
"665 624 OFFCURVE",
"642 609 CURVE",
"639 592 LINE"
);
}
);
width = 676;
}
);
leftKerningGroup = O;
note = Ohorntilde;
rightKerningGroup = O;
unicode = 1EE0;
},
{
glyphname = Ohungarumlaut;
lastChange = "2015-10-22 12:03:09 +0000";
layers = (
{
layerId = "C8730BEE-A5E2-4294-A2BB-9D9AC44EE1E3";
name = "Light Italic";
paths = (
{
closed = 1;
nodes = (
"482 -10 OFFCURVE",
"622 117 OFFCURVE",
"670 350 CURVE SMOOTH",
"717 583 OFFCURVE",
"629 710 OFFCURVE",
"444 710 CURVE SMOOTH",
"258 710 OFFCURVE",
"118 583 OFFCURVE",
"71 350 CURVE SMOOTH",
"23 117 OFFCURVE",
"111 -10 OFFCURVE",
"297 -10 CURVE SMOOTH"
);
},
{
closed = 1;
nodes = (
"116 14 OFFCURVE",
"60 154 OFFCURVE",
"101 350 CURVE SMOOTH",
"141 546 OFFCURVE",
"253 686 OFFCURVE",
"439 686 CURVE SMOOTH",
"624 686 OFFCURVE",
"681 546 OFFCURVE",
"640 350 CURVE SMOOTH",
"600 154 OFFCURVE",
"487 14 OFFCURVE",
"301 14 CURVE SMOOTH"
);
},
{
closed = 1;
nodes = (
"502 861 LINE SMOOTH",
"514 867 OFFCURVE",
"520 876 OFFCURVE",
"521 884 CURVE",
"523 893 OFFCURVE",
"517 898 OFFCURVE",
"511 898 CURVE SMOOTH",
"501 898 OFFCURVE",
"492 892 OFFCURVE",
"484 886 CURVE SMOOTH",
"363 799 LINE",
"368 789 LINE"
);
},
{
closed = 1;
nodes = (
"616 861 LINE SMOOTH",
"628 867 OFFCURVE",
"635 876 OFFCURVE",
"636 884 CURVE",
"637 893 OFFCURVE",
"632 898 OFFCURVE",
"625 898 CURVE SMOOTH",
"615 898 OFFCURVE",
"607 892 OFFCURVE",
"598 886 CURVE SMOOTH",
"477 799 LINE",
"482 789 LINE"
);
}
);
width = 676;
}
);
leftKerningGroup = O;
note = Ohungarumlaut;
rightKerningGroup = O;
unicode = 0150;
},
{
glyphname = Omacron;
lastChange = "2015-10-22 12:03:08 +0000";
layers = (
{
layerId = "C8730BEE-A5E2-4294-A2BB-9D9AC44EE1E3";
name = "Light Italic";
paths = (
{
closed = 1;
nodes = (
"482 -10 OFFCURVE",
"622 117 OFFCURVE",
"670 350 CURVE SMOOTH",
"717 583 OFFCURVE",
"629 710 OFFCURVE",
"444 710 CURVE SMOOTH",
"258 710 OFFCURVE",
"118 583 OFFCURVE",
"71 350 CURVE SMOOTH",
"23 117 OFFCURVE",
"111 -10 OFFCURVE",
"297 -10 CURVE SMOOTH"
);
},
{
closed = 1;
nodes = (
"116 14 OFFCURVE",
"60 154 OFFCURVE",
"101 350 CURVE SMOOTH",
"141 546 OFFCURVE",
"253 686 OFFCURVE",
"439 686 CURVE SMOOTH",
"624 686 OFFCURVE",
"681 546 OFFCURVE",
"640 350 CURVE SMOOTH",
"600 154 OFFCURVE",
"487 14 OFFCURVE",
"301 14 CURVE SMOOTH"
);
},
{
closed = 1;
nodes = (
"593 806 LINE",
"598 828 LINE",
"336 828 LINE",
"331 806 LINE"
);
}
);
width = 676;
}
);
leftKerningGroup = O;
note = Omacron;
rightKerningGroup = O;
unicode = 014C;
},
{
glyphname = Oslash;
lastChange = "2015-10-22 12:03:09 +0000";
layers = (
{
layerId = "C8730BEE-A5E2-4294-A2BB-9D9AC44EE1E3";
name = "Light Italic";
paths = (
{
closed = 1;
nodes = (
"713 709 LINE",
"689 722 LINE",
"30 4 LINE",
"53 -10 LINE"
);
},
{
closed = 1;
nodes = (
"482 -10 OFFCURVE",
"622 117 OFFCURVE",
"670 350 CURVE SMOOTH",
"717 583 OFFCURVE",
"629 710 OFFCURVE",
"444 710 CURVE SMOOTH",
"258 710 OFFCURVE",
"118 583 OFFCURVE",
"71 350 CURVE SMOOTH",
"23 117 OFFCURVE",
"111 -10 OFFCURVE",
"297 -10 CURVE SMOOTH"
);
},
{
closed = 1;
nodes = (
"116 14 OFFCURVE",
"60 154 OFFCURVE",
"101 350 CURVE SMOOTH",
"141 546 OFFCURVE",
"253 686 OFFCURVE",
"439 686 CURVE SMOOTH",
"624 686 OFFCURVE",
"681 546 OFFCURVE",
"640 350 CURVE SMOOTH",
"600 154 OFFCURVE",
"487 14 OFFCURVE",
"301 14 CURVE SMOOTH"
);
}
);
width = 676;
}
);
leftKerningGroup = O;
note = Oslash;
rightKerningGroup = O;
unicode = 00D8;
},
{
glyphname = Oslashacute;
lastChange = "2015-10-22 12:03:08 +0000";
layers = (
{
layerId = "C8730BEE-A5E2-4294-A2BB-9D9AC44EE1E3";
name = "Light Italic";
paths = (
{
closed = 1;
nodes = (
"713 709 LINE",
"689 722 LINE",
"30 4 LINE",
"53 -10 LINE"
);
},
{
closed = 1;
nodes = (
"482 -10 OFFCURVE",
"622 117 OFFCURVE",
"670 350 CURVE SMOOTH",
"717 583 OFFCURVE",
"629 710 OFFCURVE",
"444 710 CURVE SMOOTH",
"258 710 OFFCURVE",
"118 583 OFFCURVE",
"71 350 CURVE SMOOTH",
"23 117 OFFCURVE",
"111 -10 OFFCURVE",
"297 -10 CURVE SMOOTH"
);
},
{
closed = 1;
nodes = (
"116 14 OFFCURVE",
"60 154 OFFCURVE",
"101 350 CURVE SMOOTH",
"141 546 OFFCURVE",
"253 686 OFFCURVE",
"439 686 CURVE SMOOTH",
"624 686 OFFCURVE",
"681 546 OFFCURVE",
"640 350 CURVE SMOOTH",
"600 154 OFFCURVE",
"487 14 OFFCURVE",
"301 14 CURVE SMOOTH"
);
},
{
closed = 1;
nodes = (
"539 860 LINE",
"551 866 OFFCURVE",
"558 875 OFFCURVE",
"559 883 CURVE",
"561 892 OFFCURVE",
"555 897 OFFCURVE",
"548 897 CURVE SMOOTH",
"539 897 OFFCURVE",
"530 891 OFFCURVE",
"521 885 CURVE SMOOTH",
"400 798 LINE",
"405 788 LINE"
);
}
);
width = 676;
}
);
leftKerningGroup = O;
note = Oslashacute;
rightKerningGroup = O;
unicode = 01FE;
},
{
glyphname = Otilde;
lastChange = "2015-10-22 12:03:09 +0000";
layers = (
{
layerId = "C8730BEE-A5E2-4294-A2BB-9D9AC44EE1E3";
name = "Light Italic";
paths = (
{
closed = 1;
nodes = (
"482 -10 OFFCURVE",
"622 117 OFFCURVE",
"670 350 CURVE SMOOTH",
"717 583 OFFCURVE",
"629 710 OFFCURVE",
"444 710 CURVE SMOOTH",
"258 710 OFFCURVE",
"118 583 OFFCURVE",
"71 350 CURVE SMOOTH",
"23 117 OFFCURVE",
"111 -10 OFFCURVE",
"297 -10 CURVE SMOOTH"
);
},
{
closed = 1;
nodes = (
"116 14 OFFCURVE",
"60 154 OFFCURVE",
"101 350 CURVE SMOOTH",
"141 546 OFFCURVE",
"253 686 OFFCURVE",
"439 686 CURVE SMOOTH",
"624 686 OFFCURVE",
"681 546 OFFCURVE",
"640 350 CURVE SMOOTH",
"600 154 OFFCURVE",
"487 14 OFFCURVE",
"301 14 CURVE SMOOTH"
);
},
{
closed = 1;
nodes = (
"358 824 OFFCURVE",
"381 848 OFFCURVE",
"409 848 CURVE SMOOTH",
"448 848 OFFCURVE",
"478 788 OFFCURVE",
"519 788 CURVE SMOOTH",
"559 788 OFFCURVE",
"589 815 OFFCURVE",
"610 871 CURVE",
"596 878 LINE",
"579 838 OFFCURVE",
"558 812 OFFCURVE",
"527 812 CURVE SMOOTH",
"490 812 OFFCURVE",
"457 871 OFFCURVE",
"416 871 CURVE SMOOTH",
"381 871 OFFCURVE",
"347 849 OFFCURVE",
"328 794 CURVE",
"341 786 LINE"
);
}
);
width = 676;
}
);
leftKerningGroup = O;
note = Otilde;
rightKerningGroup = O;
unicode = 00D5;
},
{
glyphname = OE;
lastChange = "2015-10-22 12:03:08 +0000";
layers = (
{
layerId = "C8730BEE-A5E2-4294-A2BB-9D9AC44EE1E3";
name = "Light Italic";
paths = (
{
closed = 1;
nodes = (
"389 -10 OFFCURVE",
"467 18 OFFCURVE",
"531 72 CURVE",
"529 104 LINE",
"471 47 OFFCURVE",
"396 14 OFFCURVE",
"306 14 CURVE SMOOTH",
"121 14 OFFCURVE",
"60 154 OFFCURVE",
"101 350 CURVE SMOOTH",
"141 546 OFFCURVE",
"258 686 OFFCURVE",
"444 686 CURVE SMOOTH",
"533 686 OFFCURVE",
"594 653 OFFCURVE",
"628 597 CURVE",
"640 633 LINE",
"599 684 OFFCURVE",
"533 710 OFFCURVE",
"448 710 CURVE SMOOTH",
"263 710 OFFCURVE",
"118 583 OFFCURVE",
"71 350 CURVE SMOOTH",
"23 117 OFFCURVE",
"116 -10 OFFCURVE",
"301 -10 CURVE SMOOTH"
);
},
{
closed = 1;
nodes = (
"847 0 LINE",
"894 166 LINE",
"881 166 LINE",
"870 123 OFFCURVE",
"833 24 OFFCURVE",
"778 24 CURVE SMOOTH",
"531 24 LINE",
"663 676 LINE",
"905 676 LINE SMOOTH",
"963 676 OFFCURVE",
"952 589 OFFCURVE",
"946 546 CURVE",
"958 546 LINE",
"989 700 LINE",
"637 700 LINE",
"495 0 LINE"
);
},
{
closed = 1;
nodes = (
"816 258 LINE",
"863 488 LINE",
"850 488 LINE",
"835 434 OFFCURVE",
"822 385 OFFCURVE",
"780 385 CURVE SMOOTH",
"592 385 LINE",
"588 361 LINE",
"775 361 LINE SMOOTH",
"817 361 OFFCURVE",
"810 312 OFFCURVE",
"803 258 CURVE"
);
}
);
width = 937;
}
);
leftKerningGroup = O;
note = OE;
rightKerningGroup = E;
unicode = 0152;
},
{
glyphname = P;
lastChange = "2015-10-22 12:03:08 +0000";
layers = (
{
layerId = "C8730BEE-A5E2-4294-A2BB-9D9AC44EE1E3";
name = "Light Italic";
paths = (
{
closed = 1;
nodes = (
"190 0 LINE",
"192 14 LINE",
"166 14 LINE SMOOTH",
"129 14 OFFCURVE",
"109 23 OFFCURVE",
"114 47 CURVE SMOOTH",
"162 281 LINE",
"336 281 LINE SMOOTH",
"473 281 OFFCURVE",
"544 369 OFFCURVE",
"569 491 CURVE SMOOTH",
"594 614 OFFCURVE",
"559 700 OFFCURVE",
"421 700 CURVE SMOOTH",
"132 700 LINE",
"130 686 LINE",
"156 686 LINE SMOOTH",
"193 686 OFFCURVE",
"212 677 OFFCURVE",
"207 653 CURVE SMOOTH",
"84 47 LINE SMOOTH",
"79 23 OFFCURVE",
"56 14 OFFCURVE",
"18 14 CURVE SMOOTH",
"-8 14 LINE",
"-10 0 LINE"
);
},
{
closed = 1;
nodes = (
"243 676 LINE",
"418 676 LINE SMOOTH",
"533 676 OFFCURVE",
"562 599 OFFCURVE",
"540 491 CURVE SMOOTH",
"517 384 OFFCURVE",
"457 305 OFFCURVE",
"342 305 CURVE SMOOTH",
"167 305 LINE"
);
}
);
width = 526;
}
);
note = P;
unicode = 0050;
},
{
glyphname = Thorn;
lastChange = "2015-10-22 12:03:09 +0000";
layers = (
{
layerId = "C8730BEE-A5E2-4294-A2BB-9D9AC44EE1E3";
name = "Light Italic";
paths = (
{
closed = 1;
nodes = (
"190 0 LINE",
"192 14 LINE",
"166 14 LINE SMOOTH",
"129 14 OFFCURVE",
"109 23 OFFCURVE",
"114 47 CURVE SMOOTH",
"139 165 LINE",
"313 165 LINE SMOOTH",
"450 165 OFFCURVE",
"520 253 OFFCURVE",
"545 375 CURVE SMOOTH",
"570 498 OFFCURVE",
"536 584 OFFCURVE",
"398 584 CURVE SMOOTH",
"225 584 LINE",
"248 700 LINE",
"132 700 LINE",
"130 686 LINE",
"156 686 LINE SMOOTH",
"193 686 OFFCURVE",
"212 677 OFFCURVE",
"207 653 CURVE SMOOTH",
"84 47 LINE SMOOTH",
"79 23 OFFCURVE",
"56 14 OFFCURVE",
"18 14 CURVE SMOOTH",
"-8 14 LINE",
"-10 0 LINE"
);
},
{
closed = 1;
nodes = (
"220 560 LINE",
"395 560 LINE SMOOTH",
"510 560 OFFCURVE",
"538 483 OFFCURVE",
"516 375 CURVE SMOOTH",
"493 268 OFFCURVE",
"434 189 OFFCURVE",
"319 189 CURVE SMOOTH",
"144 189 LINE"
);
}
);
width = 526;
}
);
note = Thorn;
unicode = 00DE;
},
{
glyphname = Q;
lastChange = "2015-10-22 12:03:08 +0000";
layers = (
{
layerId = "C8730BEE-A5E2-4294-A2BB-9D9AC44EE1E3";
name = "Light Italic";
paths = (
{
closed = 1;
nodes = (
"482 -10 OFFCURVE",
"622 117 OFFCURVE",
"670 350 CURVE SMOOTH",
"717 583 OFFCURVE",
"629 710 OFFCURVE",
"444 710 CURVE SMOOTH",
"258 710 OFFCURVE",
"118 583 OFFCURVE",
"71 350 CURVE SMOOTH",
"23 117 OFFCURVE",
"111 -10 OFFCURVE",
"297 -10 CURVE SMOOTH"
);
},
{
closed = 1;
nodes = (
"535 -138 OFFCURVE",
"582 -88 OFFCURVE",
"604 -39 CURVE SMOOTH",
"607 -33 OFFCURVE",
"610 -26 OFFCURVE",
"612 -20 CURVE",
"593 -20 LINE",
"569 -71 OFFCURVE",
"518 -117 OFFCURVE",
"474 -117 CURVE SMOOTH",
"392 -117 OFFCURVE",
"327 -32 OFFCURVE",
"258 -32 CURVE SMOOTH",
"247 -32 LINE",
"271 -17 OFFCURVE",
"286 -9 OFFCURVE",
"307 0 CURVE",
"307 4 LINE",
"274 4 LINE",
"212 -19 OFFCURVE",
"168 -50 OFFCURVE",
"127 -81 CURVE",
"132 -95 LINE",
"161 -74 OFFCURVE",
"206 -48 OFFCURVE",
"233 -48 CURVE SMOOTH",
"306 -48 OFFCURVE",
"359 -138 OFFCURVE",
"465 -138 CURVE SMOOTH"
);
},
{
closed = 1;
nodes = (
"116 14 OFFCURVE",
"60 154 OFFCURVE",
"101 350 CURVE SMOOTH",
"141 546 OFFCURVE",
"253 686 OFFCURVE",
"439 686 CURVE SMOOTH",
"624 686 OFFCURVE",
"681 546 OFFCURVE",
"640 350 CURVE SMOOTH",
"600 154 OFFCURVE",
"487 14 OFFCURVE",
"301 14 CURVE SMOOTH"
);
}
);
width = 676;
}
);
leftKerningGroup = O;
note = Q;
rightKerningGroup = O;
unicode = 0051;
},
{
glyphname = R;
lastChange = "2015-10-22 12:03:08 +0000";
layers = (
{
layerId = "C8730BEE-A5E2-4294-A2BB-9D9AC44EE1E3";
name = "Light Italic";
paths = (
{
closed = 1;
nodes = (
"190 0 LINE",
"192 14 LINE",
"166 14 LINE SMOOTH",
"129 14 OFFCURVE",
"109 23 OFFCURVE",
"114 47 CURVE SMOOTH",
"165 295 LINE",
"332 295 LINE SMOOTH",
"469 295 OFFCURVE",
"541 376 OFFCURVE",
"566 498 CURVE SMOOTH",
"591 621 OFFCURVE",
"552 700 OFFCURVE",
"415 700 CURVE SMOOTH",
"132 700 LINE",
"130 686 LINE",
"156 686 LINE SMOOTH",
"193 686 OFFCURVE",
"212 677 OFFCURVE",
"207 653 CURVE SMOOTH",
"84 47 LINE SMOOTH",
"79 23 OFFCURVE",
"56 14 OFFCURVE",
"18 14 CURVE SMOOTH",
"-8 14 LINE",
"-10 0 LINE"
);
},
{
closed = 1;
nodes = (
"522 0 LINE",
"524 14 LINE",
"446 14 OFFCURVE",
"434 95 OFFCURVE",
"429 173 CURVE SMOOTH",
"426 230 OFFCURVE",
"423 286 OFFCURVE",
"390 306 CURVE",
"367 306 LINE",
"366 302 LINE",
"399 265 OFFCURVE",
"396 177 OFFCURVE",
"401 105 CURVE SMOOTH",
"404 47 OFFCURVE",
"436 0 OFFCURVE",
"483 0 CURVE SMOOTH"
);
},
{
closed = 1;
nodes = (
"243 676 LINE",
"411 676 LINE SMOOTH",
"526 676 OFFCURVE",
"559 606 OFFCURVE",
"537 498 CURVE SMOOTH",
"516 391 OFFCURVE",
"453 319 OFFCURVE",
"338 319 CURVE SMOOTH",
"170 319 LINE"
);
}
);
width = 589;
}
);
note = R;
rightKerningGroup = R;
unicode = 0052;
},
{
glyphname = Racute;
lastChange = "2015-10-22 12:03:08 +0000";
layers = (
{
layerId = "C8730BEE-A5E2-4294-A2BB-9D9AC44EE1E3";
name = "Light Italic";
paths = (
{
closed = 1;
nodes = (
"190 0 LINE",
"192 14 LINE",
"166 14 LINE SMOOTH",
"129 14 OFFCURVE",
"109 23 OFFCURVE",
"114 47 CURVE SMOOTH",
"165 295 LINE",
"332 295 LINE SMOOTH",
"469 295 OFFCURVE",
"541 376 OFFCURVE",
"566 498 CURVE SMOOTH",
"591 621 OFFCURVE",
"552 700 OFFCURVE",
"415 700 CURVE SMOOTH",
"132 700 LINE",
"130 686 LINE",
"156 686 LINE SMOOTH",
"193 686 OFFCURVE",
"212 677 OFFCURVE",
"207 653 CURVE SMOOTH",
"84 47 LINE SMOOTH",
"79 23 OFFCURVE",
"56 14 OFFCURVE",
"18 14 CURVE SMOOTH",
"-8 14 LINE",
"-10 0 LINE"
);
},
{
closed = 1;
nodes = (
"522 0 LINE",
"524 14 LINE",
"446 14 OFFCURVE",
"434 95 OFFCURVE",
"429 173 CURVE SMOOTH",
"426 230 OFFCURVE",
"423 286 OFFCURVE",
"390 306 CURVE",
"367 306 LINE",
"366 302 LINE",
"399 265 OFFCURVE",
"396 177 OFFCURVE",
"401 105 CURVE SMOOTH",
"404 47 OFFCURVE",
"436 0 OFFCURVE",
"483 0 CURVE SMOOTH"
);
},
{
closed = 1;
nodes = (
"243 676 LINE",
"411 676 LINE SMOOTH",
"526 676 OFFCURVE",
"559 606 OFFCURVE",
"537 498 CURVE SMOOTH",
"516 391 OFFCURVE",
"453 319 OFFCURVE",
"338 319 CURVE SMOOTH",
"170 319 LINE"
);
},
{
closed = 1;
nodes = (
"492 860 LINE",
"504 866 OFFCURVE",
"511 875 OFFCURVE",
"512 883 CURVE",
"514 892 OFFCURVE",
"508 897 OFFCURVE",
"501 897 CURVE SMOOTH",
"492 897 OFFCURVE",
"483 891 OFFCURVE",
"474 885 CURVE SMOOTH",
"353 798 LINE",
"358 788 LINE"
);
}
);
width = 589;
}
);
note = Racute;
rightKerningGroup = R;
unicode = 0154;
},
{
glyphname = Rcaron;
lastChange = "2015-10-22 12:03:08 +0000";
layers = (
{
layerId = "C8730BEE-A5E2-4294-A2BB-9D9AC44EE1E3";
name = "Light Italic";
paths = (
{
closed = 1;
nodes = (
"190 0 LINE",
"192 14 LINE",
"166 14 LINE SMOOTH",
"129 14 OFFCURVE",
"109 23 OFFCURVE",
"114 47 CURVE SMOOTH",
"165 295 LINE",
"332 295 LINE SMOOTH",
"469 295 OFFCURVE",
"541 376 OFFCURVE",
"566 498 CURVE SMOOTH",
"591 621 OFFCURVE",
"552 700 OFFCURVE",
"415 700 CURVE SMOOTH",
"132 700 LINE",
"130 686 LINE",
"156 686 LINE SMOOTH",
"193 686 OFFCURVE",
"212 677 OFFCURVE",
"207 653 CURVE SMOOTH",
"84 47 LINE SMOOTH",
"79 23 OFFCURVE",
"56 14 OFFCURVE",
"18 14 CURVE SMOOTH",
"-8 14 LINE",
"-10 0 LINE"
);
},
{
closed = 1;
nodes = (
"522 0 LINE",
"524 14 LINE",
"446 14 OFFCURVE",
"434 95 OFFCURVE",
"429 173 CURVE SMOOTH",
"426 230 OFFCURVE",
"423 286 OFFCURVE",
"390 306 CURVE",
"367 306 LINE",
"366 302 LINE",
"399 265 OFFCURVE",
"396 177 OFFCURVE",
"401 105 CURVE SMOOTH",
"404 47 OFFCURVE",
"436 0 OFFCURVE",
"483 0 CURVE SMOOTH"
);
},
{
closed = 1;
nodes = (
"243 676 LINE",
"411 676 LINE SMOOTH",
"526 676 OFFCURVE",
"559 606 OFFCURVE",
"537 498 CURVE SMOOTH",
"516 391 OFFCURVE",
"453 319 OFFCURVE",
"338 319 CURVE SMOOTH",
"170 319 LINE"
);
},
{
closed = 1;
nodes = (
"432 787 LINE",
"548 883 LINE",
"539 899 LINE",
"439 824 LINE",
"434 821 OFFCURVE",
"430 819 OFFCURVE",
"427 819 CURVE SMOOTH",
"424 819 OFFCURVE",
"420 821 OFFCURVE",
"418 824 CURVE SMOOTH",
"348 899 LINE",
"331 883 LINE",
"409 787 LINE"
);
}
);
width = 589;
}
);
note = Rcaron;
rightKerningGroup = R;
unicode = 0158;
},
{
glyphname = Rcommaaccent;
lastChange = "2015-10-22 12:03:09 +0000";
layers = (
{
layerId = "C8730BEE-A5E2-4294-A2BB-9D9AC44EE1E3";
name = "Light Italic";
paths = (
{
closed = 1;
nodes = (
"190 0 LINE",
"192 14 LINE",
"166 14 LINE SMOOTH",
"129 14 OFFCURVE",
"109 23 OFFCURVE",
"114 47 CURVE SMOOTH",
"165 295 LINE",
"332 295 LINE SMOOTH",
"469 295 OFFCURVE",
"541 376 OFFCURVE",
"566 498 CURVE SMOOTH",
"591 621 OFFCURVE",
"552 700 OFFCURVE",
"415 700 CURVE SMOOTH",
"132 700 LINE",
"130 686 LINE",
"156 686 LINE SMOOTH",
"193 686 OFFCURVE",
"212 677 OFFCURVE",
"207 653 CURVE SMOOTH",
"84 47 LINE SMOOTH",
"79 23 OFFCURVE",
"56 14 OFFCURVE",
"18 14 CURVE SMOOTH",
"-8 14 LINE",
"-10 0 LINE"
);
},
{
closed = 1;
nodes = (
"234 -194 OFFCURVE",
"263 -150 OFFCURVE",
"273 -102 CURVE SMOOTH",
"279 -67 OFFCURVE",
"267 -61 OFFCURVE",
"253 -61 CURVE SMOOTH",
"237 -61 OFFCURVE",
"226 -72 OFFCURVE",
"222 -90 CURVE SMOOTH",
"217 -116 OFFCURVE",
"243 -116 OFFCURVE",
"237 -144 CURVE SMOOTH",
"231 -174 OFFCURVE",
"201 -202 OFFCURVE",
"176 -222 CURVE",
"181 -232 LINE"
);
},
{
closed = 1;
nodes = (
"522 0 LINE",
"524 14 LINE",
"446 14 OFFCURVE",
"434 95 OFFCURVE",
"429 173 CURVE SMOOTH",
"426 230 OFFCURVE",
"423 286 OFFCURVE",
"390 306 CURVE",
"367 306 LINE",
"366 302 LINE",
"399 265 OFFCURVE",
"396 177 OFFCURVE",
"401 105 CURVE SMOOTH",
"404 47 OFFCURVE",
"436 0 OFFCURVE",
"483 0 CURVE SMOOTH"
);
},
{
closed = 1;
nodes = (
"243 676 LINE",
"411 676 LINE SMOOTH",
"526 676 OFFCURVE",
"559 606 OFFCURVE",
"537 498 CURVE SMOOTH",
"516 391 OFFCURVE",
"453 319 OFFCURVE",
"338 319 CURVE SMOOTH",
"170 319 LINE"
);
}
);
width = 589;
}
);
note = Rcommaaccent;
rightKerningGroup = R;
unicode = 0156;
},
{
glyphname = Rdotbelow;
lastChange = "2015-10-22 12:03:08 +0000";
layers = (
{
layerId = "C8730BEE-A5E2-4294-A2BB-9D9AC44EE1E3";
name = "Light Italic";
paths = (
{
closed = 1;
nodes = (
"190 0 LINE",
"192 14 LINE",
"166 14 LINE SMOOTH",
"129 14 OFFCURVE",
"109 23 OFFCURVE",
"114 47 CURVE SMOOTH",
"165 295 LINE",
"332 295 LINE SMOOTH",
"469 295 OFFCURVE",
"541 376 OFFCURVE",
"566 498 CURVE SMOOTH",
"591 621 OFFCURVE",
"552 700 OFFCURVE",
"415 700 CURVE SMOOTH",
"132 700 LINE",
"130 686 LINE",
"156 686 LINE SMOOTH",
"193 686 OFFCURVE",
"212 677 OFFCURVE",
"207 653 CURVE SMOOTH",
"84 47 LINE SMOOTH",
"79 23 OFFCURVE",
"56 14 OFFCURVE",
"18 14 CURVE SMOOTH",
"-8 14 LINE",
"-10 0 LINE"
);
},
{
closed = 1;
nodes = (
"271 -124 OFFCURVE",
"284 -113 OFFCURVE",
"289 -94 CURVE",
"293 -75 OFFCURVE",
"283 -64 OFFCURVE",
"267 -64 CURVE SMOOTH",
"251 -64 OFFCURVE",
"237 -75 OFFCURVE",
"233 -94 CURVE",
"228 -113 OFFCURVE",
"238 -124 OFFCURVE",
"254 -124 CURVE SMOOTH"
);
},
{
closed = 1;
nodes = (
"522 0 LINE",
"524 14 LINE",
"446 14 OFFCURVE",
"434 95 OFFCURVE",
"429 173 CURVE SMOOTH",
"426 230 OFFCURVE",
"423 286 OFFCURVE",
"390 306 CURVE",
"367 306 LINE",
"366 302 LINE",
"399 265 OFFCURVE",
"396 177 OFFCURVE",
"401 105 CURVE SMOOTH",
"404 47 OFFCURVE",
"436 0 OFFCURVE",
"483 0 CURVE SMOOTH"
);
},
{
closed = 1;
nodes = (
"243 676 LINE",
"411 676 LINE SMOOTH",
"526 676 OFFCURVE",
"559 606 OFFCURVE",
"537 498 CURVE SMOOTH",
"516 391 OFFCURVE",
"453 319 OFFCURVE",
"338 319 CURVE SMOOTH",
"170 319 LINE"
);
}
);
width = 589;
}
);
note = Rdotbelow;
rightKerningGroup = R;
unicode = 1E5A;
},
{
glyphname = Rdotbelowmacron;
lastChange = "2015-10-22 12:03:09 +0000";
layers = (
{
layerId = "C8730BEE-A5E2-4294-A2BB-9D9AC44EE1E3";
name = "Light Italic";
paths = (
{
closed = 1;
nodes = (
"190 0 LINE",
"192 14 LINE",
"166 14 LINE SMOOTH",
"129 14 OFFCURVE",
"109 23 OFFCURVE",
"114 47 CURVE SMOOTH",
"165 295 LINE",
"332 295 LINE SMOOTH",
"469 295 OFFCURVE",
"541 376 OFFCURVE",
"566 498 CURVE SMOOTH",
"591 621 OFFCURVE",
"552 700 OFFCURVE",
"415 700 CURVE SMOOTH",
"132 700 LINE",
"130 686 LINE",
"156 686 LINE SMOOTH",
"193 686 OFFCURVE",
"212 677 OFFCURVE",
"207 653 CURVE SMOOTH",
"84 47 LINE SMOOTH",
"79 23 OFFCURVE",
"56 14 OFFCURVE",
"18 14 CURVE SMOOTH",
"-8 14 LINE",
"-10 0 LINE"
);
},
{
closed = 1;
nodes = (
"271 -124 OFFCURVE",
"284 -113 OFFCURVE",
"289 -94 CURVE",
"293 -75 OFFCURVE",
"283 -64 OFFCURVE",
"267 -64 CURVE SMOOTH",
"251 -64 OFFCURVE",
"237 -75 OFFCURVE",
"233 -94 CURVE",
"228 -113 OFFCURVE",
"238 -124 OFFCURVE",
"254 -124 CURVE SMOOTH"
);
},
{
closed = 1;
nodes = (
"522 0 LINE",
"524 14 LINE",
"446 14 OFFCURVE",
"434 95 OFFCURVE",
"429 173 CURVE SMOOTH",
"426 230 OFFCURVE",
"423 286 OFFCURVE",
"390 306 CURVE",
"367 306 LINE",
"366 302 LINE",
"399 265 OFFCURVE",
"396 177 OFFCURVE",
"401 105 CURVE SMOOTH",
"404 47 OFFCURVE",
"436 0 OFFCURVE",
"483 0 CURVE SMOOTH"
);
},
{
closed = 1;
nodes = (
"243 676 LINE",
"411 676 LINE SMOOTH",
"526 676 OFFCURVE",
"559 606 OFFCURVE",
"537 498 CURVE SMOOTH",
"516 391 OFFCURVE",
"453 319 OFFCURVE",
"338 319 CURVE SMOOTH",
"170 319 LINE"
);
},
{
closed = 1;
nodes = (
"523 785 LINE",
"528 807 LINE",
"266 807 LINE",
"261 785 LINE"
);
}
);
width = 589;
}
);
note = Rdotbelowmacron;
rightKerningGroup = R;
unicode = 1E5C;
},
{
glyphname = Rlinebelow;
lastChange = "2015-10-22 12:03:09 +0000";
layers = (
{
layerId = "C8730BEE-A5E2-4294-A2BB-9D9AC44EE1E3";
name = "Light Italic";
paths = (
{
closed = 1;
nodes = (
"190 0 LINE",
"192 14 LINE",
"166 14 LINE SMOOTH",
"129 14 OFFCURVE",
"109 23 OFFCURVE",
"114 47 CURVE SMOOTH",
"165 295 LINE",
"332 295 LINE SMOOTH",
"469 295 OFFCURVE",
"541 376 OFFCURVE",
"566 498 CURVE SMOOTH",
"591 621 OFFCURVE",
"552 700 OFFCURVE",
"415 700 CURVE SMOOTH",
"132 700 LINE",
"130 686 LINE",
"156 686 LINE SMOOTH",
"193 686 OFFCURVE",
"212 677 OFFCURVE",
"207 653 CURVE SMOOTH",
"84 47 LINE SMOOTH",
"79 23 OFFCURVE",
"56 14 OFFCURVE",
"18 14 CURVE SMOOTH",
"-8 14 LINE",
"-10 0 LINE"
);
},
{
closed = 1;
nodes = (
"360 -98 LINE",
"364 -76 LINE",
"102 -76 LINE",
"98 -98 LINE"
);
},
{
closed = 1;
nodes = (
"522 0 LINE",
"524 14 LINE",
"446 14 OFFCURVE",
"434 95 OFFCURVE",
"429 173 CURVE SMOOTH",
"426 230 OFFCURVE",
"423 286 OFFCURVE",
"390 306 CURVE",
"367 306 LINE",
"366 302 LINE",
"399 265 OFFCURVE",
"396 177 OFFCURVE",
"401 105 CURVE SMOOTH",
"404 47 OFFCURVE",
"436 0 OFFCURVE",
"483 0 CURVE SMOOTH"
);
},
{
closed = 1;
nodes = (
"243 676 LINE",
"411 676 LINE SMOOTH",
"526 676 OFFCURVE",
"559 606 OFFCURVE",
"537 498 CURVE SMOOTH",
"516 391 OFFCURVE",
"453 319 OFFCURVE",
"338 319 CURVE SMOOTH",
"170 319 LINE"
);
}
);
width = 589;
}
);
note = Rlinebelow;
rightKerningGroup = R;
unicode = 1E5E;
},
{
glyphname = S;
lastChange = "2015-10-22 12:03:07 +0000";
layers = (
{
layerId = "C8730BEE-A5E2-4294-A2BB-9D9AC44EE1E3";
name = "Light Italic";
paths = (
{
closed = 1;
nodes = (
"339 -10 OFFCURVE",
"440 65 OFFCURVE",
"463 175 CURVE SMOOTH",
"507 393 OFFCURVE",
"123 375 OFFCURVE",
"160 558 CURVE SMOOTH",
"176 634 OFFCURVE",
"240 686 OFFCURVE",
"355 686 CURVE SMOOTH",
"454 686 OFFCURVE",
"505 619 OFFCURVE",
"495 533 CURVE",
"508 533 LINE",
"543 707 LINE",
"524 707 LINE",
"516 670 LINE SMOOTH",
"514 656 OFFCURVE",
"510 654 OFFCURVE",
"505 654 CURVE SMOOTH",
"497 654 OFFCURVE",
"450 710 OFFCURVE",
"356 710 CURVE SMOOTH",
"246 710 OFFCURVE",
"152 660 OFFCURVE",
"131 558 CURVE SMOOTH",
"90 358 OFFCURVE",
"471 369 OFFCURVE",
"431 173 CURVE SMOOTH",
"412 78 OFFCURVE",
"328 14 OFFCURVE",
"216 14 CURVE SMOOTH",
"117 14 OFFCURVE",
"39 92 OFFCURVE",
"48 177 CURVE",
"36 177 LINE",
"0 3 LINE",
"19 3 LINE",
"27 42 LINE SMOOTH",
"30 56 OFFCURVE",
"36 67 OFFCURVE",
"41 67 CURVE SMOOTH",
"48 67 OFFCURVE",
"116 -10 OFFCURVE",
"224 -10 CURVE SMOOTH"
);
}
);
width = 504;
}
);
leftKerningGroup = S;
note = S;
rightKerningGroup = S;
unicode = 0053;
},
{
glyphname = Sacute;
lastChange = "2015-10-22 12:03:09 +0000";
layers = (
{
layerId = "C8730BEE-A5E2-4294-A2BB-9D9AC44EE1E3";
name = "Light Italic";
paths = (
{
closed = 1;
nodes = (
"339 -10 OFFCURVE",
"440 65 OFFCURVE",
"463 175 CURVE SMOOTH",
"507 393 OFFCURVE",
"123 375 OFFCURVE",
"160 558 CURVE SMOOTH",
"176 634 OFFCURVE",
"240 686 OFFCURVE",
"355 686 CURVE SMOOTH",
"454 686 OFFCURVE",
"505 619 OFFCURVE",
"495 533 CURVE",
"508 533 LINE",
"543 707 LINE",
"524 707 LINE",
"516 670 LINE SMOOTH",
"514 656 OFFCURVE",
"510 654 OFFCURVE",
"505 654 CURVE SMOOTH",
"497 654 OFFCURVE",
"450 710 OFFCURVE",
"356 710 CURVE SMOOTH",
"246 710 OFFCURVE",
"152 660 OFFCURVE",
"131 558 CURVE SMOOTH",
"90 358 OFFCURVE",
"471 369 OFFCURVE",
"431 173 CURVE SMOOTH",
"412 78 OFFCURVE",
"328 14 OFFCURVE",
"216 14 CURVE SMOOTH",
"117 14 OFFCURVE",
"39 92 OFFCURVE",
"48 177 CURVE",
"36 177 LINE",
"0 3 LINE",
"19 3 LINE",
"27 42 LINE SMOOTH",
"30 56 OFFCURVE",
"36 67 OFFCURVE",
"41 67 CURVE SMOOTH",
"48 67 OFFCURVE",
"116 -10 OFFCURVE",
"224 -10 CURVE SMOOTH"
);
},
{
closed = 1;
nodes = (
"444 860 LINE",
"457 866 OFFCURVE",
"464 875 OFFCURVE",
"465 883 CURVE",
"467 892 OFFCURVE",
"461 897 OFFCURVE",
"454 897 CURVE SMOOTH",
"444 897 OFFCURVE",
"436 891 OFFCURVE",
"427 885 CURVE SMOOTH",
"306 798 LINE",
"311 788 LINE"
);
}
);
width = 504;
}
);
leftKerningGroup = S;
note = Sacute;
rightKerningGroup = S;
unicode = 015A;
},
{
glyphname = Scaron;
lastChange = "2015-10-22 12:03:08 +0000";
layers = (
{
layerId = "C8730BEE-A5E2-4294-A2BB-9D9AC44EE1E3";
name = "Light Italic";
paths = (
{
closed = 1;
nodes = (
"339 -10 OFFCURVE",
"440 65 OFFCURVE",
"463 175 CURVE SMOOTH",
"507 393 OFFCURVE",
"123 375 OFFCURVE",
"160 558 CURVE SMOOTH",
"176 634 OFFCURVE",
"240 686 OFFCURVE",
"355 686 CURVE SMOOTH",
"454 686 OFFCURVE",
"505 619 OFFCURVE",
"495 533 CURVE",
"508 533 LINE",
"543 707 LINE",
"524 707 LINE",
"516 670 LINE SMOOTH",
"514 656 OFFCURVE",
"510 654 OFFCURVE",
"505 654 CURVE SMOOTH",
"497 654 OFFCURVE",
"450 710 OFFCURVE",
"356 710 CURVE SMOOTH",
"246 710 OFFCURVE",
"152 660 OFFCURVE",
"131 558 CURVE SMOOTH",
"90 358 OFFCURVE",
"471 369 OFFCURVE",
"431 173 CURVE SMOOTH",
"412 78 OFFCURVE",
"328 14 OFFCURVE",
"216 14 CURVE SMOOTH",
"117 14 OFFCURVE",
"39 92 OFFCURVE",
"48 177 CURVE",
"36 177 LINE",
"0 3 LINE",
"19 3 LINE",
"27 42 LINE SMOOTH",
"30 56 OFFCURVE",
"36 67 OFFCURVE",
"41 67 CURVE SMOOTH",
"48 67 OFFCURVE",
"116 -10 OFFCURVE",
"224 -10 CURVE SMOOTH"
);
},
{
closed = 1;
nodes = (
"374 787 LINE",
"491 883 LINE",
"481 899 LINE",
"381 824 LINE",
"376 821 OFFCURVE",
"372 819 OFFCURVE",
"370 819 CURVE SMOOTH",
"367 819 OFFCURVE",
"363 821 OFFCURVE",
"360 824 CURVE SMOOTH",
"291 899 LINE",
"274 883 LINE",
"351 787 LINE"
);
}
);
width = 504;
}
);
leftKerningGroup = S;
note = Scaron;
rightKerningGroup = S;
unicode = 0160;
},
{
glyphname = Scedilla;
lastChange = "2015-10-22 12:03:08 +0000";
layers = (
{
layerId = "C8730BEE-A5E2-4294-A2BB-9D9AC44EE1E3";
name = "Light Italic";
paths = (
{
closed = 1;
nodes = (
"339 -10 OFFCURVE",
"440 65 OFFCURVE",
"463 175 CURVE SMOOTH",
"507 393 OFFCURVE",
"123 375 OFFCURVE",
"160 558 CURVE SMOOTH",
"176 634 OFFCURVE",
"240 686 OFFCURVE",
"355 686 CURVE SMOOTH",
"454 686 OFFCURVE",
"505 619 OFFCURVE",
"495 533 CURVE",
"508 533 LINE",
"543 707 LINE",
"524 707 LINE",
"516 670 LINE SMOOTH",
"514 656 OFFCURVE",
"510 654 OFFCURVE",
"505 654 CURVE SMOOTH",
"497 654 OFFCURVE",
"450 710 OFFCURVE",
"356 710 CURVE SMOOTH",
"246 710 OFFCURVE",
"152 660 OFFCURVE",
"131 558 CURVE SMOOTH",
"90 358 OFFCURVE",
"471 369 OFFCURVE",
"431 173 CURVE SMOOTH",
"412 78 OFFCURVE",
"328 14 OFFCURVE",
"216 14 CURVE SMOOTH",
"117 14 OFFCURVE",
"39 92 OFFCURVE",
"48 177 CURVE",
"36 177 LINE",
"0 3 LINE",
"19 3 LINE",
"27 42 LINE SMOOTH",
"30 56 OFFCURVE",
"36 67 OFFCURVE",
"41 67 CURVE SMOOTH",
"48 67 OFFCURVE",
"116 -10 OFFCURVE",
"224 -10 CURVE SMOOTH"
);
},
{
closed = 1;
nodes = (
"196 -186 OFFCURVE",
"239 -167 OFFCURVE",
"249 -121 CURVE SMOOTH",
"255 -85 OFFCURVE",
"228 -67 OFFCURVE",
"194 -67 CURVE SMOOTH",
"186 -67 OFFCURVE",
"179 -67 OFFCURVE",
"172 -68 CURVE",
"215 0 LINE",
"188 0 LINE",
"136 -79 LINE",
"142 -89 LINE",
"151 -88 OFFCURVE",
"163 -87 OFFCURVE",
"177 -87 CURVE SMOOTH",
"202 -87 OFFCURVE",
"228 -93 OFFCURVE",
"222 -119 CURVE SMOOTH",
"215 -153 OFFCURVE",
"188 -166 OFFCURVE",
"151 -166 CURVE SMOOTH",
"136 -166 OFFCURVE",
"120 -165 OFFCURVE",
"105 -162 CURVE",
"92 -180 LINE",
"108 -184 OFFCURVE",
"128 -186 OFFCURVE",
"144 -186 CURVE SMOOTH"
);
}
);
width = 504;
}
);
leftKerningGroup = S;
note = Scedilla;
rightKerningGroup = S;
unicode = 015E;
},
{
glyphname = Scircumflex;
lastChange = "2015-10-22 12:03:08 +0000";
layers = (
{
layerId = "C8730BEE-A5E2-4294-A2BB-9D9AC44EE1E3";
name = "Light Italic";
paths = (
{
closed = 1;
nodes = (
"339 -10 OFFCURVE",
"440 65 OFFCURVE",
"463 175 CURVE SMOOTH",
"507 393 OFFCURVE",
"123 375 OFFCURVE",
"160 558 CURVE SMOOTH",
"176 634 OFFCURVE",
"240 686 OFFCURVE",
"355 686 CURVE SMOOTH",
"454 686 OFFCURVE",
"505 619 OFFCURVE",
"495 533 CURVE",
"508 533 LINE",
"543 707 LINE",
"524 707 LINE",
"516 670 LINE SMOOTH",
"514 656 OFFCURVE",
"510 654 OFFCURVE",
"505 654 CURVE SMOOTH",
"497 654 OFFCURVE",
"450 710 OFFCURVE",
"356 710 CURVE SMOOTH",
"246 710 OFFCURVE",
"152 660 OFFCURVE",
"131 558 CURVE SMOOTH",
"90 358 OFFCURVE",
"471 369 OFFCURVE",
"431 173 CURVE SMOOTH",
"412 78 OFFCURVE",
"328 14 OFFCURVE",
"216 14 CURVE SMOOTH",
"117 14 OFFCURVE",
"39 92 OFFCURVE",
"48 177 CURVE",
"36 177 LINE",
"0 3 LINE",
"19 3 LINE",
"27 42 LINE SMOOTH",
"30 56 OFFCURVE",
"36 67 OFFCURVE",
"41 67 CURVE SMOOTH",
"48 67 OFFCURVE",
"116 -10 OFFCURVE",
"224 -10 CURVE SMOOTH"
);
},
{
closed = 1;
nodes = (
"368 862 LINE SMOOTH",
"372 865 OFFCURVE",
"376 867 OFFCURVE",
"379 867 CURVE SMOOTH",
"382 867 OFFCURVE",
"385 865 OFFCURVE",
"389 862 CURVE",
"458 787 LINE",
"474 803 LINE",
"397 899 LINE",
"374 899 LINE",
"257 803 LINE",
"268 787 LINE"
);
}
);
width = 504;
}
);
leftKerningGroup = S;
note = Scircumflex;
rightKerningGroup = S;
unicode = 015C;
},
{
glyphname = Scommaaccent;
lastChange = "2015-10-22 12:03:09 +0000";
layers = (
{
layerId = "C8730BEE-A5E2-4294-A2BB-9D9AC44EE1E3";
name = "Light Italic";
paths = (
{
closed = 1;
nodes = (
"339 -10 OFFCURVE",
"440 65 OFFCURVE",
"463 175 CURVE SMOOTH",
"507 393 OFFCURVE",
"123 375 OFFCURVE",
"160 558 CURVE SMOOTH",
"176 634 OFFCURVE",
"240 686 OFFCURVE",
"355 686 CURVE SMOOTH",
"454 686 OFFCURVE",
"505 619 OFFCURVE",
"495 533 CURVE",
"508 533 LINE",
"543 707 LINE",
"524 707 LINE",
"516 670 LINE SMOOTH",
"514 656 OFFCURVE",
"510 654 OFFCURVE",
"505 654 CURVE SMOOTH",
"497 654 OFFCURVE",
"450 710 OFFCURVE",
"356 710 CURVE SMOOTH",
"246 710 OFFCURVE",
"152 660 OFFCURVE",
"131 558 CURVE SMOOTH",
"90 358 OFFCURVE",
"471 369 OFFCURVE",
"431 173 CURVE SMOOTH",
"412 78 OFFCURVE",
"328 14 OFFCURVE",
"216 14 CURVE SMOOTH",
"117 14 OFFCURVE",
"39 92 OFFCURVE",
"48 177 CURVE",
"36 177 LINE",
"0 3 LINE",
"19 3 LINE",
"27 42 LINE SMOOTH",
"30 56 OFFCURVE",
"36 67 OFFCURVE",
"41 67 CURVE SMOOTH",
"48 67 OFFCURVE",
"116 -10 OFFCURVE",
"224 -10 CURVE SMOOTH"
);
},
{
closed = 1;
nodes = (
"143 -194 OFFCURVE",
"172 -150 OFFCURVE",
"181 -102 CURVE SMOOTH",
"188 -67 OFFCURVE",
"176 -61 OFFCURVE",
"162 -61 CURVE SMOOTH",
"146 -61 OFFCURVE",
"134 -72 OFFCURVE",
"131 -90 CURVE SMOOTH",
"126 -116 OFFCURVE",
"152 -116 OFFCURVE",
"146 -144 CURVE SMOOTH",
"140 -174 OFFCURVE",
"109 -202 OFFCURVE",
"84 -222 CURVE",
"90 -232 LINE"
);
}
);
width = 504;
}
);
leftKerningGroup = S;
note = Scommaaccent;
rightKerningGroup = S;
unicode = 0218;
},
{
glyphname = Sdotaccent;
lastChange = "2015-10-22 12:03:08 +0000";
layers = (
{
layerId = "C8730BEE-A5E2-4294-A2BB-9D9AC44EE1E3";
name = "Light Italic";
paths = (
{
closed = 1;
nodes = (
"339 -10 OFFCURVE",
"440 65 OFFCURVE",
"463 175 CURVE SMOOTH",
"507 393 OFFCURVE",
"123 375 OFFCURVE",
"160 558 CURVE SMOOTH",
"176 634 OFFCURVE",
"240 686 OFFCURVE",
"355 686 CURVE SMOOTH",
"454 686 OFFCURVE",
"505 619 OFFCURVE",
"495 533 CURVE",
"508 533 LINE",
"543 707 LINE",
"524 707 LINE",
"516 670 LINE SMOOTH",
"514 656 OFFCURVE",
"510 654 OFFCURVE",
"505 654 CURVE SMOOTH",
"497 654 OFFCURVE",
"450 710 OFFCURVE",
"356 710 CURVE SMOOTH",
"246 710 OFFCURVE",
"152 660 OFFCURVE",
"131 558 CURVE SMOOTH",
"90 358 OFFCURVE",
"471 369 OFFCURVE",
"431 173 CURVE SMOOTH",
"412 78 OFFCURVE",
"328 14 OFFCURVE",
"216 14 CURVE SMOOTH",
"117 14 OFFCURVE",
"39 92 OFFCURVE",
"48 177 CURVE",
"36 177 LINE",
"0 3 LINE",
"19 3 LINE",
"27 42 LINE SMOOTH",
"30 56 OFFCURVE",
"36 67 OFFCURVE",
"41 67 CURVE SMOOTH",
"48 67 OFFCURVE",
"116 -10 OFFCURVE",
"224 -10 CURVE SMOOTH"
);
},
{
closed = 1;
nodes = (
"389 787 OFFCURVE",
"402 798 OFFCURVE",
"406 817 CURVE SMOOTH",
"410 836 OFFCURVE",
"401 847 OFFCURVE",
"385 847 CURVE SMOOTH",
"369 847 OFFCURVE",
"354 836 OFFCURVE",
"350 817 CURVE SMOOTH",
"347 798 OFFCURVE",
"356 787 OFFCURVE",
"372 787 CURVE SMOOTH"
);
}
);
width = 504;
}
);
leftKerningGroup = S;
note = Sdotaccent;
rightKerningGroup = S;
unicode = 1E60;
},
{
glyphname = Sdotbelow;
lastChange = "2015-10-22 12:03:09 +0000";
layers = (
{
layerId = "C8730BEE-A5E2-4294-A2BB-9D9AC44EE1E3";
name = "Light Italic";
paths = (
{
closed = 1;
nodes = (
"339 -10 OFFCURVE",
"440 65 OFFCURVE",
"463 175 CURVE SMOOTH",
"507 393 OFFCURVE",
"123 375 OFFCURVE",
"160 558 CURVE SMOOTH",
"176 634 OFFCURVE",
"240 686 OFFCURVE",
"355 686 CURVE SMOOTH",
"454 686 OFFCURVE",
"505 619 OFFCURVE",
"495 533 CURVE",
"508 533 LINE",
"543 707 LINE",
"524 707 LINE",
"516 670 LINE SMOOTH",
"514 656 OFFCURVE",
"510 654 OFFCURVE",
"505 654 CURVE SMOOTH",
"497 654 OFFCURVE",
"450 710 OFFCURVE",
"356 710 CURVE SMOOTH",
"246 710 OFFCURVE",
"152 660 OFFCURVE",
"131 558 CURVE SMOOTH",
"90 358 OFFCURVE",
"471 369 OFFCURVE",
"431 173 CURVE SMOOTH",
"412 78 OFFCURVE",
"328 14 OFFCURVE",
"216 14 CURVE SMOOTH",
"117 14 OFFCURVE",
"39 92 OFFCURVE",
"48 177 CURVE",
"36 177 LINE",
"0 3 LINE",
"19 3 LINE",
"27 42 LINE SMOOTH",
"30 56 OFFCURVE",
"36 67 OFFCURVE",
"41 67 CURVE SMOOTH",
"48 67 OFFCURVE",
"116 -10 OFFCURVE",
"224 -10 CURVE SMOOTH"
);
},
{
closed = 1;
nodes = (
"204 -124 OFFCURVE",
"218 -113 OFFCURVE",
"223 -94 CURVE",
"227 -75 OFFCURVE",
"217 -64 OFFCURVE",
"201 -64 CURVE SMOOTH",
"184 -64 OFFCURVE",
"171 -75 OFFCURVE",
"167 -94 CURVE",
"162 -113 OFFCURVE",
"172 -124 OFFCURVE",
"188 -124 CURVE SMOOTH"
);
}
);
width = 504;
}
);
leftKerningGroup = S;
note = Sdotbelow;
rightKerningGroup = S;
unicode = 1E62;
},
{
glyphname = Germandbls;
lastChange = "2015-10-22 12:03:08 +0000";
layers = (
{
layerId = "C8730BEE-A5E2-4294-A2BB-9D9AC44EE1E3";
name = "Light Italic";
paths = (
{
closed = 1;
nodes = (
"483 -10 OFFCURVE",
"567 87 OFFCURVE",
"590 200 CURVE SMOOTH",
"613 315 OFFCURVE",
"542 389 OFFCURVE",
"405 394 CURVE",
"584 557 LINE",
"578 630 OFFCURVE",
"527 710 OFFCURVE",
"418 710 CURVE SMOOTH",
"267 710 OFFCURVE",
"172 609 OFFCURVE",
"141 458 CURVE SMOOTH",
"57 47 LINE SMOOTH",
"52 23 OFFCURVE",
"29 14 OFFCURVE",
"-9 14 CURVE SMOOTH",
"-35 14 LINE",
"-36 0 LINE",
"163 0 LINE",
"165 14 LINE",
"139 14 LINE SMOOTH",
"102 14 OFFCURVE",
"83 23 OFFCURVE",
"87 47 CURVE SMOOTH",
"174 468 LINE SMOOTH",
"201 600 OFFCURVE",
"285 686 OFFCURVE",
"408 686 CURVE SMOOTH",
"497 686 OFFCURVE",
"544 629 OFFCURVE",
"558 561 CURVE",
"372 392 LINE",
"368 371 LINE",
"397 371 LINE SMOOTH",
"529 371 OFFCURVE",
"580 301 OFFCURVE",
"560 200 CURVE SMOOTH",
"537 89 OFFCURVE",
"456 12 OFFCURVE",
"336 12 CURVE SMOOTH",
"284 12 OFFCURVE",
"228 23 OFFCURVE",
"182 49 CURVE",
"177 23 LINE",
"217 1 OFFCURVE",
"270 -10 OFFCURVE",
"335 -10 CURVE SMOOTH"
);
}
);
width = 614;
}
);
note = uni1E9E;
unicode = 1E9E;
},
{
glyphname = Schwa;
lastChange = "2015-10-22 12:03:08 +0000";
layers = (
{
layerId = "C8730BEE-A5E2-4294-A2BB-9D9AC44EE1E3";
name = "Light Italic";
paths = (
{
closed = 1;
nodes = (
"430 -10 OFFCURVE",
"572 111 OFFCURVE",
"620 344 CURVE SMOOTH",
"663 559 OFFCURVE",
"578 710 OFFCURVE",
"391 710 CURVE SMOOTH",
"262 710 OFFCURVE",
"154 636 OFFCURVE",
"117 535 CURVE",
"143 535 LINE",
"192 644 OFFCURVE",
"295 685 OFFCURVE",
"373 685 CURVE SMOOTH",
"574 685 OFFCURVE",
"626 525 OFFCURVE",
"588 335 CURVE SMOOTH",
"554 171 OFFCURVE",
"435 12 OFFCURVE",
"251 12 CURVE SMOOTH",
"87 12 OFFCURVE",
"62 171 OFFCURVE",
"87 307 CURVE",
"586 307 LINE",
"590 331 LINE",
"64 331 LINE",
"60 311 LINE SMOOTH",
"25 138 OFFCURVE",
"73 -10 OFFCURVE",
"251 -10 CURVE SMOOTH"
);
}
);
width = 624;
}
);
note = uni018F;
unicode = 018F;
},
